<svg width="52" height="55" viewBox="0 0 52 55" fill="none" xmlns="http://www.w3.org/2000/svg">
  <path fill-rule="evenodd" clip-rule="evenodd"
    d="M16.8333 2.22705C16.8333 1.39862 16.1618 0.727051 15.3333 0.727051C14.5049 0.727051 13.8333 1.39862 13.8333 2.22705V6.0603H7.33333C3.55824 6.0603 0.5 9.11854 0.5 12.8936V20.8936V47.5603C0.5 51.3354 3.55824 54.3936 7.33333 54.3936H44.6667C48.4418 54.3936 51.5 51.3354 51.5 47.5603V20.8936V12.8936C51.5 9.11854 48.4418 6.0603 44.6667 6.0603H38.1673V2.22705C38.1673 1.39862 37.4957 0.727051 36.6673 0.727051C35.8389 0.727051 35.1673 1.39862 35.1673 2.22705V6.0603H16.8333V2.22705ZM13.8333 9.0603V12.8937C13.8333 13.7221 14.5049 14.3937 15.3333 14.3937C16.1618 14.3937 16.8333 13.7221 16.8333 12.8937V9.0603H35.1673V12.8937C35.1673 13.7221 35.8389 14.3937 36.6673 14.3937C37.4957 14.3937 38.1673 13.7221 38.1673 12.8937V9.0603H44.6667C46.7849 9.0603 48.5 10.7754 48.5 12.8936V19.3936H3.5V12.8936C3.5 10.7754 5.21509 9.0603 7.33333 9.0603H13.8333ZM3.5 22.3936V47.5603C3.5 49.6785 5.21509 51.3936 7.33333 51.3936H44.6667C46.7849 51.3936 48.5 49.6785 48.5 47.5603V22.3936H3.5Z"
    fill="url(#calendar0_linear)"></path>
  <path d="M12.6666 31.5605H39.3333" stroke="white" stroke-width="3" stroke-linecap="round" stroke-linejoin="round">
  </path>
  <path d="M12.6666 42.2269H39.3333" stroke="white" stroke-width="3" stroke-linecap="round" stroke-linejoin="round">
  </path>
  <defs>
    <linearGradient id="calendar0_linear" x1="55.3288" y1="27.5605" x2="0.500063" y2="27.6187"
      gradientUnits="userSpaceOnUse">
      <stop stop-color="#FF008E"></stop>
      <stop offset="1" stop-color="#8257E5"></stop>
    </linearGradient>
  </defs>
</svg>
