<svg width="48" height="48" viewBox="0 0 48 48" fill="none" xmlns="http://www.w3.org/2000/svg">
  <rect opacity="0.15" width="48" height="48" fill="#04D361"></rect>
  <path
    d="M24.7073 12C31.499 12 37 17.5095 37 24.3045C37 29.742 33.4781 34.3531 28.5949 35.9788C27.9802 36.0946 27.7549 35.7137 27.7549 35.3871C27.7549 35.095 27.7651 34.3207 27.7702 33.295C31.1897 34.0369 31.9108 31.6442 31.9108 31.6442C32.4701 30.2241 33.2784 29.8443 33.2784 29.8443C34.3919 29.0815 33.1923 29.0971 33.1923 29.0971C31.958 29.1827 31.3095 30.3649 31.3095 30.3649C30.2134 32.2463 28.432 31.7027 27.7293 31.3886C27.6186 30.5924 27.3021 30.0509 26.9507 29.743C29.6807 29.4352 32.55 28.3771 32.55 23.6628C32.55 22.3198 32.0737 21.2221 31.2849 20.3613C31.4232 20.0503 31.8381 18.7992 31.1774 17.1046C31.1774 17.1046 30.1479 16.7749 27.7969 18.3662C26.8135 18.0928 25.7686 17.9571 24.7237 17.9509C23.6788 17.9571 22.634 18.0928 21.6505 18.3662C19.3149 16.7749 18.2854 17.1046 18.2854 17.1046C17.6247 18.7992 18.0396 20.0503 18.1625 20.3613C17.3788 21.2221 16.9025 22.3198 16.9025 23.6628C16.9025 28.3897 19.7759 29.43 22.511 29.7326C22.0808 30.102 21.6813 30.8564 21.6813 32.0094C21.6813 33.656 21.6966 34.9791 21.6966 35.3788C21.6966 35.7012 21.4815 36.0863 20.8515 35.9631C15.9334 34.3478 12.4146 29.7336 12.4146 24.3045C12.4146 17.5095 17.9187 12 24.7073 12V12Z"
    fill="white"></path>
</svg>
