<svg width="48" height="48" viewBox="0 0 48 48" fill="none" xmlns="http://www.w3.org/2000/svg">
  <rect opacity="0.5" width="48" height="48" rx="5" fill="url(#discord0_linear)"></rect>
  <path
    d="M32.3115 16.5622C30.7901 15.8332 29.1336 15.3124 27.4094 15C27.3756 15 27.3418 15 27.3418 15.0347C27.139 15.4166 26.9023 15.9373 26.7333 16.3192C24.8739 16.0415 23.0483 16.0415 21.2565 16.3192C21.0875 15.9026 20.8508 15.4166 20.648 15.0347C20.648 15 20.6142 15 20.5804 15C18.8562 15.3124 17.2334 15.8332 15.6783 16.5622C15.6783 16.5622 15.6445 16.5622 15.6445 16.5969C12.5342 21.3529 11.689 26.0048 12.0947 30.6219C12.0947 30.6566 12.0947 30.6566 12.1285 30.6913C14.1908 32.2535 16.1854 33.1908 18.1124 33.8157C18.1462 33.8157 18.18 33.8157 18.18 33.781C18.6533 33.1214 19.059 32.4618 19.3971 31.7328C19.4309 31.6981 19.3971 31.6286 19.3633 31.6286C18.721 31.3856 18.0786 31.0732 17.5039 30.726C17.4701 30.6913 17.4363 30.6219 17.5039 30.5872C17.6391 30.483 17.7405 30.3789 17.8758 30.2747C17.9096 30.24 17.9434 30.24 17.9434 30.2747C21.865 32.1146 26.1247 32.1146 30.0126 30.2747C30.0464 30.2747 30.0802 30.2747 30.0802 30.2747C30.2154 30.3789 30.3168 30.483 30.4521 30.5872C30.4859 30.6219 30.4859 30.6913 30.4521 30.726C29.8435 31.0732 29.235 31.3856 28.5927 31.6286C28.5589 31.6286 28.5251 31.6981 28.5589 31.7328C28.9307 32.4618 29.3364 33.1214 29.7759 33.781C29.8097 33.8157 29.8435 33.8157 29.8435 33.8157C31.8044 33.1908 33.799 32.2535 35.8612 30.6913C35.895 30.6913 35.895 30.6566 35.895 30.6219C36.4021 25.3104 35.0499 20.6933 32.3115 16.5622ZM20.0056 27.8099C18.8224 27.8099 17.842 26.6991 17.842 25.3104C17.842 23.9218 18.7886 22.8109 20.0056 22.8109C21.2227 22.8109 22.1693 23.9218 22.1693 25.3104C22.1693 26.6991 21.2227 27.8099 20.0056 27.8099ZM27.9841 27.8099C26.8009 27.8099 25.8205 26.6991 25.8205 25.3104C25.8205 23.9218 26.7671 22.8109 27.9841 22.8109C29.2012 22.8109 30.1478 23.9218 30.1478 25.3104C30.1478 26.6991 29.2012 27.8099 27.9841 27.8099Z"
    fill="white"></path>
  <defs>
    <linearGradient id="discord0_linear" x1="0" y1="0" x2="50.8016" y2="3.1751" gradientUnits="userSpaceOnUse">
      <stop stop-color="#5465F2"></stop>
      <stop offset="1" stop-color="#8257E6"></stop>
    </linearGradient>
  </defs>
</svg>
