<svg width="238" height="21" viewBox="0 0 238 21" fill="none" xmlns="http://www.w3.org/2000/svg">
  <path fill-rule="evenodd" clip-rule="evenodd"
    d="M40.4792 10.5048C40.4808 12.5728 39.8755 14.5948 38.7398 16.315C37.6041 18.0353 35.9891 19.3766 34.099 20.1691C32.209 20.9616 30.1287 21.1698 28.1215 20.7674C26.1143 20.3649 24.2703 19.37 22.8228 17.9083C21.3752 16.4466 20.3892 14.5838 19.9894 12.5557C19.8749 11.975 19.8099 11.3882 19.7939 10.8016C19.7192 13.3471 18.686 15.7726 16.8989 17.5786C15.0424 19.4547 12.5246 20.5086 9.89914 20.5086H0V0.500749H9.89914C12.5246 0.500749 15.0424 1.55473 16.8989 3.43083C18.6879 5.2388 19.7215 7.66754 19.7942 10.2161C19.8298 8.95081 20.0926 7.69596 20.5766 6.51441C21.3594 4.60368 22.6853 2.97048 24.3866 1.82139C26.0879 0.672309 28.0883 0.0589676 30.1346 0.0589676C32.8754 0.0633702 35.5028 1.1651 37.4416 3.12287C39.3804 5.08064 40.4727 7.73498 40.4792 10.5048ZM66.4232 0.500193L63.6102 10.9626L60.8054 0.500193H55.6414L52.7954 10.996L49.9824 0.500193H42.0136L49.042 20.5081H55.6414L58.2317 12.3966L60.8054 20.5081H67.4049L74.392 0.500193H66.4232ZM95.2627 0.500193V20.5081H87.7559V13.3469H83.0785V20.5081H75.5717V0.500193H83.0785V7.66138H87.7641V0.500193H95.2627ZM98.0757 0.500193V20.5081H105.574V0.500193H98.0757ZM121.99 14.7808V20.5081H108.387V0.500193H115.894V14.8142L121.99 14.7808ZM131.362 8.10319V6.19412L137.458 6.22745V0.500193H123.863V20.5081H137.458V14.7808H131.362V12.8718H136.055V8.10319H131.362Z"
    fill="url(#dowhile20210_linear)"></path>
  <path
    d="M161.199 0.625243L158.526 0.216705C158.444 0.216705 158.361 0.216728 158.361 0.291757L157.223 1.76736C157.165 1.86492 157.138 1.97884 157.149 2.09245C157.149 2.17581 157.066 2.34256 156.984 2.25919L156.093 2.01745C155.928 2.01745 155.771 2.01745 155.689 2.17584L152.042 6.92773C151.96 7.0111 151.878 7.01108 151.721 7.01108L150.343 6.3525C150.283 6.312 150.213 6.29037 150.141 6.29037C150.069 6.29037 149.999 6.312 149.939 6.3525L149.205 6.84433C149.145 6.88593 149.075 6.90824 149.003 6.90824C148.93 6.90824 148.86 6.88593 148.801 6.84433L148.479 6.67759C148.426 6.65356 148.368 6.64103 148.309 6.64075C148.251 6.64048 148.193 6.65249 148.14 6.67601C148.086 6.69954 148.038 6.73409 147.998 6.77742C147.959 6.82076 147.929 6.87194 147.91 6.92773L147.67 8.06984C147.639 8.19118 147.646 8.31921 147.688 8.43686C147.731 8.55451 147.808 8.6562 147.91 8.72842L148.561 9.13691L150.261 10.204L151.086 10.6959C151.2 10.7616 151.332 10.789 151.462 10.7741C151.593 10.7591 151.715 10.7025 151.812 10.6125L153.189 9.387C153.313 9.31138 153.459 9.2819 153.602 9.30365L154.006 9.54539C154.163 9.62876 154.328 9.62878 154.41 9.46205L155.136 8.81177C155.186 8.75701 155.252 8.71955 155.325 8.70461C155.397 8.68966 155.473 8.69799 155.54 8.72842L156.596 9.2203C156.761 9.30367 156.918 9.22027 157.083 9.13691L157.569 8.48668L161.216 3.73479C161.372 3.48469 161.298 3.15956 160.968 3.15956L160.143 3.00116C159.978 3.00116 159.904 2.75106 159.978 2.58433L161.282 1.03373C161.447 0.866997 161.356 0.625243 161.199 0.625243Z"
    fill="white"></path>
  <path
    d="M149.073 10.204C148.99 10.1207 148.908 10.204 148.908 10.2874L149.312 11.3461V11.5962L148.99 12.9884C148.985 13.0324 148.99 13.0771 149.004 13.1189C149.018 13.1608 149.042 13.1989 149.073 13.2302L150.038 13.9722C150.085 14.0087 150.143 14.0285 150.203 14.0285C150.262 14.0285 150.32 14.0087 150.368 13.9722L151.416 13.0718C151.448 13.0403 151.487 13.0165 151.53 13.0021C151.573 12.9877 151.618 12.983 151.663 12.9884L152.793 12.8217C152.876 12.8217 152.876 12.7384 152.793 12.655L149.073 10.204Z"
    fill="white"></path>
  <path
    d="M148.718 13.722C148.704 13.7031 148.686 13.6877 148.665 13.677C148.645 13.6664 148.622 13.6609 148.598 13.6609C148.575 13.6609 148.552 13.6664 148.531 13.677C148.511 13.6877 148.493 13.7031 148.479 13.722L147.654 14.1305C147.632 14.1305 147.611 14.1393 147.596 14.1549C147.58 14.1706 147.571 14.1918 147.571 14.2139L145.79 18.6323H145.872L146.276 18.4739V18.5572L144.981 20.6831C144.981 20.7665 144.981 20.7665 145.055 20.7665L149.592 16.098C149.675 16.098 149.675 16.0146 149.675 15.9312L149.757 14.7057C149.757 14.6224 149.757 14.539 149.675 14.539L148.718 13.722Z"
    fill="white"></path>
  <path
    d="M184.107 14.7809V20.5081H165.827C165.827 20.5081 174.522 10.8543 175.668 8.58675C176.576 6.80271 175.611 5.7273 174.728 5.7273C173.845 5.7273 172.855 6.23582 172.855 8.58675L165.885 8.11156C165.885 3.64313 168.986 0.0083313 174.728 0.0083313C180.263 0.0083313 183.637 2.95951 183.637 7.16117C183.637 9.77887 181.41 12.7634 178.952 14.7892L184.107 14.7809Z"
    fill="white"></path>
  <path
    d="M204.731 10.5044C204.731 16.29 200.944 21.0002 195.351 21.0002C189.758 21.0002 185.98 16.29 185.98 10.5044C185.98 4.71875 189.758 0.0168839 195.351 0.0168839C200.944 0.0168839 204.731 4.66874 204.731 10.5044Z"
    fill="white"></path>
  <path
    d="M224.884 14.7809V20.5081H206.603C206.603 20.5081 215.298 10.8543 216.445 8.58675C217.352 6.80271 216.387 5.7273 215.504 5.7273C214.622 5.7273 213.632 6.23582 213.632 8.58675L206.661 8.11156C206.661 3.64313 209.763 0.0083313 215.504 0.0083313C221.04 0.0083313 224.413 2.95951 224.413 7.16117C224.413 9.77887 222.186 12.7634 219.728 14.7892L224.884 14.7809Z"
    fill="white"></path>
  <path d="M238 3.05176e-05V20.5081H230.501V7.16951L227.202 7.58634V1.83405L238 3.05176e-05Z" fill="white"></path>
  <defs>
    <linearGradient id="dowhile20210_linear" x1="-2.81247e-06" y1="0.554921" x2="45.0945" y2="76.1005"
      gradientUnits="userSpaceOnUse">
      <stop stop-color="#FF008E"></stop>
      <stop offset="1" stop-color="#FFCD1E"></stop>
    </linearGradient>
  </defs>
</svg>
