<svg width="79" height="97" viewBox="0 0 79 97" fill="none" xmlns="http://www.w3.org/2000/svg">
  <path
    d="M51.5439 92.0606L69.5323 78.978C76.9284 73.5889 80.0503 64.0744 77.2257 55.3403L70.35 34.1927C67.5253 25.4959 59.4231 19.5864 50.2431 19.5864H28.0177C18.8748 19.5864 10.7354 25.4959 7.91074 34.1927L1.03499 55.3403C-1.78965 64.0372 1.29518 73.5889 8.72842 78.978L26.7169 92.0606C34.1129 97.4497 44.1478 97.4497 51.5439 92.0606Z"
    fill="#0A0A0C"></path>
  <path
    d="M51.5439 92.0606L69.5323 78.978C76.9284 73.5889 80.0503 64.0744 77.2257 55.3403L70.35 34.1927C67.5253 25.4959 59.4231 19.5864 50.2431 19.5864H28.0177C18.8748 19.5864 10.7354 25.4959 7.91074 34.1927L1.03499 55.3403C-1.78965 64.0372 1.29518 73.5889 8.72842 78.978L26.7169 92.0606C34.1129 97.4497 44.1478 97.4497 51.5439 92.0606Z"
    fill="url(#de5da990-2495-11ec-9622-d9f774aa8a4e)"></path>
  <path
    d="M50.2431 22.7827C58.048 22.7827 64.9237 27.7629 67.3395 35.1962L74.2153 56.3438C76.6311 63.777 73.9923 71.8421 67.674 76.4507L49.6856 89.5332C46.6008 91.7631 42.9585 92.9525 39.1304 92.9525C35.3022 92.9525 31.66 91.7631 28.5752 89.5332L10.5867 76.4507C4.26847 71.8421 1.62968 63.777 4.04549 56.3438L10.9212 35.1962C13.337 27.7629 20.2128 22.7827 28.0177 22.7827H50.2431ZM50.2431 19.6235H28.0177C18.8748 19.6235 10.7354 25.533 7.91074 34.2299L1.03499 55.3774C-1.78965 64.0743 1.29518 73.626 8.72842 79.0151L26.7169 92.0976C30.4335 94.7736 34.7819 96.1488 39.1304 96.1488C43.4788 96.1488 47.8644 94.8108 51.5439 92.0976L69.5323 79.0151C76.9284 73.626 80.0503 64.1115 77.2257 55.3774L70.35 34.2299C67.5253 25.533 59.4231 19.6235 50.2431 19.6235Z"
    fill="#AD1E12"></path>
  <path
    d="M20.287 37.463L20.8445 38.4665L20.8817 38.5036L21.8852 39.0611C21.9595 39.0983 21.9595 39.1726 21.8852 39.2098L20.8817 39.7673C20.8817 39.7673 20.8445 39.7673 20.8445 39.8044L20.287 40.8079C20.2499 40.8823 20.1755 40.8823 20.1384 40.8079L19.5809 39.8044L19.5437 39.7673L18.5402 39.2098C18.4659 39.1726 18.4659 39.0983 18.5402 39.0611L19.5437 38.5036C19.5437 38.5036 19.5809 38.5036 19.5809 38.4665L20.1384 37.463C20.1755 37.3886 20.2499 37.3886 20.287 37.463Z"
    fill="#D73628"></path>
  <path
    d="M56.3013 74.7413L56.5986 75.2616L57.119 75.5589C57.1561 75.5589 57.1561 75.6332 57.119 75.6332L56.5986 75.9306L56.3013 76.4509C56.3013 76.4881 56.227 76.4881 56.227 76.4509L55.9297 75.9306L55.4093 75.6332C55.3722 75.6332 55.3722 75.5589 55.4093 75.5589L55.9297 75.2616L56.227 74.7413C56.227 74.7041 56.3013 74.7041 56.3013 74.7413Z"
    fill="#D73628"></path>
  <path
    d="M49.3883 67.3819L49.9829 68.4969L50.0201 68.5341L51.1351 69.1287C51.2094 69.1659 51.2094 69.2402 51.1351 69.2774L50.0201 69.8721L49.9829 69.9092L49.3883 71.0242C49.3511 71.0985 49.2768 71.0985 49.2396 71.0242L48.6449 69.9092L48.6077 69.8721L47.4928 69.2774C47.4184 69.2402 47.4184 69.1659 47.4928 69.1287L48.6077 68.5341L48.6449 68.4969L49.2396 67.3819C49.2396 67.3076 49.3511 67.3076 49.3883 67.3819Z"
    fill="#D73628"></path>
  <path
    d="M61.1701 41.9234L61.9506 43.3729C61.9506 43.4101 61.9877 43.4101 61.9877 43.4101L63.4372 44.1906C63.5115 44.2277 63.5115 44.3392 63.4372 44.3764L61.9877 45.1569C61.9506 45.1569 61.9506 45.1941 61.9506 45.1941L61.1701 46.6435C61.1329 46.7179 61.0214 46.7179 60.9843 46.6435L60.2038 45.1941C60.2038 45.1569 60.1666 45.1569 60.1666 45.1569L58.7171 44.3764C58.6428 44.3392 58.6428 44.2277 58.7171 44.1906L60.1666 43.4101C60.2038 43.4101 60.2038 43.3729 60.2038 43.3729L60.9843 41.9234C61.0214 41.8491 61.1329 41.8491 61.1701 41.9234Z"
    fill="#D73628"></path>
  <path
    d="M24.7472 70.2443L25.7135 71.9911C25.7135 72.0283 25.7507 72.0282 25.7879 72.0654L27.5347 73.0317C27.6462 73.0689 27.6462 73.2176 27.5347 73.2919L25.7879 74.2582C25.7507 74.2582 25.7507 74.2954 25.7135 74.3326L24.7472 76.0794C24.71 76.1909 24.5614 76.1909 24.4871 76.0794L23.5207 74.3326C23.5207 74.2954 23.4836 74.2954 23.4464 74.2582L21.6996 73.2919C21.5881 73.2547 21.5881 73.1061 21.6996 73.0317L23.4464 72.0654C23.4836 72.0654 23.4835 72.0283 23.5207 71.9911L24.4871 70.2443C24.5614 70.1328 24.6729 70.1328 24.7472 70.2443Z"
    fill="#D73628"></path>
  <path
    d="M13.746 46.3091L13.4858 46.7551L13.0398 47.0153C13.0027 47.0153 13.0027 47.0524 13.0398 47.0896L13.4858 47.3498L13.746 47.7958C13.746 47.8329 13.7832 47.8329 13.8203 47.7958L14.0805 47.3498L14.5265 47.0896C14.5637 47.0896 14.5637 47.0524 14.5265 47.0153L14.0805 46.7551L13.8203 46.3091C13.7832 46.272 13.746 46.272 13.746 46.3091Z"
    fill="#D73628"></path>
  <path
    d="M38.4615 0C36.0086 0 30.0248 12.4507 30.0248 17.8398C30.0248 27.4287 30.0248 56.0095 30.0248 56.0095H38.4615H46.8982C46.8982 56.0095 46.8982 27.4287 46.8982 17.8398C46.8982 12.4878 40.9145 0 38.4615 0Z"
    fill="white"></path>
  <path
    d="M43.6647 12.7853C43.3302 12.5251 41.8436 11.4102 38.4615 11.4102C35.0422 11.4102 33.5555 12.5251 33.2582 12.7853C33.221 12.8225 33.1838 12.8596 33.1838 12.934V13.8631C33.1838 14.0118 33.3697 14.1233 33.4812 14.0118C34.0758 13.603 35.5997 12.8225 38.4615 12.8225C41.3233 12.8225 42.8471 13.603 43.4417 14.0118C43.5904 14.0861 43.7391 14.0118 43.7391 13.8631V12.934C43.7391 12.8968 43.7019 12.8225 43.6647 12.7853Z"
    fill="#D73628"></path>
  <path
    d="M30.0248 40.251C30.0248 40.251 19.8784 48.3532 19.2466 59.9491C19.2094 60.5809 19.8412 61.1012 20.4359 60.8782C23.4092 59.9491 25.4533 56.0095 30.0248 56.0095V40.251Z"
    fill="#D73628"></path>
  <path
    d="M46.8983 40.251C46.8983 40.251 57.0447 48.3532 57.6765 59.9491C57.7137 60.5809 57.0819 61.1012 56.4872 60.8782C53.5139 59.9491 51.4698 56.0095 46.8983 56.0095V40.251Z"
    fill="#D73628"></path>
  <path
    d="M38.4615 56.0098H30.0248L31.8459 59.9122C31.8459 59.9122 36.8634 60.4325 38.4615 60.4325C40.0597 60.4325 45.0771 59.9122 45.0771 59.9122L46.8982 56.0098H38.4615Z"
    fill="#D73628"></path>
  <path
    d="M38.4614 40.251C37.5322 40.251 36.4172 49.9142 36.4172 60.3207C36.4172 61.956 37.4579 63.5914 38.4614 63.5914C39.502 63.5914 40.5055 61.956 40.5055 60.3207C40.5055 49.9142 39.3905 40.251 38.4614 40.251Z"
    fill="#D73628"></path>
  <defs>
    <linearGradient id="de5da990-2495-11ec-9622-d9f774aa8a4e" x1="39.1278" y1="19.5864" x2="39.1278" y2="96.1024"
      gradientUnits="userSpaceOnUse">
      <stop stop-color="#42110D" stop-opacity="0"></stop>
      <stop offset="1" stop-color="#42110D"></stop>
    </linearGradient>
  </defs>
</svg>
