<svg width="64" height="64" viewBox="0 0 64 64" fill="none" xmlns="http://www.w3.org/2000/svg">
  <path fill-rule="evenodd" clip-rule="evenodd"
    d="M24.3244 32.8644L25.4027 31.18L22.0338 29.0234L20.9555 30.7079L16.4759 37.706C15.7069 37.5027 14.8994 37.3943 14.0667 37.3943C8.87371 37.3943 4.66675 41.6049 4.66675 46.7943C4.66675 51.9869 8.87418 56.1943 14.0667 56.1943C19.261 56.1943 23.4634 51.9829 23.4667 46.7956L21.4667 46.7943H23.4667C23.4667 43.875 22.1361 41.2673 20.049 39.5435L24.3244 32.8644ZM16.1507 41.8112L17.7127 42.8111C18.7906 43.7983 19.4667 45.2172 19.4667 46.7943C19.4641 49.7772 17.0481 52.1943 14.0667 52.1943C11.0833 52.1943 8.66675 49.7778 8.66675 46.7943C8.66675 43.8131 11.0838 41.3943 14.0667 41.3943C14.8053 41.3943 15.5094 41.5427 16.1507 41.8112Z"
    fill="url(#paint0_linear449ba5b0-2444-11ec-9622-d9f774aa8a4e)"></path>
  <path fill-rule="evenodd" clip-rule="evenodd"
    d="M26.5999 17.2042C26.5999 14.223 29.017 11.8042 31.9999 11.8042C34.9812 11.8042 37.3999 14.2212 37.3999 17.2042C37.3999 18.9695 36.5524 20.5377 35.2417 21.5231L34.5562 21.9619C33.7956 22.3715 32.9256 22.604 32.0011 22.6042C29.0149 22.5995 26.5999 20.1804 26.5999 17.2042ZM35.2897 26.0125C34.2659 26.395 33.1574 26.6042 31.9999 26.6042L31.9973 26.6042L31.9954 26.6042C26.8072 26.5964 22.5999 22.3922 22.5999 17.2042C22.5999 12.0148 26.8069 7.8042 31.9999 7.8042C37.1894 7.8042 41.3999 12.0112 41.3999 17.2042C41.3999 19.7966 40.3501 22.1446 38.652 23.8456L43.0444 30.7075L44.1227 32.3919L40.7538 34.5484L39.6755 32.864L35.2897 26.0125Z"
    fill="#E1E1E6"></path>
  <path fill-rule="evenodd" clip-rule="evenodd"
    d="M44.536 46.7943C44.536 43.8131 46.953 41.3943 49.936 41.3943C52.9172 41.3943 55.336 43.8113 55.336 46.7943C55.336 49.7755 52.9189 52.1943 49.936 52.1943C46.9504 52.1943 44.536 49.7782 44.536 46.7943ZM40.75 48.799C41.6676 53.0277 45.4288 56.1943 49.936 56.1943C55.129 56.1943 59.336 51.9837 59.336 46.7943C59.336 41.6012 55.1254 37.3943 49.936 37.3943C45.428 37.3943 41.6632 40.5672 40.7483 44.799H32H30V48.799H32H40.75Z"
    fill="url(#paint1_linear485fb290-2444-11ec-9622-d9f774aa8a4e)"></path>
  <defs>
    <linearGradient id="paint0_linear449ba5b0-2444-11ec-9622-d9f774aa8a4e" x1="13.5" y1="56" x2="22" y2="29"
      gradientUnits="userSpaceOnUse">
      <stop stop-color="#FFCD1E"></stop>
      <stop offset="1" stop-color="#FFCD1E" stop-opacity="0.25"></stop>
    </linearGradient>
    <linearGradient id="paint1_linear485fb290-2444-11ec-9622-d9f774aa8a4e" x1="59.6074" y1="46.3822" x2="30"
      y2="46.3822" gradientUnits="userSpaceOnUse">
      <stop stop-color="#996DFF"></stop>
      <stop offset="1" stop-color="#FF068A" stop-opacity="0.25"></stop>
    </linearGradient>
  </defs>
</svg>
