<svg width="126" height="37" viewBox="0 0 126 37" fill="none" xmlns="http://www.w3.org/2000/svg">
  <path fill-rule="evenodd" clip-rule="evenodd"
    d="M16.9032 19.3838V12.9689L0.04015 19.5625H0L0 26.1363H0.04015L16.9032 32.73V26.3151L8.25083 22.8395L16.9032 19.3838Z"
    fill="white"></path>
  <path fill-rule="evenodd" clip-rule="evenodd"
    d="M108.771 32.3924V25.9774L117.403 22.5217L108.771 19.066V12.6511L125.614 19.2447H125.654V25.8384H125.614L108.771 32.3924ZM101.544 3.59473L91.6268 37H97.5088L107.406 3.59473H101.544Z"
    fill="white"></path>
  <path fill-rule="evenodd" clip-rule="evenodd"
    d="M41.6759 11.7573C43.3421 13.6838 44.2254 16.2458 44.125 18.8475V33.0676H38.243V20.1384C38.3033 18.7085 37.8817 17.2785 37.0185 16.1663C36.617 15.6698 36.1151 15.2925 35.553 15.0343C34.9909 14.7761 34.3686 14.6569 33.7462 14.6768C30.0725 14.6768 28.2256 17.358 28.2256 22.7203V33.0676H22.3436V9.7117H28.2256V11.8169C29.1491 10.8636 30.2532 10.1288 31.4577 9.65212C32.6622 9.17547 33.947 8.957 35.2318 9.01658C36.4363 8.957 37.6207 9.17547 38.7449 9.65212C39.829 10.1288 40.8528 10.8438 41.6759 11.7573Z"
    fill="white"></path>
  <path fill-rule="evenodd" clip-rule="evenodd" d="M48.7228 0V33.4053H54.6048V0L48.7228 0Z" fill="white"></path>
  <path fill-rule="evenodd" clip-rule="evenodd"
    d="M86.0938 32.1739H81.1955L76.3775 18.4106L71.5194 32.1739H66.6211L58.3702 8.77833H64.6537L69.2911 22.7799L74.0689 8.77833H78.6661L83.4439 22.8196L88.0813 8.77833H94.3447L86.0938 32.1739Z"
    fill="white"></path>
</svg>
