<svg width="78" height="96" viewBox="0 0 78 96" fill="none" xmlns="http://www.w3.org/2000/svg">
  <circle cx="38.5" cy="57.5" r="37.5" fill="#111113"></circle>
  <path
    d="M38.6921 21.6179C58.2274 21.6179 74.1662 37.5188 74.1662 57.092C74.1662 76.6652 58.2653 92.5661 38.6921 92.5661C19.1568 92.5661 3.21803 76.6652 3.21803 57.092C3.21803 37.5188 19.1568 21.6179 38.6921 21.6179ZM38.6921 18.3999C17.3395 18.3999 0 35.7015 0 57.092C0 78.4446 17.3016 95.7841 38.6921 95.7841C60.0825 95.7841 77.3842 78.4824 77.3842 57.092C77.3842 35.7015 60.0825 18.3999 38.6921 18.3999Z"
    fill="#3348BD"></path>
  <path
    d="M69.3679 74.1738C63.1306 85.8983 51.4621 93.1812 38.7072 93.1812C25.9524 93.1812 14.2838 85.931 8.04657 74.1738H69.3679Z"
    fill="url(#55e9de80-2495-11ec-9622-d9f774aa8a4e)"></path>
  <path
    d="M47.3996 26.237V33.8467C46.6424 34.2253 43.4244 35.7396 38.692 35.7396C33.9596 35.7396 30.7416 34.2631 29.9844 33.8467V26.237C29.9844 20.7095 36.1554 7.8374 38.692 7.8374C41.2664 7.8374 47.3996 20.7095 47.3996 26.237Z"
    fill="white"></path>
  <path
    d="M44.0681 21.0886C43.7274 20.8235 42.213 19.6499 38.6921 19.6499C35.1712 19.6499 33.6568 20.7857 33.3161 21.0886C33.2782 21.1264 33.2404 21.1643 33.2404 21.24V22.2243C33.2404 22.3758 33.4297 22.4893 33.5433 22.3758C34.149 21.9593 35.7012 21.1643 38.6543 21.1643C41.6073 21.1643 43.1595 21.9593 43.7652 22.3758C43.9167 22.4515 44.0681 22.3758 44.0681 22.2243V21.24C44.1438 21.2021 44.1438 21.1264 44.0681 21.0886Z"
    fill="#4863F7"></path>
  <path
    d="M47.3997 54.2144C47.3997 54.2144 57.8867 62.5812 58.5303 74.5447C58.5681 75.2262 57.9245 75.7184 57.2809 75.5291C54.2143 74.5826 52.0942 70.5317 47.3997 70.5317V54.2144Z"
    fill="#4863F7"></path>
  <path
    d="M30.0223 54.2144C30.0223 54.2144 19.5353 62.5812 18.8917 74.5447C18.8538 75.2262 19.4974 75.7184 20.141 75.5291C23.2076 74.5826 25.3277 70.5317 30.0223 70.5317V54.2144Z"
    fill="#4863F7"></path>
  <path
    d="M47.3996 38.7676C47.3996 51.3747 47.3996 70.5314 47.3996 70.5314H29.9844C29.9844 70.5314 29.9844 51.3747 29.9844 38.7676C30.7416 39.1462 33.9596 40.6605 38.692 40.6605C43.4244 40.6605 46.6424 39.184 47.3996 38.7676Z"
    fill="white"></path>
  <path
    d="M38.692 54.2144C37.7455 54.2144 36.5719 64.2092 36.5719 74.9612C36.5719 76.6649 37.632 78.3307 38.692 78.3307C39.7521 78.3307 40.8121 76.627 40.8121 74.9612C40.85 64.2092 39.6764 54.2144 38.692 54.2144Z"
    fill="#4863F7"></path>
  <path
    d="M38.692 70.5317H29.9844L31.8773 74.5827C31.8773 74.5827 37.064 75.1127 38.692 75.1127C40.3199 75.1127 45.5066 74.5827 45.5066 74.5827L47.3996 70.5317H38.692Z"
    fill="#4863F7"></path>
  <path
    d="M39.1464 4.95955V2.65014H40.1307V0H14.8787V69.093H16.5823V63.4141L20.4061 59.5904L23.0562 62.2405L23.132 62.3162L24.1163 60.8397L21.6176 58.341L24.1163 55.8423V58.341H25.82V2.61228H38.1999V4.9217C37.3292 5.11099 36.7234 5.86818 36.7234 6.81465C36.7234 7.45826 37.0641 8.06401 37.5563 8.40474C37.6699 8.48046 37.7835 8.55618 37.897 8.59404V9.99482H39.3736V8.59404C39.4871 8.55618 39.6386 8.48046 39.7521 8.40474C40.2443 8.06401 40.585 7.49612 40.585 6.81465C40.6229 5.90603 39.9793 5.14885 39.1464 4.95955ZM24.1163 2.61228L20.444 6.28463L16.7716 2.61228H24.1163ZM24.1542 5.03527V9.99482L21.6555 7.49612L24.1542 5.03527ZM16.6202 4.9217L19.2325 7.53398L16.6202 10.1463V4.9217ZM16.6202 12.5693L20.444 8.74548L24.1542 12.4557V12.7964L20.444 16.5066L16.6202 12.6828V12.5693ZM24.1542 15.1815V20.1411L21.6555 17.6424L24.1542 15.1815ZM16.6202 15.068L19.2325 17.6802L16.6202 20.2925V15.068ZM16.6202 25.2142L19.2325 27.8265L16.6202 30.4388V25.2142ZM16.6202 35.3983L19.2325 38.0106L16.6202 40.6229V35.3983ZM16.6202 45.5446L19.2325 48.1569L16.6202 50.7692V45.5446ZM16.6202 60.9533V55.7287L19.2325 58.341L16.6202 60.9533ZM24.1542 53.4193L20.444 57.1295L16.6202 53.3057V53.23L20.444 49.4062L24.1542 53.1164V53.4193ZM24.1542 50.6556L21.6555 48.1569L24.1542 45.6582V50.6556ZM24.1542 43.2352L20.444 46.9454L16.6202 43.1216V43.0459L20.444 39.2221L24.1542 42.9323V43.2352ZM24.1542 40.5093L21.6555 38.0106L24.1542 35.5119V40.5093ZM24.1542 33.0889L20.444 36.7991L16.6202 32.9754V32.8996L20.444 29.0759L24.1542 32.7861V33.0889ZM24.1542 30.3252L21.6555 27.8265L24.1542 25.3278V30.3252ZM24.1542 22.6019V22.9427L20.444 26.6529L18.286 24.4949L16.6202 22.8291V22.7534L20.444 18.9296L24.1542 22.6019Z"
    fill="url(#paint1_linear5ca1aff0-2495-11ec-9622-d9f774aa8a4e)"></path>
  <defs>
    <radialGradient id="55e9de80-2495-11ec-9622-d9f774aa8a4e" cx="0" cy="0" r="1" gradientUnits="userSpaceOnUse"
      gradientTransform="translate(38.7909 74.1253) scale(38.5356 21.2388)">
      <stop stop-color="#172FB4"></stop>
      <stop offset="0.00473475" stop-color="#4863F7" stop-opacity="0.9911"></stop>
      <stop offset="0.5294" stop-color="#0E153E" stop-opacity="0"></stop>
    </radialGradient>
    <linearGradient id="paint1_linear5ca1aff0-2495-11ec-9622-d9f774aa8a4e" x1="27.7592" y1="26.4719" x2="27.7592"
      y2="68.8407" gradientUnits="userSpaceOnUse">
      <stop stop-color="#4863F7"></stop>
      <stop offset="0.677" stop-color="#4863F7" stop-opacity="0"></stop>
    </linearGradient>
  </defs>
</svg>
