<svg width="20" height="20" viewBox="0 0 20 20" fill="none" xmlns="http://www.w3.org/2000/svg">
  <path fill-rule="evenodd" clip-rule="evenodd"
    d="M10 17.5V17.5C5.8575 17.5 2.5 14.1425 2.5 10V10C2.5 5.8575 5.8575 2.5 10 2.5V2.5C14.1425 2.5 17.5 5.8575 17.5 10V10C17.5 14.1425 14.1425 17.5 10 17.5Z"
    stroke="#A8A8B3" stroke-width="1.5" stroke-linecap="round" stroke-linejoin="round"></path>
  <path
    d="M9.99992 11.0415V10.8332C9.99992 10.1523 10.4208 9.78318 10.8424 9.49984C11.2541 9.22234 11.6666 8.86068 11.6666 8.19401C11.6666 7.27318 10.9208 6.52734 9.99992 6.52734C9.07909 6.52734 8.33325 7.27318 8.33325 8.19401"
    stroke="#A8A8B3" stroke-width="1.5" stroke-linecap="round" stroke-linejoin="round"></path>
  <path
    d="M9.99909 13.3333C9.88409 13.3333 9.79075 13.4267 9.79159 13.5417C9.79159 13.6567 9.88492 13.75 9.99992 13.75C10.1149 13.75 10.2083 13.6567 10.2083 13.5417C10.2083 13.4267 10.1149 13.3333 9.99909 13.3333"
    stroke="#A8A8B3" stroke-width="1.5" stroke-linecap="round" stroke-linejoin="round"></path>
</svg>
