<svg width="48" height="41" viewBox="0 0 48 41" fill="none" xmlns="http://www.w3.org/2000/svg">
  <path
    d="M21.12 30.3909C21.12 33.3452 20.1035 35.8525 18.0706 37.9128C16.0376 39.9341 13.4965 40.9448 10.4471 40.9448C7.43529 40.9448 4.93176 39.9341 2.93647 37.9128C0.978823 35.8525 0 33.3452 0 30.3909C0 28.7194 0.244706 26.9701 0.734117 25.1431C1.26118 23.3161 2.16471 21.0226 3.44471 18.2626L11.52 0.944824H21.6282L16.7718 21.5862C18.0894 22.558 19.1435 23.7825 19.9341 25.2597C20.7247 26.7369 21.12 28.4473 21.12 30.3909ZM47.4918 30.3909C47.4918 33.3452 46.4565 35.8525 44.3859 37.9128C42.3529 39.9341 39.8306 40.9448 36.8188 40.9448C33.8071 40.9448 31.2847 39.9341 29.2518 37.9128C27.2565 35.8525 26.2588 33.3452 26.2588 30.3909C26.2588 28.7194 26.5224 26.9701 27.0494 25.1431C27.5765 23.3161 28.5176 21.0226 29.8729 18.2626L37.8918 0.944824H48L43.0306 21.5862C44.3859 22.558 45.4588 23.7825 46.2494 25.2597C47.0776 26.7369 47.4918 28.4473 47.4918 30.3909Z"
    fill="#FFCD1E"></path>
</svg>
