<svg width="48" height="48" viewBox="0 0 48 48" fill="none" xmlns="http://www.w3.org/2000/svg">
  <g opacity="0.5">
    <rect width="48" height="48" rx="5" fill="url(#paint0_linear8ecdf2a0-25b6-11ec-a746-65090f7e5dbe)"></rect>
  </g>
  <path fill-rule="evenodd" clip-rule="evenodd"
    d="M37.6658 27.4446C38.5357 26.129 39 24.5823 39 23C38.9983 20.8788 38.1637 18.845 36.6793 17.345C35.195 15.8451 33.1823 15.0017 31.0831 15C29.5173 15 27.9866 15.4692 26.6847 16.3482C25.3827 17.2273 24.368 18.4767 23.7688 19.9385C23.1696 21.4004 23.0128 23.0089 23.3183 24.5607C23.6237 26.1126 24.3778 27.538 25.485 28.6568C26.5922 29.7757 28.0028 30.5376 29.5386 30.8463C31.0743 31.155 32.6661 30.9966 34.1128 30.3911C35.5594 29.7856 36.7958 28.7602 37.6658 27.4446ZM20.9397 28.4161C22.3612 26.9797 23.1598 25.0314 23.1598 23C23.1598 20.9686 22.3612 19.0204 20.9397 17.584C19.5182 16.1476 17.5902 15.3406 15.5799 15.3406H8V30.6595H15.5799C17.5902 30.6595 19.5182 29.8525 20.9397 28.4161Z"
    fill="white"></path>
  <defs>
    <linearGradient id="paint0_linear8ecdf2a0-25b6-11ec-a746-65090f7e5dbe" x1="-9.82109e-07" y1="1.13858" x2="56.2864"
      y2="15.4815" gradientUnits="userSpaceOnUse">
      <stop stop-color="#FF008E"></stop>
      <stop offset="1" stop-color="#FFCD1E"></stop>
    </linearGradient>
  </defs>
</svg>
