<svg width="32" height="32" viewBox="0 0 32 32" fill="none" xmlns="http://www.w3.org/2000/svg">
  <path
    d="M29.0666 15.741L30.5666 15.7418V15.741H29.0666ZM27.5666 14.5143V15.741H30.5666V14.5143H27.5666ZM27.5666 15.7401C27.5651 18.2919 26.7388 20.7748 25.211 22.8186L27.6137 24.6149C29.529 22.0529 30.5647 18.9405 30.5666 15.7418L27.5666 15.7401ZM25.211 22.8186C23.6831 24.8624 21.5355 26.3575 19.0884 27.0811L19.939 29.9579C23.0064 29.051 25.6985 27.1768 27.6137 24.6149L25.211 22.8186ZM19.0884 27.0811C16.6414 27.8046 14.026 27.7177 11.6324 26.8334L10.5927 29.6475C13.5932 30.756 16.8716 30.8649 19.939 29.9579L19.0884 27.0811ZM11.6324 26.8334C9.23873 25.949 7.19508 24.3147 5.80621 22.174L3.28949 23.8068C5.03047 26.4902 7.59223 28.5389 10.5927 29.6475L11.6324 26.8334ZM5.80621 22.174C4.41734 20.0333 3.75766 17.501 3.92555 14.9548L0.932055 14.7574C0.721591 17.9491 1.54851 21.1234 3.28949 23.8068L5.80621 22.174ZM3.92555 14.9548C4.09345 12.4085 5.07993 9.98477 6.73787 8.04499L4.45735 6.09582C2.37909 8.52738 1.14252 11.5656 0.932055 14.7574L3.92555 14.9548ZM6.73787 8.04499C8.3958 6.1052 10.6364 4.75332 13.1254 4.19096L12.4642 1.26471C9.3442 1.96965 6.53561 3.66426 4.45735 6.09582L6.73787 8.04499ZM13.1254 4.19096C15.6144 3.62859 18.2186 3.88588 20.5494 4.92445L21.7704 2.18417C18.8486 0.882298 15.5843 0.559781 12.4642 1.26471L13.1254 4.19096Z"
    fill="#04D361"></path>
  <path
    d="M15.7332 18.421L14.6725 19.4817C14.9539 19.7631 15.3356 19.9211 15.7335 19.921C16.1315 19.9209 16.5131 19.7627 16.7943 19.4811L15.7332 18.421ZM28.0053 4.01421L14.672 17.3609L16.7943 19.4811L30.1277 6.13447L28.0053 4.01421ZM16.7938 17.3604L12.7938 13.3603L10.6725 15.4817L14.6725 19.4817L16.7938 17.3604Z"
    fill="#04D361"></path>
</svg>
