<svg width="151" height="51" viewBox="0 0 151 51" fill="none" xmlns="http://www.w3.org/2000/svg">
  <path fill-rule="evenodd" clip-rule="evenodd"
    d="M44.8839 12.2366C44.8839 14.4629 44.2238 16.6392 42.9869 18.4903C41.7501 20.3413 39.9921 21.7841 37.9353 22.636C35.8785 23.488 33.6153 23.7109 31.4318 23.2766C29.2483 22.8423 27.2426 21.7702 25.6684 20.196C24.0942 18.6218 23.0222 16.6162 22.5878 14.4327C22.1535 12.2492 22.3764 9.98587 23.2284 7.92907C24.0803 5.87226 25.5231 4.11428 27.3741 2.87743C29.2252 1.64059 31.4015 0.980469 33.6277 0.980469C36.6123 0.982848 39.474 2.16951 41.5845 4.27994C43.6949 6.39037 44.8816 9.25205 44.8839 12.2366ZM22.3624 12.2367C22.3624 15.0957 21.2266 17.8377 19.205 19.8594C17.1833 21.881 14.4414 23.0168 11.5823 23.0168H0.802246V1.45658H11.5823C14.4414 1.45658 17.1833 2.59233 19.205 4.61399C21.2266 6.63565 22.3624 9.37761 22.3624 12.2367ZM73.1455 1.43855L70.0822 12.7487L66.9919 1.43855H61.3773L58.3139 12.7487L55.2506 1.43855H46.5726L54.2265 22.9987H61.4132L64.216 14.2579L67.0279 22.9987H74.2146L81.8684 1.43855H73.1455ZM104.552 1.43855V22.9987H96.3767V15.291H91.2741V22.9987H83.1082V1.43855H91.2741V9.14633H96.3767V1.43855H104.552ZM107.615 1.46554V23.0257H115.781V1.46554H107.615ZM133.649 16.8541V23.0257H118.844V1.46554H127.01V16.881L133.649 16.8541ZM143.853 9.65856V7.60138L150.501 7.6283V1.4657H135.696V23.0259H150.492V16.8543H143.853V14.806H148.956V9.65856H143.853Z"
    fill="url(#vericalLogo0_linear)"></path>
  <path
    d="M104.21 28.2898L101.299 27.8496C101.21 27.8496 101.12 27.8496 101.12 27.9394L99.889 29.5205C99.8176 29.6259 99.7858 29.7532 99.7992 29.8799C99.7992 29.9697 99.7094 30.1404 99.6195 30.0506L98.6493 29.79C98.4786 29.79 98.299 29.79 98.2091 29.9697L94.2385 35.0812C94.1576 35.1711 94.0678 35.1711 93.8881 35.1711L92.3879 34.4614C92.3213 34.4218 92.2453 34.401 92.1678 34.401C92.0904 34.401 92.0143 34.4218 91.9477 34.4614L91.1572 34.9914C91.0907 35.0358 91.0125 35.0595 90.9326 35.0595C90.8526 35.0595 90.7745 35.0358 90.708 34.9914L90.3576 34.8207C90.3002 34.7947 90.2379 34.7807 90.1747 34.7798C90.1116 34.7789 90.049 34.7911 89.9908 34.8156C89.9326 34.84 89.8801 34.8762 89.8365 34.922C89.793 34.9677 89.7594 35.0219 89.7378 35.0812L89.4772 36.321C89.4454 36.4504 89.4533 36.5864 89.4997 36.7114C89.5462 36.8364 89.6291 36.9445 89.7378 37.0217L90.4475 37.4619L92.298 38.6117L93.1964 39.1418C93.3216 39.2148 93.467 39.2455 93.6111 39.2293C93.7551 39.2131 93.89 39.1509 93.9959 39.0519L95.4961 37.7314C95.6274 37.6498 95.7836 37.6179 95.9363 37.6415L96.3765 37.902C96.5562 37.9919 96.7269 37.9919 96.8167 37.8212L97.6162 37.1115C97.6703 37.0513 97.7422 37.0101 97.8215 36.9939C97.9007 36.9778 97.9831 36.9875 98.0564 37.0217L99.1973 37.5517C99.2863 37.581 99.3811 37.5882 99.4735 37.5725C99.5658 37.5569 99.653 37.5189 99.7273 37.4619L100.257 36.7611L104.228 31.6406C104.408 31.3801 104.318 31.0208 103.967 31.0208L103.069 30.8501C102.898 30.8501 102.809 30.5805 102.898 30.4099L104.309 28.73C104.48 28.5503 104.39 28.2898 104.21 28.2898Z"
    fill="white"></path>
  <path
    d="M90.9775 38.6119C90.8877 38.5221 90.7979 38.6119 90.7979 38.7018L91.238 39.8516V40.1481L90.8877 41.6483C90.8812 41.6957 90.8859 41.744 90.9015 41.7893C90.9171 41.8345 90.9432 41.8755 90.9775 41.9089L92.0376 42.7083C92.0855 42.7519 92.148 42.7761 92.2127 42.7761C92.2775 42.7761 92.34 42.7519 92.3879 42.7083L93.5378 41.7382C93.5715 41.7044 93.6126 41.6787 93.6577 41.6632C93.7028 41.6476 93.7509 41.6425 93.7983 41.6483L95.038 41.4686C95.1278 41.4686 95.1278 41.3788 95.038 41.298L90.9775 38.6119Z"
    fill="white"></path>
  <path
    d="M90.6273 42.4027C90.6104 42.3835 90.5897 42.3682 90.5665 42.3578C90.5432 42.3473 90.518 42.3418 90.4925 42.3418C90.467 42.3418 90.4418 42.3473 90.4186 42.3578C90.3954 42.3682 90.3746 42.3835 90.3578 42.4027L89.4594 42.8428C89.4356 42.8428 89.4127 42.8523 89.3959 42.8692C89.379 42.886 89.3696 42.9088 89.3696 42.9326L87.4292 47.7028H87.519L87.9592 47.5232V47.613L86.5488 49.9038C86.5488 49.9936 86.5488 49.9936 86.6386 49.9936L91.5795 44.9629C91.6693 44.9629 91.6693 44.8731 91.6693 44.7922L91.7502 43.4627C91.7502 43.3729 91.7502 43.292 91.6693 43.292L90.6273 42.4027Z"
    fill="white"></path>
  <path
    d="M20.7188 43.5438V49.7154H0.811523C0.811523 49.7154 10.289 39.3036 11.5377 36.8691C12.5259 34.9377 11.4659 33.7788 10.5136 33.7788C9.56138 33.7788 8.47437 34.3268 8.47437 36.8691L0.874414 36.3481C0.874414 31.533 4.26117 27.6162 10.5136 27.6162C16.5415 27.6162 20.2067 30.7964 20.2067 35.324C20.2067 38.1538 17.7902 41.3609 15.1041 43.5438H20.7188Z"
    fill="white"></path>
  <path
    d="M43.1771 38.9174C43.1771 45.1518 39.0627 50.2274 32.9719 50.2274C26.8812 50.2274 22.7578 45.1518 22.7578 38.9174C22.7578 32.6829 26.8722 27.6162 32.9719 27.6162C39.0717 27.6162 43.1771 32.6919 43.1771 38.9174Z"
    fill="white"></path>
  <path
    d="M65.123 43.5438V49.7154H45.2158C45.2158 49.7154 54.6933 39.3036 55.933 36.8691C56.9302 34.9377 55.8701 33.7788 54.9179 33.7788C53.9656 33.7788 52.8787 34.3268 52.8787 36.8691L45.2787 36.3481C45.2787 31.533 48.6654 27.6162 54.9179 27.6162C60.9458 27.6162 64.611 30.7964 64.611 35.324C64.611 38.1538 62.1854 41.3609 59.5084 43.5438H65.123Z"
    fill="white"></path>
  <path d="M79.416 27.6162V49.7154H71.2501V35.342L67.6567 35.7911V29.5926L79.416 27.6162Z" fill="white"></path>
  <defs>
    <linearGradient id="vericalLogo0_linear" x1="0.802243" y1="1.51447" x2="49.0924" y2="83.34"
      gradientUnits="userSpaceOnUse">
      <stop stop-color="#FF008E"></stop>
      <stop offset="1" stop-color="#FFCD1E"></stop>
    </linearGradient>
  </defs>
</svg>
