<svg width="577" height="266" viewBox="0 0 577 266" fill="none" xmlns="http://www.w3.org/2000/svg">
  <path
    d="M8 2.00003C8 6.41831 4.41828 10 0 10V16C4.41828 16 8 19.5818 8 24C8 28.4183 4.41828 32 0 32V38C4.41828 38 8 41.5818 8 46C8 50.4183 4.41828 54 0 54V60C4.41828 60 8 63.5817 8 68C8 72.4183 4.41828 76 0 76V82C4.41828 82 8 85.5817 8 90C8 94.4183 4.41828 98 0 98V104C4.41828 104 8 107.582 8 112C8 116.418 4.41828 120 0 120V126C4.41828 126 8 129.582 8 134C8 138.418 4.41828 142 0 142V148C4.41828 148 8 151.582 8 156C8 160.418 4.41828 164 0 164V170C4.41828 170 8 173.582 8 178C8 182.418 4.41828 186 0 186V192C4.41828 192 8 195.582 8 200C8 204.418 4.41828 208 0 208V214C4.41828 214 8 217.582 8 222C8 226.418 4.41828 230 0 230V236C4.41828 236 8 239.582 8 244C8 248.418 4.41828 252 0 252V258C4.41828 258 8 261.582 8 266H568C568 261.582 571.582 258 576 258V252C571.582 252 568 248.418 568 244C568 239.582 571.582 236 576 236V230C571.582 230 568 226.418 568 222C568 217.582 571.582 214 576 214V208C571.582 208 568 204.418 568 200C568 195.582 571.582 192 576 192V186C571.582 186 568 182.418 568 178C568 173.582 571.582 170 576 170V164C571.582 164 568 160.418 568 156C568 151.582 571.582 148 576 148V142C571.582 142 568 138.418 568 134C568 129.582 571.582 126 576 126V120C571.582 120 568 116.418 568 112C568 107.582 571.582 104 576 104V98C571.582 98 568 94.4183 568 90C568 85.5817 571.582 82 576 82V76C571.582 76 568 72.4183 568 68C568 63.5817 571.582 60 576 60V54C571.582 54 568 50.4183 568 46C568 41.5818 571.582 38 576 38V32C571.582 32 568 28.4183 568 24C568 19.5818 571.582 16 576 16V10C571.582 10 568 6.41831 568 2.00003C568 1.30942 568.087 0.639249 568.252 0H7.74796C7.91249 0.639249 8 1.30942 8 2.00003Z"
    fill="url(#4f771520-2631-11ec-a746-65090f7e5dbepaint0_linear)"></path>
  <mask id="4f771520-2631-11ec-a746-65090f7e5dbemask0" maskUnits="userSpaceOnUse" x="0" y="0" width="576" height="266"
    style="mask-type: alpha;">
    <path
      d="M8 2.00003C8 6.41831 4.41828 10 0 10V16C4.41828 16 8 19.5818 8 24C8 28.4183 4.41828 32 0 32V38C4.41828 38 8 41.5818 8 46C8 50.4183 4.41828 54 0 54V60C4.41828 60 8 63.5817 8 68C8 72.4183 4.41828 76 0 76V82C4.41828 82 8 85.5817 8 90C8 94.4183 4.41828 98 0 98V104C4.41828 104 8 107.582 8 112C8 116.418 4.41828 120 0 120V126C4.41828 126 8 129.582 8 134C8 138.418 4.41828 142 0 142V148C4.41828 148 8 151.582 8 156C8 160.418 4.41828 164 0 164V170C4.41828 170 8 173.582 8 178C8 182.418 4.41828 186 0 186V192C4.41828 192 8 195.582 8 200C8 204.418 4.41828 208 0 208V214C4.41828 214 8 217.582 8 222C8 226.418 4.41828 230 0 230V236C4.41828 236 8 239.582 8 244C8 248.418 4.41828 252 0 252V258C4.41828 258 8 261.582 8 266H568C568 261.582 571.582 258 576 258V252C571.582 252 568 248.418 568 244C568 239.582 571.582 236 576 236V230C571.582 230 568 226.418 568 222C568 217.582 571.582 214 576 214V208C571.582 208 568 204.418 568 200C568 195.582 571.582 192 576 192V186C571.582 186 568 182.418 568 178C568 173.582 571.582 170 576 170V164C571.582 164 568 160.418 568 156C568 151.582 571.582 148 576 148V142C571.582 142 568 138.418 568 134C568 129.582 571.582 126 576 126V120C571.582 120 568 116.418 568 112C568 107.582 571.582 104 576 104V98C571.582 98 568 94.4183 568 90C568 85.5817 571.582 82 576 82V76C571.582 76 568 72.4183 568 68C568 63.5817 571.582 60 576 60V54C571.582 54 568 50.4183 568 46C568 41.5818 571.582 38 576 38V32C571.582 32 568 28.4183 568 24C568 19.5818 571.582 16 576 16V10C571.582 10 568 6.41831 568 2.00003C568 1.30942 568.087 0.639249 568.252 0H7.74796C7.91249 0.639249 8 1.30942 8 2.00003Z"
      fill="url(#4f771520-2631-11ec-a746-65090f7e5dbepaint1_linear)"></path>
  </mask>
  <g mask="url(#4f771520-2631-11ec-a746-65090f7e5dbemask0)">
    <mask id="4f771520-2631-11ec-a746-65090f7e5dbemask1" maskUnits="userSpaceOnUse" x="-7" y="-32" width="512"
      height="298" style="mask-type: alpha;">
      <rect x="-6.34131" y="-32" width="510.773" height="298"
        fill="url(#4f771520-2631-11ec-a746-65090f7e5dbepaint2_linear)"></rect>
    </mask>
    <g mask="url(#4f771520-2631-11ec-a746-65090f7e5dbemask1)">
      <g opacity="0.5">
        <path d="M-35.9171 143.334V70.9134L27.6855 34.7021L91.2881 70.9134V143.334L27.6855 179.543L-35.9171 143.334Z"
          stroke="url(#4f771520-2631-11ec-a746-65090f7e5dbepaint3_linear)" stroke-width="0.399179"></path>
        <path d="M-35.9171 70.9133V-1.50705L27.6855 -37.7183L91.2881 -1.50705V70.9133L27.6855 107.122L-35.9171 70.9133Z"
          stroke="url(#4f771520-2631-11ec-a746-65090f7e5dbepaint4_linear)" stroke-width="0.399179"></path>
        <path d="M-35.9171 215.754V143.334L27.6855 107.123L91.2881 143.334V215.754L27.6855 251.963L-35.9171 215.754Z"
          stroke="url(#4f771520-2631-11ec-a746-65090f7e5dbepaint5_linear)" stroke-width="0.399179"></path>
        <path d="M91.2882 143.334V70.9134L154.891 34.7021L218.493 70.9134V143.334L154.891 179.543L91.2882 143.334Z"
          stroke="url(#4f771520-2631-11ec-a746-65090f7e5dbepaint6_linear)" stroke-width="0.399179"></path>
        <path d="M91.2882 70.9133V-1.50705L154.891 -37.7183L218.493 -1.50705V70.9133L154.891 107.122L91.2882 70.9133Z"
          stroke="url(#4f771520-2631-11ec-a746-65090f7e5dbepaint7_linear)" stroke-width="0.399179"></path>
        <path d="M91.2882 215.754V143.334L154.891 107.123L218.493 143.334V215.754L154.891 251.963L91.2882 215.754Z"
          stroke="url(#4f771520-2631-11ec-a746-65090f7e5dbepaint8_linear)" stroke-width="0.399179"></path>
        <path d="M218.493 143.334V70.9134L282.095 34.7021L345.698 70.9134V143.334L282.095 179.543L218.493 143.334Z"
          stroke="url(#4f771520-2631-11ec-a746-65090f7e5dbepaint9_linear)" stroke-width="0.399179"></path>
        <path d="M218.493 70.9133V-1.50705L282.095 -37.7183L345.698 -1.50705V70.9133L282.095 107.122L218.493 70.9133Z"
          stroke="url(#4f771520-2631-11ec-a746-65090f7e5dbepaint10_linear)" stroke-width="0.399179"></path>
        <path d="M218.493 215.754V143.334L282.095 107.123L345.698 143.334V215.754L282.095 251.963L218.493 215.754Z"
          stroke="url(#4f771520-2631-11ec-a746-65090f7e5dbepaint11_linear)" stroke-width="0.399179"></path>
        <path d="M345.698 143.334V70.9134L409.3 34.7021L472.903 70.9134V143.334L409.3 179.543L345.698 143.334Z"
          stroke="url(#4f771520-2631-11ec-a746-65090f7e5dbepaint12_linear)" stroke-width="0.399179"></path>
        <path d="M345.698 70.9133V-1.50705L409.3 -37.7183L472.903 -1.50705V70.9133L409.3 107.122L345.698 70.9133Z"
          stroke="url(#4f771520-2631-11ec-a746-65090f7e5dbepaint13_linear)" stroke-width="0.399179"></path>
        <path d="M345.698 215.754V143.334L409.3 107.123L472.903 143.334V215.754L409.3 251.963L345.698 215.754Z"
          stroke="url(#4f771520-2631-11ec-a746-65090f7e5dbepaint14_linear)" stroke-width="0.399179"></path>
        <path d="M27.6852 107.052V34.6316L91.2878 -1.57959L154.89 34.6316V107.052L91.2878 143.261L27.6852 107.052Z"
          stroke="url(#4f771520-2631-11ec-a746-65090f7e5dbepaint15_linear)" stroke-width="0.399179"></path>
        <path d="M27.6852 34.6315V-37.7888L91.2878 -74L154.89 -37.7888V34.6315L91.2878 70.8406L27.6852 34.6315Z"
          stroke="url(#4f771520-2631-11ec-a746-65090f7e5dbepaint16_linear)" stroke-width="0.399179"></path>
        <path d="M27.6852 179.472V107.052L91.2878 70.8408L154.89 107.052V179.472L91.2878 215.681L27.6852 179.472Z"
          stroke="url(#4f771520-2631-11ec-a746-65090f7e5dbepaint17_linear)" stroke-width="0.399179"></path>
        <path d="M154.89 107.052V34.6316L218.492 -1.57959L282.095 34.6316V107.052L218.492 143.261L154.89 107.052Z"
          stroke="url(#4f771520-2631-11ec-a746-65090f7e5dbepaint18_linear)" stroke-width="0.399179"></path>
        <path d="M154.89 34.6315V-37.7888L218.492 -74L282.095 -37.7888V34.6315L218.492 70.8406L154.89 34.6315Z"
          stroke="url(#4f771520-2631-11ec-a746-65090f7e5dbepaint19_linear)" stroke-width="0.399179"></path>
        <path d="M154.89 179.472V107.052L218.492 70.8408L282.095 107.052V179.472L218.492 215.681L154.89 179.472Z"
          stroke="url(#4f771520-2631-11ec-a746-65090f7e5dbepaint20_linear)" stroke-width="0.399179"></path>
        <path d="M282.096 107.052V34.6316L345.699 -1.57959L409.301 34.6316V107.052L345.699 143.261L282.096 107.052Z"
          stroke="url(#4f771520-2631-11ec-a746-65090f7e5dbepaint21_linear)" stroke-width="0.399179"></path>
        <path d="M282.096 34.6315V-37.7888L345.699 -74L409.301 -37.7888V34.6315L345.699 70.8406L282.096 34.6315Z"
          stroke="url(#4f771520-2631-11ec-a746-65090f7e5dbepaint22_linear)" stroke-width="0.399179"></path>
        <path d="M282.096 179.472V107.052L345.699 70.8408L409.301 107.052V179.472L345.699 215.681L282.096 179.472Z"
          stroke="url(#4f771520-2631-11ec-a746-65090f7e5dbepaint23_linear)" stroke-width="0.399179"></path>
        <path d="M409.3 107.052V34.6316L472.903 -1.57959L536.505 34.6316V107.052L472.903 143.261L409.3 107.052Z"
          stroke="url(#4f771520-2631-11ec-a746-65090f7e5dbepaint24_linear)" stroke-width="0.399179"></path>
        <path d="M409.3 34.6315V-37.7888L472.903 -74L536.505 -37.7888V34.6315L472.903 70.8406L409.3 34.6315Z"
          stroke="url(#4f771520-2631-11ec-a746-65090f7e5dbepaint25_linear)" stroke-width="0.399179"></path>
        <path d="M409.3 179.472V107.052L472.903 70.8408L536.505 107.052V179.472L472.903 215.681L409.3 179.472Z"
          stroke="url(#4f771520-2631-11ec-a746-65090f7e5dbepaint26_linear)" stroke-width="0.399179"></path>
      </g>
    </g>
  </g>
  <path
    d="M568.252 0H407V266H568C568 261.582 571.582 258 576 258V252C571.582 252 568 248.418 568 244C568 239.582 571.582 236 576 236V230C571.582 230 568 226.418 568 222C568 217.582 571.582 214 576 214V208C571.582 208 568 204.418 568 200C568 195.582 571.582 192 576 192V186C571.582 186 568 182.418 568 178C568 173.582 571.582 170 576 170V164C571.582 164 568 160.418 568 156C568 151.582 571.582 148 576 148V142C571.582 142 568 138.418 568 134C568 129.582 571.582 126 576 126V120C571.582 120 568 116.418 568 112C568 107.582 571.582 104 576 104V98C571.582 98 568 94.4183 568 90C568 85.5817 571.582 82 576 82V76C571.582 76 568 72.4183 568 68C568 63.5817 571.582 60 576 60V54C571.582 54 568 50.4183 568 46C568 41.5817 571.582 38 576 38V32C571.582 32 568 28.4183 568 24C568 19.5817 571.582 16 576 16V10C571.582 10 568 6.41828 568 2C568 1.3094 568.087 0.63924 568.252 0Z"
    fill="url(#4f771520-2631-11ec-a746-65090f7e5dbepaint27_linear)"></path>
  <mask id="4f771520-2631-11ec-a746-65090f7e5dbemask2" maskUnits="userSpaceOnUse" x="408" y="0" width="169" height="266"
    style="mask-type: alpha;">
    <path
      d="M569.252 0H408V266H569C569 261.582 572.582 258 577 258V252C572.582 252 569 248.418 569 244C569 239.582 572.582 236 577 236V230C572.582 230 569 226.418 569 222C569 217.582 572.582 214 577 214V208C572.582 208 569 204.418 569 200C569 195.582 572.582 192 577 192V186C572.582 186 569 182.418 569 178C569 173.582 572.582 170 577 170V164C572.582 164 569 160.418 569 156C569 151.582 572.582 148 577 148V142C572.582 142 569 138.418 569 134C569 129.582 572.582 126 577 126V120C572.582 120 569 116.418 569 112C569 107.582 572.582 104 577 104V98C572.582 98 569 94.4183 569 90C569 85.5817 572.582 82 577 82V76C572.582 76 569 72.4183 569 68C569 63.5817 572.582 60 577 60V54C572.582 54 569 50.4183 569 46C569 41.5817 572.582 38 577 38V32C572.582 32 569 28.4183 569 24C569 19.5817 572.582 16 577 16V10C572.582 10 569 6.41828 569 2C569 1.3094 569.087 0.63924 569.252 0Z"
      fill="url(#4f771520-2631-11ec-a746-65090f7e5dbepaint28_linear)"></path>
  </mask>
  <g mask="url(#4f771520-2631-11ec-a746-65090f7e5dbemask2)">
    <path d="M233.83 194.901V-4.22255L406.277 -103.787L578.724 -4.22255V194.901L406.277 294.46L233.83 194.901Z"
      fill="url(#4f771520-2631-11ec-a746-65090f7e5dbepaint29_linear)"></path>
    <path d="M233.829 394.024V194.901L406.276 95.3364L578.723 194.901V394.024L406.276 493.583L233.829 394.024Z"
      fill="url(#4f771520-2631-11ec-a746-65090f7e5dbepaint30_linear)"></path>
    <path d="M406.277 294.436V95.3132L578.724 -4.24561L751.171 95.3132V294.436L578.724 394.001L406.277 294.436Z"
      fill="url(#4f771520-2631-11ec-a746-65090f7e5dbepaint31_linear)"></path>
    <path
      d="M441.49 224.781C449.732 224.781 455.883 230.873 455.883 241.062V268.948H408L408 243.4C408 233.203 412.915 227.044 421.179 227.044C423.004 227.098 424.799 227.525 426.454 228.298C428.108 229.071 429.587 230.174 430.799 231.539C433.009 227.613 436.718 224.781 441.49 224.781ZM427.383 250.832L427.383 248.779C427.383 246.793 426.311 245.168 423.959 245.168C421.606 245.168 420.542 246.793 420.542 248.779V250.832H427.383ZM439.925 242.898C437.572 242.898 436.501 245.235 436.501 248.209V250.832H443.341V248.209C443.341 245.235 442.27 242.898 439.902 242.898H439.925Z"
      fill="url(#4f771520-2631-11ec-a746-65090f7e5dbepaint32_linear)"></path>
    <path
      d="M408 173.826H435.362C447.971 173.826 457.022 182.884 457.022 197.606C457.022 212.329 447.971 221.387 435.362 221.387H408L408 203.271H434.223C439.925 203.271 442.202 201.57 442.202 197.606C442.202 193.643 439.955 191.942 434.223 191.942H408L408 173.826Z"
      fill="url(#4f771520-2631-11ec-a746-65090f7e5dbepaint33_linear)"></path>
    <path d="M455.883 168.163H408L408 150.047H455.883V168.163Z"
      fill="url(#4f771520-2631-11ec-a746-65090f7e5dbepaint34_linear)"></path>
    <path d="M442.202 110.412H455.883V143.25H408L408 125.134L442.202 125.134V110.412Z"
      fill="url(#4f771520-2631-11ec-a746-65090f7e5dbepaint35_linear)"></path>
    <path
      d="M431.939 58.3189C445.193 58.3189 455.914 67.377 455.914 83.3055V105.88L408.031 105.88L408.031 83.3055C408.002 66.9574 418.685 58.3189 431.939 58.3189ZM431.939 76.4351C426.245 76.4351 421.682 80.2636 421.682 84.9313V87.7634H442.204V84.9313C442.204 80.2636 437.656 76.4351 431.939 76.4351Z"
      fill="url(#4f771520-2631-11ec-a746-65090f7e5dbepaint36_linear)"></path>
    <path d="M463.533 230.445H477.221V241.789H511.423V259.912H477.221V271.233H463.533L463.533 230.445Z"
      fill="url(#4f771520-2631-11ec-a746-65090f7e5dbepaint37_linear)"></path>
    <path
      d="M463.533 178.352H511.423L511.423 196.476L494.318 196.476V207.796L511.423 207.796V225.92L463.533 225.92V207.796H480.637V196.476H463.533V178.352Z"
      fill="url(#4f771520-2631-11ec-a746-65090f7e5dbepaint38_linear)"></path>
    <path
      d="M477.221 153.441H481.776V142.142H493.179V153.463H497.742V138.741H511.423V171.587L463.533 171.587V138.741H477.221V153.441Z"
      fill="url(#4f771520-2631-11ec-a746-65090f7e5dbepaint39_linear)"></path>
    <path d="M532.754 250.832H537.302V239.504H548.705V250.832H566.941V268.948H519.058V236.11H532.739L532.754 250.832Z"
      fill="url(#4f771520-2631-11ec-a746-65090f7e5dbepaint40_linear)"></path>
    <path
      d="M519.073 185.147H546.434C559.051 185.147 568.102 194.205 568.102 208.927C568.102 223.65 559.051 232.708 546.434 232.708H519.073V214.591H545.296C550.997 214.591 553.275 212.891 553.275 208.927C553.275 204.964 551.027 203.263 545.296 203.263H519.073V185.147Z"
      fill="url(#4f771520-2631-11ec-a746-65090f7e5dbepaint41_linear)"></path>
    <path d="M519.073 140.989H532.754V152.31L566.956 152.31V170.426H532.754V181.754H519.073V140.989Z"
      fill="url(#4f771520-2631-11ec-a746-65090f7e5dbepaint42_linear)"></path>
    <path
      d="M519.073 90.0253H546.434C559.051 90.0253 568.102 99.0835 568.102 113.806C568.102 128.528 559.051 137.586 546.434 137.586H519.073L519.073 119.47H545.296C550.997 119.47 553.275 117.769 553.275 113.806C553.275 109.842 551.027 108.142 545.296 108.142H519.073V90.0253Z"
      fill="url(#4f771520-2631-11ec-a746-65090f7e5dbepaint43_linear)"></path>
    <path
      d="M566.956 36.8009V57.1872L553.275 66.2453H566.956V84.3691H519.073V56.0559C519.073 45.9339 526.91 40.2023 536.178 40.2023C542.801 40.2023 548.645 43.1992 551.492 48.5562L566.956 36.8009ZM536.747 58.3186C533.256 58.3186 531.615 60.3715 531.615 62.8514V66.2453H541.879V62.8514C541.879 60.3715 540.298 58.3186 536.747 58.3186Z"
      fill="url(#4f771520-2631-11ec-a746-65090f7e5dbepaint44_linear)"></path>
    <path
      d="M532.754 14.7223H537.302V3.40141L548.705 3.40141V14.7223H553.26V5.98008e-07L566.941 0V32.8459L519.058 32.8459V2.09303e-06L532.739 1.49502e-06L532.754 14.7223Z"
      fill="url(#4f771520-2631-11ec-a746-65090f7e5dbepaint45_linear)"></path>
  </g>
  <path
    d="M512.753 153.174C547.473 141.883 566.465 104.584 555.174 69.8651C543.883 35.1456 506.585 16.1531 471.865 27.4441C437.146 38.735 418.153 76.0339 429.444 110.753C440.735 145.473 478.034 164.465 512.753 153.174Z"
    fill="url(#4f771520-2631-11ec-a746-65090f7e5dbepaint46_linear)"></path>
  <path
    d="M539.243 68.7029L539.019 68.504L544.164 65.8854L544.615 66.7335L538.578 69.8097L538.125 68.9624L541.033 62.4082L541.264 62.622L536.125 65.23L535.669 64.3723L541.705 61.2962L542.162 62.1538L539.243 68.7029Z"
    fill="#FF38A7"></path>
  <path
    d="M546.022 71.0631L540.719 72.8638L541.867 76.2235L541.047 76.5037L539.605 72.2859L545.733 70.2091L546.022 71.0631Z"
    fill="#FF38A7"></path>
  <path
    d="M541.7 79.8405L547.748 76.3692L547.916 77.4459L542.622 80.4225L542.576 80.1186L548.538 81.3393L548.71 82.4359L543.403 85.3203L543.354 85.0171L549.319 86.3336L549.486 87.3895L542.652 85.8474L542.479 84.7301L547.879 81.8517L547.922 82.1384L541.876 80.957L541.7 79.8405Z"
    fill="#FF38A7"></path>
  <path
    d="M548.747 98.9573L548.646 99.9301L542.214 99.1701L542.315 98.1973L548.747 98.9573ZM549.298 93.7102L549.194 94.6926L542.772 93.9292L542.876 92.9468L549.298 93.7102ZM546.421 94.2647L545.952 98.7287L545.092 98.6271L545.561 94.1631L546.421 94.2647Z"
    fill="#FF38A7"></path>
  <path
    d="M543.974 102.732L541.931 102.198L540.682 106.546L539.765 106.307L541.309 100.953L548.146 102.739L546.607 108.089L545.69 107.851L546.936 103.514L544.873 102.974L543.852 106.526L542.955 106.291L543.974 102.732Z"
    fill="#FF38A7"></path>
  <path
    d="M539.761 107.59L544.57 112.702L544.171 113.652L537.31 113.428L537.714 112.467L543.878 112.742L543.73 113.084L539.36 108.535L539.761 107.59ZM540.655 109.549L541.434 109.907L540.092 113.111L539.309 112.751L540.655 109.549Z"
    fill="#FF38A7"></path>
  <path
    d="M540.572 118.701L540.031 119.554L534.95 116.65L535.49 115.794L540.572 118.701ZM542.568 117.024L539.403 122.018L538.644 121.57L541.806 116.577L542.568 117.024Z"
    fill="#FF38A7"></path>
  <path
    d="M533.465 128.098L534.108 128.728L532.517 130.391L527.655 125.651L528.329 124.938L532.535 129.053L533.465 128.098Z"
    fill="white"></path>
  <path
    d="M524.832 128.387C525.169 128.081 525.572 127.859 526.01 127.739C526.368 127.641 526.747 127.648 527.103 127.761C527.44 127.872 527.738 128.079 527.963 128.357C528.217 128.637 528.37 128.995 528.397 129.373C528.407 129.74 528.312 130.101 528.124 130.412C527.907 130.781 527.628 131.109 527.301 131.381C526.982 131.665 526.616 131.889 526.22 132.044C525.887 132.177 525.522 132.207 525.171 132.13C524.809 132.037 524.488 131.823 524.259 131.523C524.027 131.25 523.878 130.914 523.832 130.558C523.785 130.182 523.842 129.802 523.997 129.46C524.188 129.04 524.475 128.672 524.832 128.387ZM525.424 129.099C525.222 129.262 525.058 129.467 524.942 129.701C524.848 129.893 524.812 130.11 524.839 130.324C524.864 130.525 524.947 130.715 525.078 130.87C525.213 131.042 525.394 131.17 525.6 131.236C525.806 131.303 526.026 131.305 526.231 131.243C526.479 131.169 526.707 131.041 526.899 130.867C527.1 130.703 527.263 130.497 527.377 130.262C527.469 130.067 527.504 129.848 527.477 129.631C527.446 129.415 527.353 129.212 527.211 129.048C527.081 128.887 526.908 128.768 526.713 128.708C526.513 128.649 526.301 128.648 526.102 128.707C525.851 128.787 525.621 128.923 525.428 129.104L525.424 129.099ZM527.148 131.182C527.449 130.915 527.791 130.698 528.16 130.541C528.458 130.411 528.788 130.372 529.109 130.428C529.433 130.506 529.721 130.695 529.924 130.964C530.143 131.221 530.284 131.536 530.329 131.871C530.37 132.22 530.314 132.573 530.169 132.889C529.987 133.277 529.721 133.617 529.391 133.884C529.078 134.167 528.704 134.373 528.299 134.486C527.968 134.576 527.618 134.572 527.287 134.472C526.97 134.369 526.688 134.175 526.476 133.912C526.249 133.663 526.114 133.342 526.093 133.005C526.089 132.676 526.182 132.353 526.36 132.08C526.575 131.74 526.842 131.438 527.152 131.186L527.148 131.182ZM527.479 131.582C527.303 131.726 527.163 131.909 527.068 132.118C526.985 132.295 526.954 132.494 526.976 132.69C527.002 132.879 527.081 133.057 527.204 133.202C527.322 133.352 527.482 133.462 527.663 133.517C527.847 133.568 528.041 133.566 528.222 133.51C528.437 133.442 528.636 133.33 528.805 133.18C528.979 133.038 529.12 132.859 529.22 132.655C529.305 132.485 529.34 132.293 529.321 132.102C529.298 131.912 529.218 131.734 529.093 131.59C528.974 131.441 528.814 131.332 528.634 131.275C528.449 131.217 528.252 131.213 528.066 131.263C527.849 131.322 527.65 131.43 527.481 131.578L527.479 131.582Z"
    fill="white"></path>
  <path d="M523.55 133.984L520.884 135.537L520.475 135.007L523.132 133.443L523.55 133.984Z" fill="white"></path>
  <path
    d="M516.221 136.582L516.831 134.87L517.068 135.096L513.714 136.822L513.308 136.019L517.229 134L517.637 134.805C517.426 135.479 517.239 136.051 517.089 136.536C516.938 137.02 516.809 137.434 516.706 137.773C516.603 138.112 516.533 138.396 516.488 138.622C516.447 138.81 516.42 139.001 516.407 139.193C516.396 139.324 516.406 139.457 516.437 139.585C516.464 139.695 516.504 139.801 516.557 139.9C516.636 140.064 516.759 140.203 516.912 140.299C517.066 140.395 517.244 140.443 517.424 140.435C517.638 140.425 517.847 140.365 518.034 140.261C518.314 140.126 518.541 139.898 518.68 139.616C518.743 139.49 518.776 139.35 518.777 139.208C518.777 139.066 518.744 138.926 518.68 138.798L519.475 138.392C519.663 138.677 519.748 139.018 519.715 139.357C519.677 139.708 519.546 140.039 519.338 140.318C519.105 140.635 518.801 140.889 518.451 141.061C518.183 141.199 517.894 141.293 517.596 141.338C517.338 141.381 517.073 141.371 516.817 141.31C516.578 141.252 516.354 141.14 516.162 140.982C515.956 140.818 515.788 140.61 515.669 140.374C515.544 140.12 515.478 139.842 515.475 139.559C515.469 139.242 515.503 138.926 515.578 138.618C515.655 138.279 515.751 137.945 515.865 137.617C515.975 137.246 516.099 136.909 516.221 136.582Z"
    fill="white"></path>
  <path
    d="M508.412 139.726L508.696 140.506L507.441 140.949L507.16 140.168L508.412 139.726ZM509.976 144.536L507.772 138.467L508.822 138.096L510.679 143.22L510.37 143.237L511.895 139.015L512.194 139.267L509.409 140.251L509.125 139.471L512.633 138.229L512.917 139.008L511.023 144.164L509.976 144.536Z"
    fill="white"></path>
  <path
    d="M499.218 139.943C499.853 139.851 500.503 139.92 501.113 140.144C501.67 140.354 502.162 140.719 502.533 141.198C502.911 141.735 503.156 142.357 503.246 143.008C503.335 143.66 503.268 144.321 503.048 144.932C502.821 145.486 502.447 145.961 501.967 146.302C501.433 146.654 500.827 146.878 500.192 146.957C499.558 147.037 498.911 146.969 498.299 146.76C497.741 146.552 497.25 146.185 496.881 145.703C496.506 145.165 496.263 144.543 496.173 143.893C496.082 143.242 496.148 142.582 496.364 141.97C496.589 141.415 496.964 140.941 497.445 140.603C497.973 140.238 498.581 140.011 499.218 139.943ZM499.345 140.864C498.896 140.91 498.466 141.065 498.091 141.318C497.743 141.558 497.471 141.898 497.309 142.298C497.136 142.762 497.088 143.268 497.173 143.762C497.225 144.258 497.407 144.732 497.699 145.134C497.965 145.479 498.32 145.741 498.721 145.888C499.151 146.044 499.609 146.091 500.056 146.025C500.506 145.977 500.936 145.819 501.311 145.565C501.663 145.325 501.938 144.984 502.101 144.582C502.259 144.114 502.306 143.612 502.237 143.117C502.169 142.622 501.987 142.148 501.708 141.735C501.441 141.387 501.083 141.124 500.677 140.981C500.245 140.833 499.788 140.791 499.342 140.856L499.345 140.864Z"
    fill="white"></path>
  <path
    d="M488.172 143.055L487.964 147.081L486.91 147.055L487.125 142.974C487.137 142.614 487.211 142.256 487.343 141.916C487.459 141.634 487.627 141.374 487.839 141.149C488.043 140.933 488.287 140.757 488.558 140.63C488.842 140.494 489.143 140.396 489.453 140.339C489.792 140.281 490.135 140.257 490.478 140.266C490.831 140.274 491.181 140.316 491.524 140.393C491.83 140.46 492.125 140.568 492.399 140.714C492.657 140.853 492.881 141.042 493.06 141.268C493.244 141.509 493.381 141.78 493.466 142.069C493.56 142.415 493.595 142.776 493.569 143.135L493.354 147.216L492.3 147.189L492.512 143.161C492.561 142.744 492.482 142.325 492.285 141.957C492.11 141.68 491.842 141.471 491.524 141.365C491.173 141.247 490.804 141.184 490.43 141.178C490.065 141.166 489.699 141.21 489.345 141.31C489.021 141.407 488.737 141.606 488.54 141.875C488.299 142.227 488.171 142.638 488.172 143.055Z"
    fill="white"></path>
  <path
    d="M484.897 146.559L478.952 145.637L479.148 144.791L485.093 145.713L484.897 146.559ZM482.606 145.431L481.592 145.276L482.879 139.719L483.893 139.874L482.606 145.431Z"
    fill="white"></path>
  <path
    d="M473.711 138.883L475.478 138.198L475.468 138.511L471.827 137.205L472.182 136.382L476.443 137.919L476.088 138.742L474.352 139.476C473.869 139.683 473.457 139.863 473.122 140.01C472.787 140.157 472.516 140.292 472.316 140.404C472.135 140.498 471.962 140.605 471.798 140.724C471.687 140.802 471.589 140.896 471.508 141.003C471.441 141.094 471.386 141.193 471.342 141.296C471.269 141.462 471.245 141.642 471.272 141.816C471.307 141.99 471.396 142.148 471.528 142.27C471.683 142.42 471.872 142.533 472.082 142.602C472.38 142.717 472.713 142.732 473.029 142.645C473.172 142.61 473.304 142.543 473.416 142.45C473.528 142.357 473.616 142.241 473.672 142.111L474.53 142.417C474.437 142.74 474.226 143.025 473.936 143.221C473.636 143.424 473.287 143.547 472.925 143.579C472.519 143.615 472.113 143.56 471.74 143.418C471.448 143.317 471.176 143.173 470.934 142.99C470.728 142.828 470.557 142.628 470.432 142.402C470.316 142.19 470.252 141.954 470.245 141.712C470.238 141.456 470.289 141.2 470.396 140.961C470.512 140.705 470.684 140.474 470.902 140.285C471.147 140.069 471.419 139.882 471.711 139.73C472.023 139.57 472.351 139.419 472.697 139.277C473.043 139.136 473.372 139.008 473.711 138.883Z"
    fill="white"></path>
  <path
    d="M464.903 139.855C464.416 139.597 464.02 139.192 463.77 138.696C463.544 138.214 463.456 137.678 463.516 137.15C463.59 136.548 463.782 135.969 464.08 135.445C464.36 134.915 464.743 134.448 465.206 134.072C465.616 133.74 466.113 133.532 466.637 133.475C467.182 133.447 467.724 133.576 468.202 133.846C468.68 134.116 469.073 134.517 469.337 135.001C469.564 135.486 469.651 136.024 469.59 136.554C469.433 137.761 468.829 138.859 467.9 139.629C467.489 139.959 466.994 140.165 466.471 140.223C465.924 140.27 465.376 140.141 464.903 139.855ZM467.761 134.651C467.539 134.524 467.291 134.451 467.037 134.439C466.777 134.432 466.519 134.486 466.284 134.596C466.015 134.723 465.77 134.896 465.561 135.108C465.317 135.357 465.109 135.64 464.944 135.949C464.772 136.254 464.643 136.582 464.561 136.924C464.491 137.211 464.473 137.509 464.509 137.804C464.54 138.063 464.631 138.311 464.775 138.529C464.917 138.744 465.108 138.921 465.331 139.045C465.555 139.177 465.807 139.251 466.066 139.261C466.324 139.27 466.58 139.219 466.815 139.11C467.085 138.986 467.33 138.813 467.538 138.598C467.781 138.347 467.988 138.063 468.154 137.755C468.325 137.451 468.453 137.124 468.535 136.783C468.602 136.496 468.618 136.199 468.581 135.905C468.551 135.645 468.46 135.394 468.317 135.174C468.176 134.957 467.986 134.777 467.761 134.651Z"
    fill="white"></path>
  <path
    d="M461.565 132.218L463.356 132.046L463.274 132.359L460.207 129.933L460.726 129.203L464.304 132.027L463.785 132.757L462.009 132.985L460.746 133.163C460.403 133.215 460.118 133.267 459.911 133.319C459.729 133.365 459.55 133.423 459.376 133.493C459.256 133.541 459.145 133.608 459.045 133.691C458.964 133.764 458.891 133.847 458.83 133.938C458.721 134.083 458.656 134.259 458.643 134.444C458.63 134.63 458.67 134.817 458.759 134.983C458.868 135.179 459.016 135.35 459.193 135.483C459.441 135.694 459.747 135.814 460.063 135.822C460.203 135.829 460.341 135.8 460.466 135.74C460.591 135.679 460.7 135.588 460.783 135.473L461.506 136.044C461.34 136.343 461.079 136.569 460.766 136.686C460.441 136.801 460.09 136.822 459.749 136.746C459.367 136.659 459.006 136.483 458.695 136.23C458.449 136.039 458.232 135.81 458.052 135.552C457.896 135.326 457.783 135.072 457.717 134.805C457.66 134.554 457.655 134.295 457.704 134.046C457.758 133.782 457.866 133.535 458.02 133.321C458.187 133.096 458.4 132.914 458.645 132.788C458.923 132.643 459.219 132.536 459.525 132.47C459.851 132.399 460.191 132.344 460.544 132.304C460.897 132.264 461.221 132.242 461.565 132.218Z"
    fill="white"></path>
  <path
    d="M455.579 132.474L454.957 133.124L453.261 131.6L457.962 126.695L458.693 127.347L454.602 131.605L455.579 132.474Z"
    fill="white"></path>
  <path d="M451.521 124.7L449.535 122.24L450.224 121.715L452.208 124.172L451.521 124.7Z" fill="white"></path>
  <path
    d="M446.009 111.707L446.233 111.906L441.06 114.51L440.611 113.656L446.694 110.595L447.144 111.448L444.191 118.002L443.962 117.787L449.116 115.192L449.569 116.056L443.491 119.133L443.038 118.269L446.009 111.707Z"
    fill="#FF38A7"></path>
  <path
    d="M439.364 109.822L444.679 108.04L443.386 104.174L444.211 103.906L445.834 108.762L439.707 110.823L439.364 109.822Z"
    fill="#FF38A7"></path>
  <path
    d="M443.434 100.652L436.87 104.249L436.716 103.165L442.46 100.073L442.503 100.379L436.176 99.2555L436.022 98.151L441.777 95.1491L441.819 95.4548L435.475 94.2288L435.328 93.1644L442.593 94.6033L442.751 95.7306L436.895 98.7203L436.855 98.4319L443.281 99.5409L443.434 100.652Z"
    fill="#FF38A7"></path>
  <path
    d="M435.312 86.8859L435.449 85.8944L442.293 86.5452L442.157 87.5367L435.312 86.8859ZM436.048 81.5987L436.183 80.6197L443.027 81.2704L442.893 82.2494L436.048 81.5987ZM438.398 86.2778L439.025 81.7784L439.941 81.867L439.317 86.3654L438.398 86.2778Z"
    fill="#FF38A7"></path>
  <path
    d="M440.979 77.7589L442.897 78.3408L443.998 74.0607L444.857 74.3234L443.503 79.6016L437.082 77.6587L438.436 72.3899L439.297 72.6489L438.201 76.918L440.138 77.5059L441.037 74.0113L441.878 74.2643L440.979 77.7589Z"
    fill="#FF38A7"></path>
  <path
    d="M445.448 72.836L440.663 67.7119L441.067 66.7642L447.933 67.0155L447.524 67.9736L441.356 67.6714L441.504 67.3296L445.855 71.8901L445.448 72.836ZM444.565 70.8739L443.787 70.5132L445.15 67.3215L445.931 67.6813L444.565 70.8739Z"
    fill="#FF38A7"></path>
  <path
    d="M442.659 63.3713L445.453 58.5225L446.163 58.9883L443.361 63.8395L442.659 63.3713ZM444.458 61.7674L444.938 60.9411L449.67 63.9745L449.191 64.8035L444.458 61.7674Z"
    fill="#FF38A7"></path>
  <path
    d="M451.147 52.5119L450.508 51.8826L452.119 50.2219L456.964 54.9721L456.266 55.6881L452.075 51.5655L451.147 52.5119Z"
    fill="white"></path>
  <path
    d="M458.084 49.2309C457.783 49.4992 457.44 49.7158 457.07 49.8726C456.771 50.0021 456.44 50.0393 456.118 49.9797C455.794 49.9018 455.506 49.7118 455.304 49.4425C455.086 49.1844 454.945 48.8678 454.901 48.5318C454.864 48.1815 454.922 47.8288 455.071 47.5126C455.263 47.1326 455.528 46.7964 455.851 46.5237C456.174 46.251 456.548 46.0474 456.951 45.9248C457.283 45.8362 457.633 45.8432 457.963 45.945C458.277 46.0507 458.554 46.2483 458.759 46.5127C458.984 46.7624 459.118 47.0824 459.139 47.4185C459.142 47.7497 459.047 48.0728 458.866 48.3464C458.653 48.6811 458.389 48.9795 458.084 49.2309ZM460.391 52.0369C460.051 52.3416 459.646 52.5629 459.207 52.6839C458.848 52.7788 458.468 52.7682 458.112 52.6532C457.775 52.5386 457.478 52.3278 457.254 52.0462C457.003 51.7646 456.852 51.4058 456.825 51.0284C456.815 50.6609 456.91 50.2995 457.099 49.9882C457.55 49.2529 458.223 48.6858 459.018 48.369C459.352 48.2394 459.718 48.2115 460.07 48.2886C460.432 48.383 460.753 48.5985 460.982 48.9001C461.211 49.1751 461.358 49.5112 461.403 49.8673C461.447 50.2435 461.387 50.6235 461.231 50.965C461.038 51.3853 460.75 51.7524 460.391 52.0369ZM457.758 48.838C457.934 48.6942 458.077 48.5115 458.174 48.3034C458.257 48.1256 458.288 47.9272 458.266 47.7307C458.242 47.5415 458.163 47.3631 458.041 47.2174C457.923 47.0662 457.763 46.9548 457.583 46.8985C457.399 46.8458 457.206 46.848 457.025 46.9051C456.808 46.9708 456.608 47.0826 456.438 47.2333C456.263 47.3741 456.119 47.5515 456.017 47.7538C455.933 47.9246 455.898 48.1164 455.916 48.3076C455.938 48.4974 456.017 48.6765 456.141 48.8209C456.264 48.9719 456.429 49.0816 456.613 49.1353C456.798 49.1923 456.994 49.1976 457.181 49.1504C457.394 49.0883 457.59 48.9787 457.755 48.8295L457.758 48.838ZM459.792 51.3332C459.995 51.1722 460.161 50.9682 460.279 50.735C460.372 50.5435 460.408 50.3281 460.383 50.1147C460.359 49.9134 460.277 49.7232 460.147 49.5676C460.012 49.3971 459.831 49.2695 459.627 49.2002C459.421 49.1338 459.201 49.1305 458.994 49.1907C458.746 49.262 458.517 49.3887 458.323 49.5618C458.12 49.7248 457.955 49.9308 457.838 50.1657C457.745 50.3612 457.71 50.5806 457.738 50.7972C457.768 51.0136 457.859 51.217 458.001 51.3822C458.131 51.5425 458.303 51.6611 458.497 51.7231C458.698 51.7828 458.91 51.785 459.111 51.7295C459.368 51.6478 459.604 51.5083 459.8 51.3212L459.792 51.3332Z"
    fill="white"></path>
  <path d="M461.787 46.7509L464.353 44.8801L464.865 45.7358L462.295 47.5937L461.787 46.7509Z" fill="white"></path>
  <path
    d="M469.015 43.8243L468.385 45.5442L468.148 45.3183L471.531 43.6122L471.933 44.4205L467.985 46.4257L467.579 45.6183C467.796 44.9418 467.986 44.3712 468.141 43.8876C468.296 43.4039 468.425 42.9891 468.529 42.6494C468.633 42.3097 468.708 42.0278 468.753 41.801C468.795 41.6136 468.824 41.4231 468.838 41.231C468.849 41.0992 468.84 40.9662 468.811 40.8368C468.783 40.7264 468.744 40.6195 468.692 40.5179C468.614 40.3537 468.491 40.2149 468.339 40.1177C468.184 40.0219 468.005 39.9747 467.825 39.9819C467.61 39.993 467.401 40.0517 467.212 40.154C466.929 40.2891 466.7 40.5161 466.559 40.7995C466.495 40.925 466.462 41.0643 466.461 41.2061C466.46 41.348 466.492 41.4885 466.554 41.6161L465.755 42.0214C465.568 41.7349 465.485 41.3922 465.52 41.0525C465.561 40.7022 465.693 40.3702 465.904 40.0916C466.141 39.7769 466.447 39.5236 466.799 39.352C467.068 39.2147 467.357 39.1209 467.655 39.0739C467.916 39.0325 468.183 39.0434 468.441 39.1059C468.68 39.1667 468.903 39.2792 469.096 39.4354C469.304 39.6107 469.472 39.83 469.588 40.0777C469.704 40.3253 469.765 40.5952 469.767 40.8683C469.771 41.1865 469.735 41.5036 469.66 41.8118C469.58 42.1409 469.484 42.4753 469.366 42.8166C469.248 43.158 469.141 43.4985 469.015 43.8243Z"
    fill="white"></path>
  <path
    d="M474.813 36.0267L477.161 42.734L476.226 43.0636L474.242 37.4021L474.54 37.401L473.377 41.8666L473.09 41.5729L475.575 40.6943L475.879 41.555L472.747 42.6663L472.446 41.8047L473.881 36.3745L474.813 36.0267ZM476.499 41.331L476.195 40.4704L477.314 40.0744L477.615 40.9359L476.499 41.331Z"
    fill="white"></path>
  <path
    d="M486.199 41.0907C485.564 41.1815 484.914 41.1101 484.305 40.8829C483.749 40.6692 483.259 40.3005 482.891 39.8185C482.515 39.2806 482.274 38.6581 482.187 38.0067C482.1 37.3553 482.171 36.6954 482.394 36.0861C482.623 35.5324 483 35.0599 483.483 34.7231C484.018 34.3718 484.625 34.1499 485.26 34.0737C485.895 33.9974 486.542 34.0687 487.153 34.2824C487.708 34.4948 488.197 34.8631 488.563 35.3449C488.936 35.8842 489.177 36.5067 489.264 37.1577C489.351 37.8088 489.283 38.4685 489.064 39.0791C488.836 39.6336 488.459 40.1063 487.975 40.4421C487.446 40.804 486.836 41.0266 486.199 41.0907ZM486.075 40.1713C486.525 40.1256 486.956 39.9718 487.333 39.7221C487.683 39.4836 487.956 39.144 488.119 38.7445C488.28 38.2778 488.329 37.7759 488.263 37.2807C488.196 36.7854 488.016 36.3111 487.738 35.8973C487.474 35.5504 487.12 35.2863 486.72 35.1361C486.29 34.9896 485.837 34.9413 485.392 34.9944C484.946 35.0475 484.52 35.2008 484.142 35.4435C483.79 35.6816 483.514 36.021 483.348 36.4209C483.186 36.8875 483.137 37.3894 483.203 37.8848C483.269 38.3803 483.448 38.8548 483.726 39.269C483.992 39.6198 484.35 39.8844 484.756 40.0295C485.182 40.1794 485.633 40.2279 486.075 40.1713Z"
    fill="white"></path>
  <path
    d="M496.632 37.523L496.742 33.5332L497.715 33.5888L497.587 37.6298C497.584 37.9863 497.524 38.3381 497.409 38.6709C497.308 38.9484 497.158 39.2025 496.966 39.42C496.785 39.6287 496.565 39.7961 496.318 39.9121C496.058 40.0358 495.781 40.1197 495.496 40.1613C495.183 40.211 494.866 40.226 494.549 40.2059C494.225 40.1875 493.902 40.1353 493.587 40.05C493.302 39.975 493.028 39.8606 492.772 39.7099C492.532 39.5653 492.321 39.3725 492.152 39.1432C491.977 38.8991 491.846 38.6249 491.765 38.3344C491.669 37.9889 491.629 37.631 491.645 37.2751L491.759 33.2419L492.732 33.2974L492.634 37.2893C492.598 37.7014 492.679 38.1188 492.868 38.4897C493.034 38.7702 493.287 38.9852 493.583 39.0983C494.231 39.3437 494.93 39.386 495.59 39.2199C495.887 39.1364 496.146 38.9522 496.326 38.6962C496.54 38.349 496.646 37.9403 496.632 37.523Z"
    fill="white"></path>
  <path
    d="M502.694 35.1414L503.716 35.3408L502.552 41.3166L501.526 41.1153L502.694 35.1414ZM500.366 33.8494L506.356 35.0109L506.18 35.9204L500.19 34.7589L500.366 33.8494Z"
    fill="white"></path>
  <path
    d="M511.692 42.131L509.928 42.8073L509.946 42.5082L513.574 43.843L513.22 44.6625L508.988 43.1043L509.343 42.2848L511.074 41.5573C511.56 41.3524 511.968 41.1756 512.302 41.0288C512.577 40.9121 512.845 40.7826 513.107 40.6408C513.288 40.5486 513.462 40.4423 513.625 40.3229C513.735 40.2452 513.832 40.1521 513.914 40.047C513.981 39.955 514.036 39.8562 514.079 39.7527C514.154 39.5878 514.179 39.4077 514.152 39.233C514.122 39.0583 514.038 38.8977 513.912 38.7711C513.756 38.6223 513.568 38.5084 513.359 38.4373C513.062 38.3191 512.728 38.3016 512.412 38.3874C512.27 38.4223 512.138 38.4887 512.027 38.5811C511.915 38.6734 511.828 38.7891 511.771 38.9185L510.916 38.6096C511.011 38.2856 511.222 38.0006 511.512 37.8056C511.812 37.6045 512.161 37.483 512.521 37.4539C512.927 37.4201 513.333 37.4772 513.705 37.6205C513.996 37.7246 514.266 37.8725 514.506 38.0586C514.715 38.2196 514.886 38.4206 515.008 38.6493C515.124 38.8624 515.189 39.0991 515.196 39.3423C515.202 39.5998 515.149 39.8571 515.041 40.0969C514.926 40.352 514.753 40.5813 514.537 40.7688C514.291 40.9855 514.02 41.1726 513.727 41.3254C513.418 41.4817 513.089 41.6329 512.743 41.7718C512.397 41.9108 512.031 42.009 511.692 42.131Z"
    fill="white"></path>
  <path
    d="M520.543 41.182C521.029 41.443 521.423 41.851 521.67 42.3485C521.894 42.8325 521.979 43.3695 521.916 43.8976C521.746 45.1035 521.14 46.1986 520.215 46.9711C519.804 47.3018 519.307 47.5062 518.783 47.5605C518.237 47.5861 517.695 47.4542 517.218 47.1801C516.741 46.906 516.349 46.501 516.089 46.0123C515.864 45.5272 515.78 44.9888 515.845 44.4596C515.916 43.8634 516.107 43.2892 516.404 42.7719C516.689 42.2381 517.078 41.7694 517.548 41.3943C517.96 41.0672 518.456 40.8644 518.979 40.8085C519.525 40.7636 520.072 40.8942 520.543 41.182ZM517.665 46.376C517.886 46.5056 518.134 46.58 518.388 46.5927C518.647 46.6022 518.904 46.5505 519.139 46.4418C519.408 46.3169 519.653 46.1445 519.863 45.9325C520.345 45.4272 520.69 44.8038 520.865 44.1218C520.937 43.8343 520.955 43.5353 520.919 43.24C520.889 42.9805 520.799 42.7313 520.656 42.5125C520.516 42.2954 520.325 42.1163 520.101 41.9913C519.877 41.8602 519.626 41.785 519.369 41.7717C519.112 41.7623 518.856 41.8124 518.622 41.9182C518.352 42.0413 518.107 42.214 517.899 42.4275C517.656 42.6777 517.449 42.9609 517.283 43.269C517.111 43.5718 516.982 43.8977 516.899 44.2373C516.829 44.5251 516.811 44.8238 516.845 45.1191C516.874 45.3797 516.962 45.6303 517.104 45.851C517.247 46.0689 517.44 46.249 517.665 46.376Z"
    fill="white"></path>
  <path
    d="M523.881 48.8164L522.089 48.9779L522.176 48.6627L525.227 51.1031L524.705 51.8313L521.124 48.986L521.645 48.2578L523.422 48.0389C523.917 47.9745 524.339 47.9186 524.683 47.8691C525.027 47.8196 525.311 47.7678 525.52 47.7188C525.702 47.6747 525.88 47.6167 526.053 47.5452C526.174 47.4991 526.286 47.4342 526.386 47.3526C526.466 47.2779 526.538 47.1949 526.601 47.105C526.709 46.9601 526.774 46.784 526.787 46.5981C526.801 46.4119 526.762 46.2238 526.674 46.0578C526.565 45.861 526.417 45.6896 526.242 45.5554C525.995 45.3433 525.689 45.2227 525.375 45.2131C525.235 45.2062 525.097 45.234 524.972 45.2942C524.847 45.3544 524.738 45.4454 524.655 45.5595L523.933 44.9829C524.098 44.6838 524.36 44.4583 524.674 44.3458C524.999 44.2301 525.352 44.2103 525.694 44.2886C526.077 44.3775 526.438 44.5569 526.75 44.8128C526.994 45.005 527.209 45.2351 527.388 45.4947C527.545 45.7215 527.659 45.9775 527.721 46.2476C527.777 46.4983 527.78 46.7569 527.732 47.0057C527.678 47.2713 527.57 47.5197 527.413 47.7333C527.248 47.9604 527.034 48.1431 526.787 48.2677C526.509 48.4106 526.214 48.5151 525.908 48.5785C525.582 48.647 525.243 48.7013 524.889 48.7383C524.535 48.7754 524.227 48.7912 523.881 48.8164Z"
    fill="white"></path>
  <path
    d="M529.865 50.5566L530.488 49.9068L532.177 51.4443L527.468 56.3409L526.74 55.6834L530.825 51.4366L529.865 50.5566Z"
    fill="white"></path>
  <path d="M533.306 56.5315L535.283 58.995L534.588 59.5221L532.608 57.0569L533.306 56.5315Z" fill="white"></path>
  <path fill-rule="evenodd" clip-rule="evenodd"
    d="M461.007 89.4993L459.727 85.5653L450.701 92.9724L450.677 92.9804L451.988 97.0118L452.012 97.0038L463.669 97.684L462.389 93.75L456.39 93.3443L461.007 89.4993Z"
    fill="#8257E5"></path>
  <path fill-rule="evenodd" clip-rule="evenodd"
    d="M519.94 79.1535L518.661 75.2195L523.265 71.3785L517.282 70.981L516.003 67.047L527.647 67.7312L527.671 67.7232L528.987 71.7668L528.962 71.7748L519.94 79.1535ZM509.764 62.9346L510.345 85.3986L513.953 84.2254L513.359 61.7654L509.764 62.9346Z"
    fill="#8257E5"></path>
  <path fill-rule="evenodd" clip-rule="evenodd"
    d="M474.678 79.8811C476.084 80.7301 477.137 82.1251 477.594 83.7407L480.43 92.4612L476.823 93.6344L474.244 85.7055C473.996 84.8166 473.452 84.0237 472.701 83.5139C472.356 83.2894 471.973 83.1581 471.577 83.1119C471.18 83.0657 470.775 83.1167 470.397 83.253C468.144 83.9858 467.546 85.9984 468.616 89.2869L470.68 95.6325L467.073 96.8056L462.414 82.4825L466.021 81.3093L466.441 82.6003C466.817 81.8315 467.348 81.1606 467.992 80.6281C468.635 80.0955 469.38 79.7053 470.179 79.4856C470.906 79.2088 471.676 79.1065 472.461 79.1746C473.22 79.2507 473.991 79.485 474.678 79.8811Z"
    fill="white"></path>
  <path fill-rule="evenodd" clip-rule="evenodd"
    d="M476.654 71.2651L483.317 91.7512L486.924 90.578L480.261 70.0919L476.654 71.2651Z" fill="white"></path>
  <path fill-rule="evenodd" clip-rule="evenodd"
    d="M505.99 83.5425L502.986 84.5195L497.286 77.0401L497.052 86.4495L494.048 87.4265L484.322 74.7246L488.175 73.4713L493.812 81.133L493.949 71.5934L496.768 70.6765L502.499 78.3345L502.542 68.7986L506.383 67.5493L505.99 83.5425Z"
    fill="white"></path>
  <path
    d="M483.052 109.506L485.798 117.95L482.128 119.144L479.634 111.477C479.002 109.533 477.464 108.586 475.767 109.137C473.684 109.815 472.773 111.649 473.876 115.042L475.875 121.188L472.204 122.382L465.627 102.16L469.298 100.966L471.769 108.562C472.502 107.126 473.757 106.073 475.593 105.476C478.928 104.391 481.931 106.059 483.052 109.506Z"
    fill="url(#4f771520-2631-11ec-a746-65090f7e5dbepaint47_linear)"></path>
  <path
    d="M499.383 106.963L488.816 110.4C489.827 112.284 491.647 113.049 493.343 112.497C494.426 112.145 495.744 111.563 496.193 109.541L499.699 109.167C499.418 112.457 497.394 114.654 494.365 115.639C490.443 116.914 486.275 114.974 484.857 110.613C483.438 106.252 485.659 102.205 489.635 100.911C493.333 99.7087 497.463 101.532 498.977 105.713L499.383 106.963ZM488.086 107.775L494.791 105.595C493.741 103.97 492.151 103.625 490.679 104.104C489.283 104.558 487.97 105.907 488.086 107.775Z"
    fill="url(#4f771520-2631-11ec-a746-65090f7e5dbepaint48_linear)"></path>
  <path
    d="M516.426 107.538C515.883 108.138 515.191 108.586 514.421 108.836C513.057 109.279 511.903 109.133 510.994 108.135C510.373 109.537 509.126 110.835 506.938 111.547C503.99 112.506 501.455 111.424 500.613 108.837C499.772 106.249 501.177 104.042 504.563 102.633L508.286 101.085L508.241 100.946C507.788 99.555 506.591 98.8046 504.97 99.332C503.636 99.7658 502.953 100.79 503.126 102.269L499.509 102.679C499.179 99.6804 500.879 97.2515 504.106 96.2023C507.498 95.0989 510.552 96.1651 511.647 99.5303L513.257 104.48C513.447 105.064 513.767 105.297 514.102 105.188C514.269 105.134 514.538 105.016 515.185 104.743L516.426 107.538ZM509.271 104.115L509.099 103.586L505.695 105.124C504.331 105.752 503.934 106.619 504.224 107.508C504.54 108.482 505.528 108.776 506.753 108.378C508.794 107.714 509.849 105.89 509.271 104.115Z"
    fill="url(#4f771520-2631-11ec-a746-65090f7e5dbepaint49_linear)"></path>
  <path
    d="M520.424 101.042C520.867 102.403 521.752 102.947 522.865 102.585C523.657 102.271 524.37 101.787 524.955 101.167L527.007 103.88C525.813 105.131 524.893 105.707 523.726 106.087C520.418 107.163 517.937 105.877 516.844 102.514L514.881 96.4792L511.901 97.4485L510.924 94.4459L513.904 93.4767L512.267 88.4426L515.576 86.1362L517.575 92.2828L522.942 90.5373L523.918 93.5399L518.552 95.2854L520.424 101.042Z"
    fill="url(#4f771520-2631-11ec-a746-65090f7e5dbepaint50_linear)"></path>
  <defs>
    <linearGradient id="4f771520-2631-11ec-a746-65090f7e5dbepaint0_linear" x1="-12.3612" y1="12.2686" x2="593.142"
      y2="266" gradientUnits="userSpaceOnUse">
      <stop stop-color="#5F0F3B"></stop>
      <stop offset="1" stop-color="#362364"></stop>
    </linearGradient>
    <linearGradient id="4f771520-2631-11ec-a746-65090f7e5dbepaint1_linear" x1="-12.3612" y1="12.2686" x2="593.142"
      y2="266" gradientUnits="userSpaceOnUse">
      <stop stop-color="#5F0F3B"></stop>
      <stop offset="1" stop-color="#362364"></stop>
    </linearGradient>
    <linearGradient id="4f771520-2631-11ec-a746-65090f7e5dbepaint2_linear" x1="249.045" y1="-32" x2="249.045" y2="266"
      gradientUnits="userSpaceOnUse">
      <stop stop-color="#C4C4C4"></stop>
      <stop offset="1" stop-color="#C4C4C4" stop-opacity="0"></stop>
    </linearGradient>
    <linearGradient id="4f771520-2631-11ec-a746-65090f7e5dbepaint3_linear" x1="-52.3632" y1="57.9885" x2="97.0555"
      y2="192.88" gradientUnits="userSpaceOnUse">
      <stop stop-color="#FF008E" stop-opacity="0"></stop>
      <stop offset="1" stop-color="#FFCD1E"></stop>
    </linearGradient>
    <linearGradient id="4f771520-2631-11ec-a746-65090f7e5dbepaint4_linear" x1="-52.3632" y1="-14.4319" x2="97.0555"
      y2="120.459" gradientUnits="userSpaceOnUse">
      <stop stop-color="#FF008E" stop-opacity="0"></stop>
      <stop offset="1" stop-color="#FFCD1E"></stop>
    </linearGradient>
    <linearGradient id="4f771520-2631-11ec-a746-65090f7e5dbepaint5_linear" x1="-52.3632" y1="130.409" x2="97.0555"
      y2="265.3" gradientUnits="userSpaceOnUse">
      <stop stop-color="#FF008E" stop-opacity="0"></stop>
      <stop offset="1" stop-color="#FFCD1E"></stop>
    </linearGradient>
    <linearGradient id="4f771520-2631-11ec-a746-65090f7e5dbepaint6_linear" x1="74.8422" y1="57.9885" x2="224.261"
      y2="192.88" gradientUnits="userSpaceOnUse">
      <stop stop-color="#FF008E" stop-opacity="0"></stop>
      <stop offset="1" stop-color="#FFCD1E"></stop>
    </linearGradient>
    <linearGradient id="4f771520-2631-11ec-a746-65090f7e5dbepaint7_linear" x1="74.8422" y1="-14.4319" x2="224.261"
      y2="120.459" gradientUnits="userSpaceOnUse">
      <stop stop-color="#FF008E" stop-opacity="0"></stop>
      <stop offset="1" stop-color="#FFCD1E"></stop>
    </linearGradient>
    <linearGradient id="4f771520-2631-11ec-a746-65090f7e5dbepaint8_linear" x1="74.8422" y1="130.409" x2="224.261"
      y2="265.3" gradientUnits="userSpaceOnUse">
      <stop stop-color="#FF008E" stop-opacity="0"></stop>
      <stop offset="1" stop-color="#FFCD1E"></stop>
    </linearGradient>
    <linearGradient id="4f771520-2631-11ec-a746-65090f7e5dbepaint9_linear" x1="202.047" y1="57.9885" x2="351.465"
      y2="192.88" gradientUnits="userSpaceOnUse">
      <stop stop-color="#FF008E" stop-opacity="0"></stop>
      <stop offset="1" stop-color="#FFCD1E"></stop>
    </linearGradient>
    <linearGradient id="4f771520-2631-11ec-a746-65090f7e5dbepaint10_linear" x1="202.047" y1="-14.4319" x2="351.465"
      y2="120.459" gradientUnits="userSpaceOnUse">
      <stop stop-color="#FF008E" stop-opacity="0"></stop>
      <stop offset="1" stop-color="#FFCD1E"></stop>
    </linearGradient>
    <linearGradient id="4f771520-2631-11ec-a746-65090f7e5dbepaint11_linear" x1="202.047" y1="130.409" x2="351.465"
      y2="265.3" gradientUnits="userSpaceOnUse">
      <stop stop-color="#FF008E" stop-opacity="0"></stop>
      <stop offset="1" stop-color="#FFCD1E"></stop>
    </linearGradient>
    <linearGradient id="4f771520-2631-11ec-a746-65090f7e5dbepaint12_linear" x1="329.252" y1="57.9885" x2="478.671"
      y2="192.88" gradientUnits="userSpaceOnUse">
      <stop stop-color="#FF008E" stop-opacity="0"></stop>
      <stop offset="1" stop-color="#FFCD1E"></stop>
    </linearGradient>
    <linearGradient id="4f771520-2631-11ec-a746-65090f7e5dbepaint13_linear" x1="329.252" y1="-14.4319" x2="478.671"
      y2="120.459" gradientUnits="userSpaceOnUse">
      <stop stop-color="#FF008E" stop-opacity="0"></stop>
      <stop offset="1" stop-color="#FFCD1E"></stop>
    </linearGradient>
    <linearGradient id="4f771520-2631-11ec-a746-65090f7e5dbepaint14_linear" x1="329.252" y1="130.409" x2="478.671"
      y2="265.3" gradientUnits="userSpaceOnUse">
      <stop stop-color="#FF008E" stop-opacity="0"></stop>
      <stop offset="1" stop-color="#FFCD1E"></stop>
    </linearGradient>
    <linearGradient id="4f771520-2631-11ec-a746-65090f7e5dbepaint15_linear" x1="154.861" y1="-1.18639" x2="11.362"
      y2="124.883" gradientUnits="userSpaceOnUse">
      <stop stop-color="#FF008E"></stop>
      <stop offset="1" stop-color="#FFCD1E" stop-opacity="0"></stop>
    </linearGradient>
    <linearGradient id="4f771520-2631-11ec-a746-65090f7e5dbepaint16_linear" x1="154.861" y1="-73.6068" x2="11.362"
      y2="52.4625" gradientUnits="userSpaceOnUse">
      <stop stop-color="#FF008E"></stop>
      <stop offset="1" stop-color="#FFCD1E" stop-opacity="0"></stop>
    </linearGradient>
    <linearGradient id="4f771520-2631-11ec-a746-65090f7e5dbepaint17_linear" x1="154.861" y1="71.234" x2="11.362"
      y2="197.303" gradientUnits="userSpaceOnUse">
      <stop stop-color="#FF008E"></stop>
      <stop offset="1" stop-color="#FFCD1E" stop-opacity="0"></stop>
    </linearGradient>
    <linearGradient id="4f771520-2631-11ec-a746-65090f7e5dbepaint18_linear" x1="282.066" y1="-1.18639" x2="138.567"
      y2="124.883" gradientUnits="userSpaceOnUse">
      <stop stop-color="#FF008E"></stop>
      <stop offset="1" stop-color="#FFCD1E" stop-opacity="0"></stop>
    </linearGradient>
    <linearGradient id="4f771520-2631-11ec-a746-65090f7e5dbepaint19_linear" x1="282.066" y1="-73.6068" x2="138.567"
      y2="52.4625" gradientUnits="userSpaceOnUse">
      <stop stop-color="#FF008E"></stop>
      <stop offset="1" stop-color="#FFCD1E" stop-opacity="0"></stop>
    </linearGradient>
    <linearGradient id="4f771520-2631-11ec-a746-65090f7e5dbepaint20_linear" x1="282.066" y1="71.234" x2="138.567"
      y2="197.303" gradientUnits="userSpaceOnUse">
      <stop stop-color="#FF008E"></stop>
      <stop offset="1" stop-color="#FFCD1E" stop-opacity="0"></stop>
    </linearGradient>
    <linearGradient id="4f771520-2631-11ec-a746-65090f7e5dbepaint21_linear" x1="409.272" y1="-1.18639" x2="265.773"
      y2="124.883" gradientUnits="userSpaceOnUse">
      <stop stop-color="#FF008E"></stop>
      <stop offset="1" stop-color="#FFCD1E" stop-opacity="0"></stop>
    </linearGradient>
    <linearGradient id="4f771520-2631-11ec-a746-65090f7e5dbepaint22_linear" x1="409.272" y1="-73.6068" x2="265.773"
      y2="52.4625" gradientUnits="userSpaceOnUse">
      <stop stop-color="#FF008E"></stop>
      <stop offset="1" stop-color="#FFCD1E" stop-opacity="0"></stop>
    </linearGradient>
    <linearGradient id="4f771520-2631-11ec-a746-65090f7e5dbepaint23_linear" x1="409.272" y1="71.234" x2="265.773"
      y2="197.303" gradientUnits="userSpaceOnUse">
      <stop stop-color="#FF008E"></stop>
      <stop offset="1" stop-color="#FFCD1E" stop-opacity="0"></stop>
    </linearGradient>
    <linearGradient id="4f771520-2631-11ec-a746-65090f7e5dbepaint24_linear" x1="536.476" y1="-1.18639" x2="392.977"
      y2="124.883" gradientUnits="userSpaceOnUse">
      <stop stop-color="#FF008E"></stop>
      <stop offset="1" stop-color="#FFCD1E" stop-opacity="0"></stop>
    </linearGradient>
    <linearGradient id="4f771520-2631-11ec-a746-65090f7e5dbepaint25_linear" x1="536.476" y1="-73.6068" x2="392.977"
      y2="52.4625" gradientUnits="userSpaceOnUse">
      <stop stop-color="#FF008E"></stop>
      <stop offset="1" stop-color="#FFCD1E" stop-opacity="0"></stop>
    </linearGradient>
    <linearGradient id="4f771520-2631-11ec-a746-65090f7e5dbepaint26_linear" x1="536.476" y1="71.234" x2="392.977"
      y2="197.303" gradientUnits="userSpaceOnUse">
      <stop stop-color="#FF008E"></stop>
      <stop offset="1" stop-color="#FFCD1E" stop-opacity="0"></stop>
    </linearGradient>
    <linearGradient id="4f771520-2631-11ec-a746-65090f7e5dbepaint27_linear" x1="491.5" y1="0" x2="491.5" y2="266"
      gradientUnits="userSpaceOnUse">
      <stop stop-color="#FF008E"></stop>
      <stop offset="1" stop-color="#FFCD1E"></stop>
    </linearGradient>
    <linearGradient id="4f771520-2631-11ec-a746-65090f7e5dbepaint28_linear" x1="492.5" y1="-38.803" x2="492.5"
      y2="300.164" gradientUnits="userSpaceOnUse">
      <stop stop-color="#FF008E"></stop>
      <stop offset="1" stop-color="#8257E5"></stop>
    </linearGradient>
    <linearGradient id="4f771520-2631-11ec-a746-65090f7e5dbepaint29_linear" x1="238.556" y1="193.426" x2="579.531"
      y2="-5.98744" gradientUnits="userSpaceOnUse">
      <stop stop-color="#FF008E" stop-opacity="0"></stop>
      <stop offset="1" stop-color="#8257E5"></stop>
    </linearGradient>
    <linearGradient id="4f771520-2631-11ec-a746-65090f7e5dbepaint30_linear" x1="238.555" y1="392.55" x2="579.53"
      y2="193.136" gradientUnits="userSpaceOnUse">
      <stop stop-color="#FF008E" stop-opacity="0"></stop>
      <stop offset="1" stop-color="#8257E5"></stop>
    </linearGradient>
    <linearGradient id="4f771520-2631-11ec-a746-65090f7e5dbepaint31_linear" x1="413.534" y1="294.454" x2="745.209"
      y2="94.5236" gradientUnits="userSpaceOnUse">
      <stop stop-color="#FF008E" stop-opacity="0"></stop>
      <stop offset="0.98" stop-color="#FFCD1E"></stop>
    </linearGradient>
    <linearGradient id="4f771520-2631-11ec-a746-65090f7e5dbepaint32_linear" x1="402.488" y1="-11.001" x2="680.303"
      y2="208.253" gradientUnits="userSpaceOnUse">
      <stop stop-color="#FFCD1E"></stop>
      <stop offset="1" stop-color="#FF008E" stop-opacity="0"></stop>
    </linearGradient>
    <linearGradient id="4f771520-2631-11ec-a746-65090f7e5dbepaint33_linear" x1="402.488" y1="-11.001" x2="680.303"
      y2="208.253" gradientUnits="userSpaceOnUse">
      <stop stop-color="#FFCD1E"></stop>
      <stop offset="1" stop-color="#FF008E" stop-opacity="0"></stop>
    </linearGradient>
    <linearGradient id="4f771520-2631-11ec-a746-65090f7e5dbepaint34_linear" x1="402.488" y1="-11.001" x2="680.303"
      y2="208.253" gradientUnits="userSpaceOnUse">
      <stop stop-color="#FFCD1E"></stop>
      <stop offset="1" stop-color="#FF008E" stop-opacity="0"></stop>
    </linearGradient>
    <linearGradient id="4f771520-2631-11ec-a746-65090f7e5dbepaint35_linear" x1="402.488" y1="-11.001" x2="680.303"
      y2="208.253" gradientUnits="userSpaceOnUse">
      <stop stop-color="#FFCD1E"></stop>
      <stop offset="1" stop-color="#FF008E" stop-opacity="0"></stop>
    </linearGradient>
    <linearGradient id="4f771520-2631-11ec-a746-65090f7e5dbepaint36_linear" x1="402.488" y1="-11.001" x2="680.303"
      y2="208.253" gradientUnits="userSpaceOnUse">
      <stop stop-color="#FFCD1E"></stop>
      <stop offset="1" stop-color="#FF008E" stop-opacity="0"></stop>
    </linearGradient>
    <linearGradient id="4f771520-2631-11ec-a746-65090f7e5dbepaint37_linear" x1="402.488" y1="-11.001" x2="680.303"
      y2="208.253" gradientUnits="userSpaceOnUse">
      <stop stop-color="#FFCD1E"></stop>
      <stop offset="1" stop-color="#FF008E" stop-opacity="0"></stop>
    </linearGradient>
    <linearGradient id="4f771520-2631-11ec-a746-65090f7e5dbepaint38_linear" x1="402.488" y1="-11.001" x2="680.303"
      y2="208.253" gradientUnits="userSpaceOnUse">
      <stop stop-color="#FFCD1E"></stop>
      <stop offset="1" stop-color="#FF008E" stop-opacity="0"></stop>
    </linearGradient>
    <linearGradient id="4f771520-2631-11ec-a746-65090f7e5dbepaint39_linear" x1="402.488" y1="-11.001" x2="680.303"
      y2="208.253" gradientUnits="userSpaceOnUse">
      <stop stop-color="#FFCD1E"></stop>
      <stop offset="1" stop-color="#FF008E" stop-opacity="0"></stop>
    </linearGradient>
    <linearGradient id="4f771520-2631-11ec-a746-65090f7e5dbepaint40_linear" x1="402.488" y1="-11.001" x2="680.303"
      y2="208.253" gradientUnits="userSpaceOnUse">
      <stop stop-color="#FFCD1E"></stop>
      <stop offset="1" stop-color="#FF008E" stop-opacity="0"></stop>
    </linearGradient>
    <linearGradient id="4f771520-2631-11ec-a746-65090f7e5dbepaint41_linear" x1="402.488" y1="-11.001" x2="680.303"
      y2="208.253" gradientUnits="userSpaceOnUse">
      <stop stop-color="#FFCD1E"></stop>
      <stop offset="1" stop-color="#FF008E" stop-opacity="0"></stop>
    </linearGradient>
    <linearGradient id="4f771520-2631-11ec-a746-65090f7e5dbepaint42_linear" x1="402.488" y1="-11.001" x2="680.303"
      y2="208.253" gradientUnits="userSpaceOnUse">
      <stop stop-color="#FFCD1E"></stop>
      <stop offset="1" stop-color="#FF008E" stop-opacity="0"></stop>
    </linearGradient>
    <linearGradient id="4f771520-2631-11ec-a746-65090f7e5dbepaint43_linear" x1="402.488" y1="-11.001" x2="680.303"
      y2="208.253" gradientUnits="userSpaceOnUse">
      <stop stop-color="#FFCD1E"></stop>
      <stop offset="1" stop-color="#FF008E" stop-opacity="0"></stop>
    </linearGradient>
    <linearGradient id="4f771520-2631-11ec-a746-65090f7e5dbepaint44_linear" x1="402.488" y1="-11.001" x2="680.303"
      y2="208.253" gradientUnits="userSpaceOnUse">
      <stop stop-color="#FFCD1E"></stop>
      <stop offset="1" stop-color="#FF008E" stop-opacity="0"></stop>
    </linearGradient>
    <linearGradient id="4f771520-2631-11ec-a746-65090f7e5dbepaint45_linear" x1="402.488" y1="-11.001" x2="680.303"
      y2="208.253" gradientUnits="userSpaceOnUse">
      <stop stop-color="#FFCD1E"></stop>
      <stop offset="1" stop-color="#FF008E" stop-opacity="0"></stop>
    </linearGradient>
    <linearGradient id="4f771520-2631-11ec-a746-65090f7e5dbepaint46_linear" x1="408.188" y1="54.5647" x2="567.383"
      y2="34.8415" gradientUnits="userSpaceOnUse">
      <stop stop-color="#3F0B28"></stop>
      <stop offset="1" stop-color="#1D1138"></stop>
    </linearGradient>
    <linearGradient id="4f771520-2631-11ec-a746-65090f7e5dbepaint47_linear" x1="536.581" y1="114.312" x2="473.247"
      y2="97.1357" gradientUnits="userSpaceOnUse">
      <stop stop-color="#FF008E"></stop>
      <stop offset="1" stop-color="#8257E5"></stop>
    </linearGradient>
    <linearGradient id="4f771520-2631-11ec-a746-65090f7e5dbepaint48_linear" x1="536.581" y1="114.312" x2="473.247"
      y2="97.1357" gradientUnits="userSpaceOnUse">
      <stop stop-color="#FF008E"></stop>
      <stop offset="1" stop-color="#8257E5"></stop>
    </linearGradient>
    <linearGradient id="4f771520-2631-11ec-a746-65090f7e5dbepaint49_linear" x1="536.581" y1="114.312" x2="473.247"
      y2="97.1357" gradientUnits="userSpaceOnUse">
      <stop stop-color="#FF008E"></stop>
      <stop offset="1" stop-color="#8257E5"></stop>
    </linearGradient>
    <linearGradient id="4f771520-2631-11ec-a746-65090f7e5dbepaint50_linear" x1="536.581" y1="114.312" x2="473.247"
      y2="97.1357" gradientUnits="userSpaceOnUse">
      <stop stop-color="#FF008E"></stop>
      <stop offset="1" stop-color="#8257E5"></stop>
    </linearGradient>
  </defs>
</svg>
