<svg width="327" height="152" viewBox="0 0 327 152" fill="none" xmlns="http://www.w3.org/2000/svg">
  <path
    d="M4.54167 1.13543C4.54167 3.64373 2.50829 5.6771 0 5.6771V9.08335C2.50829 9.08335 4.54167 11.1167 4.54167 13.625C4.54167 16.1333 2.50829 18.1667 0 18.1667V21.5729C2.50829 21.5729 4.54167 23.6063 4.54167 26.1146C4.54167 28.6229 2.50829 30.6563 0 30.6563V34.0625C2.50829 34.0625 4.54167 36.0959 4.54167 38.6042C4.54167 41.1125 2.50829 43.1459 0 43.1459V46.5521C2.50829 46.5521 4.54167 48.5855 4.54167 51.0938C4.54167 53.6021 2.50829 55.6354 0 55.6354V59.0417C2.50829 59.0417 4.54167 61.0751 4.54167 63.5834C4.54167 66.0917 2.50829 68.125 0 68.125V71.5313C2.50829 71.5313 4.54167 73.5646 4.54167 76.0729C4.54167 78.5812 2.50829 80.6146 0 80.6146V84.0209C2.50829 84.0209 4.54167 86.0542 4.54167 88.5625C4.54167 91.0708 2.50829 93.1042 0 93.1042V96.5104C2.50829 96.5104 4.54167 98.5438 4.54167 101.052C4.54167 103.56 2.50829 105.594 0 105.594V109C2.50829 109 4.54167 111.033 4.54167 113.542C4.54167 116.05 2.50829 118.083 0 118.083V121.49C2.50829 121.49 4.54167 123.523 4.54167 126.031C4.54167 128.54 2.50829 130.573 0 130.573V133.979C2.50829 133.979 4.54167 136.013 4.54167 138.521C4.54167 141.029 2.50829 143.063 0 143.063V146.469C2.50829 146.469 4.54167 148.502 4.54167 151.01H322.458C322.458 148.502 324.492 146.469 327 146.469V143.063C324.492 143.063 322.458 141.029 322.458 138.521C322.458 136.013 324.492 133.979 327 133.979V130.573C324.492 130.573 322.458 128.54 322.458 126.031C322.458 123.523 324.492 121.49 327 121.49V118.083C324.492 118.083 322.458 116.05 322.458 113.542C322.458 111.033 324.492 109 327 109V105.594C324.492 105.594 322.458 103.56 322.458 101.052C322.458 98.5438 324.492 96.5104 327 96.5104V93.1042C324.492 93.1042 322.458 91.0708 322.458 88.5625C322.458 86.0542 324.492 84.0209 327 84.0209V80.6146C324.492 80.6146 322.458 78.5812 322.458 76.0729C322.458 73.5646 324.492 71.5313 327 71.5313V68.125C324.492 68.125 322.458 66.0917 322.458 63.5834C322.458 61.0751 324.492 59.0417 327 59.0417V55.6354C324.492 55.6354 322.458 53.6021 322.458 51.0938C322.458 48.5855 324.492 46.5521 327 46.5521V43.1459C324.492 43.1459 322.458 41.1125 322.458 38.6042C322.458 36.0959 324.492 34.0625 327 34.0625V30.6563C324.492 30.6563 322.458 28.6229 322.458 26.1146C322.458 23.6063 324.492 21.5729 327 21.5729V18.1667C324.492 18.1667 322.458 16.1333 322.458 13.625C322.458 11.1167 324.492 9.08335 327 9.08335V5.6771C324.492 5.6771 322.458 3.64373 322.458 1.13543C322.458 0.743369 322.508 0.362907 322.601 0H4.39858C4.49199 0.362907 4.54167 0.743369 4.54167 1.13543Z"
    fill="#29292E"></path>
  <mask id="7d767150-2631-11ec-a746-65090f7e5dbemask0" maskUnits="userSpaceOnUse" x="0" y="0" width="327" height="152"
    style="mask-type: alpha;">
    <path
      d="M4.54167 1.13543C4.54167 3.64373 2.50829 5.6771 0 5.6771V9.08335C2.50829 9.08335 4.54167 11.1167 4.54167 13.625C4.54167 16.1333 2.50829 18.1667 0 18.1667V21.5729C2.50829 21.5729 4.54167 23.6063 4.54167 26.1146C4.54167 28.6229 2.50829 30.6563 0 30.6563V34.0625C2.50829 34.0625 4.54167 36.0959 4.54167 38.6042C4.54167 41.1125 2.50829 43.1459 0 43.1459V46.5521C2.50829 46.5521 4.54167 48.5855 4.54167 51.0938C4.54167 53.6021 2.50829 55.6354 0 55.6354V59.0417C2.50829 59.0417 4.54167 61.0751 4.54167 63.5834C4.54167 66.0917 2.50829 68.125 0 68.125V71.5313C2.50829 71.5313 4.54167 73.5646 4.54167 76.0729C4.54167 78.5812 2.50829 80.6146 0 80.6146V84.0209C2.50829 84.0209 4.54167 86.0542 4.54167 88.5625C4.54167 91.0708 2.50829 93.1042 0 93.1042V96.5104C2.50829 96.5104 4.54167 98.5438 4.54167 101.052C4.54167 103.56 2.50829 105.594 0 105.594V109C2.50829 109 4.54167 111.033 4.54167 113.542C4.54167 116.05 2.50829 118.083 0 118.083V121.49C2.50829 121.49 4.54167 123.523 4.54167 126.031C4.54167 128.54 2.50829 130.573 0 130.573V133.979C2.50829 133.979 4.54167 136.013 4.54167 138.521C4.54167 141.029 2.50829 143.063 0 143.063V146.469C2.50829 146.469 4.54167 148.502 4.54167 151.01H322.458C322.458 148.502 324.492 146.469 327 146.469V143.063C324.492 143.063 322.458 141.029 322.458 138.521C322.458 136.013 324.492 133.979 327 133.979V130.573C324.492 130.573 322.458 128.54 322.458 126.031C322.458 123.523 324.492 121.49 327 121.49V118.083C324.492 118.083 322.458 116.05 322.458 113.542C322.458 111.033 324.492 109 327 109V105.594C324.492 105.594 322.458 103.56 322.458 101.052C322.458 98.5438 324.492 96.5104 327 96.5104V93.1042C324.492 93.1042 322.458 91.0708 322.458 88.5625C322.458 86.0542 324.492 84.0209 327 84.0209V80.6146C324.492 80.6146 322.458 78.5812 322.458 76.0729C322.458 73.5646 324.492 71.5313 327 71.5313V68.125C324.492 68.125 322.458 66.0917 322.458 63.5834C322.458 61.0751 324.492 59.0417 327 59.0417V55.6354C324.492 55.6354 322.458 53.6021 322.458 51.0938C322.458 48.5855 324.492 46.5521 327 46.5521V43.1459C324.492 43.1459 322.458 41.1125 322.458 38.6042C322.458 36.0959 324.492 34.0625 327 34.0625V30.6563C324.492 30.6563 322.458 28.6229 322.458 26.1146C322.458 23.6063 324.492 21.5729 327 21.5729V18.1667C324.492 18.1667 322.458 16.1333 322.458 13.625C322.458 11.1167 324.492 9.08335 327 9.08335V5.6771C324.492 5.6771 322.458 3.64373 322.458 1.13543C322.458 0.743369 322.508 0.362907 322.601 0H4.39858C4.49199 0.362907 4.54167 0.743369 4.54167 1.13543Z"
      fill="url(#7d767150-2631-11ec-a746-65090f7e5dbepaint0_linear)"></path>
  </mask>
  <g mask="url(#7d767150-2631-11ec-a746-65090f7e5dbemask0)">
    <mask id="7d767150-2631-11ec-a746-65090f7e5dbemask1" maskUnits="userSpaceOnUse" x="-4" y="-19" width="291"
      height="171" style="mask-type: alpha;">
      <rect x="-3.6001" y="-18.1665" width="289.97" height="169.177"
        fill="url(#7d767150-2631-11ec-a746-65090f7e5dbepaint1_linear)"></rect>
    </mask>
    <g mask="url(#7d767150-2631-11ec-a746-65090f7e5dbemask1)">
      <g opacity="0.5">
        <path d="M-20.3905 81.3717V40.2581L15.7172 19.7007L51.825 40.2581V81.3717L15.7172 101.928L-20.3905 81.3717Z"
          stroke="url(#7d767150-2631-11ec-a746-65090f7e5dbepaint2_linear)" stroke-width="0.226617"></path>
        <path
          d="M-20.3905 40.2579V-0.855681L15.7172 -21.4131L51.825 -0.855681V40.2579L15.7172 60.8141L-20.3905 40.2579Z"
          stroke="url(#7d767150-2631-11ec-a746-65090f7e5dbepaint3_linear)" stroke-width="0.226617"></path>
        <path d="M-20.3905 122.485V81.3719L15.7172 60.8145L51.825 81.3719V122.485L15.7172 143.042L-20.3905 122.485Z"
          stroke="url(#7d767150-2631-11ec-a746-65090f7e5dbepaint4_linear)" stroke-width="0.226617"></path>
        <path d="M51.8251 81.3717V40.2581L87.9328 19.7007L124.041 40.2581V81.3717L87.9328 101.928L51.8251 81.3717Z"
          stroke="url(#7d767150-2631-11ec-a746-65090f7e5dbepaint5_linear)" stroke-width="0.226617"></path>
        <path d="M51.8251 40.2579V-0.855681L87.9328 -21.4131L124.041 -0.855681V40.2579L87.9328 60.8141L51.8251 40.2579Z"
          stroke="url(#7d767150-2631-11ec-a746-65090f7e5dbepaint6_linear)" stroke-width="0.226617"></path>
        <path d="M51.8251 122.485V81.3719L87.9328 60.8145L124.041 81.3719V122.485L87.9328 143.042L51.8251 122.485Z"
          stroke="url(#7d767150-2631-11ec-a746-65090f7e5dbepaint7_linear)" stroke-width="0.226617"></path>
        <path d="M124.04 81.3717V40.2581L160.148 19.7007L196.256 40.2581V81.3717L160.148 101.928L124.04 81.3717Z"
          stroke="url(#7d767150-2631-11ec-a746-65090f7e5dbepaint8_linear)" stroke-width="0.226617"></path>
        <path d="M124.04 40.2579V-0.855681L160.148 -21.4131L196.256 -0.855681V40.2579L160.148 60.8141L124.04 40.2579Z"
          stroke="url(#7d767150-2631-11ec-a746-65090f7e5dbepaint9_linear)" stroke-width="0.226617"></path>
        <path d="M124.04 122.485V81.3719L160.148 60.8145L196.256 81.3719V122.485L160.148 143.042L124.04 122.485Z"
          stroke="url(#7d767150-2631-11ec-a746-65090f7e5dbepaint10_linear)" stroke-width="0.226617"></path>
        <path d="M196.256 81.3717V40.2581L232.363 19.7007L268.471 40.2581V81.3717L232.363 101.928L196.256 81.3717Z"
          stroke="url(#7d767150-2631-11ec-a746-65090f7e5dbepaint11_linear)" stroke-width="0.226617"></path>
        <path d="M196.256 40.2579V-0.855681L232.363 -21.4131L268.471 -0.855681V40.2579L232.363 60.8141L196.256 40.2579Z"
          stroke="url(#7d767150-2631-11ec-a746-65090f7e5dbepaint12_linear)" stroke-width="0.226617"></path>
        <path d="M196.256 122.485V81.3719L232.363 60.8145L268.471 81.3719V122.485L232.363 143.042L196.256 122.485Z"
          stroke="url(#7d767150-2631-11ec-a746-65090f7e5dbepaint13_linear)" stroke-width="0.226617"></path>
        <path d="M15.7172 60.7745V19.6609L51.8249 -0.896484L87.9326 19.6609V60.7745L51.8249 81.3307L15.7172 60.7745Z"
          stroke="url(#7d767150-2631-11ec-a746-65090f7e5dbepaint14_linear)" stroke-width="0.226617"></path>
        <path d="M15.7172 19.6608V-21.4528L51.8249 -42.0103L87.9326 -21.4528V19.6608L51.8249 40.217L15.7172 19.6608Z"
          stroke="url(#7d767150-2631-11ec-a746-65090f7e5dbepaint15_linear)" stroke-width="0.226617"></path>
        <path d="M15.7172 101.888V60.7742L51.8249 40.2168L87.9326 60.7742V101.888L51.8249 122.444L15.7172 101.888Z"
          stroke="url(#7d767150-2631-11ec-a746-65090f7e5dbepaint16_linear)" stroke-width="0.226617"></path>
        <path d="M87.9323 60.7745V19.6609L124.04 -0.896484L160.148 19.6609V60.7745L124.04 81.3307L87.9323 60.7745Z"
          stroke="url(#7d767150-2631-11ec-a746-65090f7e5dbepaint17_linear)" stroke-width="0.226617"></path>
        <path d="M87.9323 19.6608V-21.4528L124.04 -42.0103L160.148 -21.4528V19.6608L124.04 40.217L87.9323 19.6608Z"
          stroke="url(#7d767150-2631-11ec-a746-65090f7e5dbepaint18_linear)" stroke-width="0.226617"></path>
        <path d="M87.9323 101.888V60.7742L124.04 40.2168L160.148 60.7742V101.888L124.04 122.444L87.9323 101.888Z"
          stroke="url(#7d767150-2631-11ec-a746-65090f7e5dbepaint19_linear)" stroke-width="0.226617"></path>
        <path d="M160.148 60.7745V19.6609L196.256 -0.896484L232.364 19.6609V60.7745L196.256 81.3307L160.148 60.7745Z"
          stroke="url(#7d767150-2631-11ec-a746-65090f7e5dbepaint20_linear)" stroke-width="0.226617"></path>
        <path d="M160.148 19.6608V-21.4528L196.256 -42.0103L232.364 -21.4528V19.6608L196.256 40.217L160.148 19.6608Z"
          stroke="url(#7d767150-2631-11ec-a746-65090f7e5dbepaint21_linear)" stroke-width="0.226617"></path>
        <path d="M160.148 101.888V60.7742L196.256 40.2168L232.364 60.7742V101.888L196.256 122.444L160.148 101.888Z"
          stroke="url(#7d767150-2631-11ec-a746-65090f7e5dbepaint22_linear)" stroke-width="0.226617"></path>
        <path d="M232.363 60.7745V19.6609L268.471 -0.896484L304.579 19.6609V60.7745L268.471 81.3307L232.363 60.7745Z"
          stroke="url(#7d767150-2631-11ec-a746-65090f7e5dbepaint23_linear)" stroke-width="0.226617"></path>
        <path d="M232.363 19.6608V-21.4528L268.471 -42.0103L304.579 -21.4528V19.6608L268.471 40.217L232.363 19.6608Z"
          stroke="url(#7d767150-2631-11ec-a746-65090f7e5dbepaint24_linear)" stroke-width="0.226617"></path>
        <path d="M232.363 101.888V60.7742L268.471 40.2168L304.579 60.7742V101.888L268.471 122.444L232.363 101.888Z"
          stroke="url(#7d767150-2631-11ec-a746-65090f7e5dbepaint25_linear)" stroke-width="0.226617"></path>
      </g>
    </g>
  </g>
  <path
    d="M322.602 0H231.057V151.01H322.458C322.458 148.502 324.492 146.469 327 146.469V143.063C324.492 143.063 322.458 141.029 322.458 138.521C322.458 136.013 324.492 133.979 327 133.979V130.573C324.492 130.573 322.458 128.54 322.458 126.031C322.458 123.523 324.492 121.49 327 121.49V118.083C324.492 118.083 322.458 116.05 322.458 113.542C322.458 111.033 324.492 109 327 109V105.594C324.492 105.594 322.458 103.56 322.458 101.052C322.458 98.5438 324.492 96.5104 327 96.5104V93.1042C324.492 93.1042 322.458 91.0708 322.458 88.5625C322.458 86.0542 324.492 84.0208 327 84.0208V80.6146C324.492 80.6146 322.458 78.5812 322.458 76.0729C322.458 73.5646 324.492 71.5313 327 71.5313V68.125C324.492 68.125 322.458 66.0916 322.458 63.5833C322.458 61.075 324.492 59.0417 327 59.0417V55.6354C324.492 55.6354 322.458 53.602 322.458 51.0938C322.458 48.5855 324.492 46.5521 327 46.5521V43.1458C324.492 43.1458 322.458 41.1125 322.458 38.6042C322.458 36.0959 324.492 34.0625 327 34.0625V30.6563C324.492 30.6563 322.458 28.6229 322.458 26.1146C322.458 23.6063 324.492 21.5729 327 21.5729V18.1667C324.492 18.1667 322.458 16.1333 322.458 13.625C322.458 11.1167 324.492 9.08333 327 9.08333V5.67708C324.492 5.67708 322.458 3.64371 322.458 1.13542C322.458 0.743358 322.508 0.362902 322.602 0Z"
    fill="url(#7d767150-2631-11ec-a746-65090f7e5dbepaint26_linear)"></path>
  <mask id="7d767150-2631-11ec-a746-65090f7e5dbemask2" maskUnits="userSpaceOnUse" x="231" y="0" width="96" height="152"
    style="mask-type: alpha;">
    <path
      d="M322.602 0H231.057V151.01H322.458C322.458 148.502 324.492 146.469 327 146.469V143.063C324.492 143.063 322.458 141.029 322.458 138.521C322.458 136.013 324.492 133.979 327 133.979V130.573C324.492 130.573 322.458 128.54 322.458 126.031C322.458 123.523 324.492 121.49 327 121.49V118.083C324.492 118.083 322.458 116.05 322.458 113.542C322.458 111.033 324.492 109 327 109V105.594C324.492 105.594 322.458 103.56 322.458 101.052C322.458 98.5438 324.492 96.5104 327 96.5104V93.1042C324.492 93.1042 322.458 91.0708 322.458 88.5625C322.458 86.0542 324.492 84.0208 327 84.0208V80.6146C324.492 80.6146 322.458 78.5812 322.458 76.0729C322.458 73.5646 324.492 71.5313 327 71.5313V68.125C324.492 68.125 322.458 66.0916 322.458 63.5833C322.458 61.075 324.492 59.0417 327 59.0417V55.6354C324.492 55.6354 322.458 53.602 322.458 51.0938C322.458 48.5855 324.492 46.5521 327 46.5521V43.1458C324.492 43.1458 322.458 41.1125 322.458 38.6042C322.458 36.0959 324.492 34.0625 327 34.0625V30.6563C324.492 30.6563 322.458 28.6229 322.458 26.1146C322.458 23.6063 324.492 21.5729 327 21.5729V18.1667C324.492 18.1667 322.458 16.1333 322.458 13.625C322.458 11.1167 324.492 9.08333 327 9.08333V5.67708C324.492 5.67708 322.458 3.64371 322.458 1.13542C322.458 0.743358 322.508 0.362902 322.602 0Z"
      fill="url(#7d767150-2631-11ec-a746-65090f7e5dbepaint27_linear)"></path>
  </mask>
  <g mask="url(#7d767150-2631-11ec-a746-65090f7e5dbemask2)">
    <path d="M132.18 110.647V-2.39677L230.079 -58.9204L327.979 -2.39677V110.647L230.079 167.168L132.18 110.647Z"
      fill="url(#7d767150-2631-11ec-a746-65090f7e5dbepaint28_linear)"></path>
    <path d="M132.179 223.691V110.647L230.079 54.1235L327.978 110.647V223.691L230.079 280.211L132.179 223.691Z"
      fill="url(#7d767150-2631-11ec-a746-65090f7e5dbepaint29_linear)"></path>
    <path d="M230.079 54.1134V167.157L327.979 223.678L425.878 167.157V54.1134L327.979 -2.41022L230.079 54.1134Z"
      fill="url(#7d767150-2631-11ec-a746-65090f7e5dbepaint30_linear)"></path>
    <path
      d="M250.07 127.611C254.749 127.611 258.241 131.069 258.241 136.853V152.685H231.057L231.057 138.18C231.057 132.392 233.848 128.895 238.539 128.895C239.575 128.926 240.594 129.168 241.533 129.607C242.473 130.046 243.312 130.672 244 131.447C245.255 129.218 247.361 127.611 250.07 127.611ZM242.061 142.4L242.061 141.234C242.061 140.107 241.453 139.184 240.117 139.184C238.782 139.184 238.178 140.107 238.178 141.234V142.4H242.061ZM249.181 137.895C247.846 137.895 247.237 139.222 247.237 140.911V142.4H251.121V140.911C251.121 139.222 250.512 137.895 249.168 137.895H249.181Z"
      fill="url(#7d767150-2631-11ec-a746-65090f7e5dbepaint31_linear)"></path>
    <path
      d="M231.057 98.683H246.591C253.749 98.683 258.887 103.825 258.887 112.183C258.887 120.541 253.749 125.684 246.591 125.684H231.057L231.057 115.399H245.944C249.181 115.399 250.474 114.433 250.474 112.183C250.474 109.933 249.198 108.968 245.944 108.968H231.057L231.057 98.683Z"
      fill="url(#7d767150-2631-11ec-a746-65090f7e5dbepaint32_linear)"></path>
    <path d="M258.241 95.4679H231.057L231.057 85.1832H258.241V95.4679Z"
      fill="url(#7d767150-2631-11ec-a746-65090f7e5dbepaint33_linear)"></path>
    <path d="M250.474 62.6823H258.241V81.3249H231.057L231.057 71.0402L250.474 71.0402V62.6823Z"
      fill="url(#7d767150-2631-11ec-a746-65090f7e5dbepaint34_linear)"></path>
    <path
      d="M244.648 33.1086C252.172 33.1086 258.259 38.251 258.259 47.2937V60.1092L231.075 60.1092L231.075 47.2937C231.058 38.0128 237.123 33.1086 244.648 33.1086ZM244.648 43.3934C241.415 43.3934 238.825 45.5668 238.825 48.2167V49.8245H250.475V48.2167C250.475 45.5668 247.893 43.3933 244.648 43.3934Z"
      fill="url(#7d767150-2631-11ec-a746-65090f7e5dbepaint35_linear)"></path>
    <path d="M262.584 130.826H270.355V137.266H289.771V147.555H270.355V153.982H262.584L262.584 130.826Z"
      fill="url(#7d767150-2631-11ec-a746-65090f7e5dbepaint36_linear)"></path>
    <path
      d="M262.584 101.252H289.771L289.771 111.541L280.061 111.541V117.968L289.771 117.968V128.257L262.584 128.257V117.968H272.294V111.541H262.584V101.252Z"
      fill="url(#7d767150-2631-11ec-a746-65090f7e5dbepaint37_linear)"></path>
    <path
      d="M270.355 87.1101H272.941V80.696H279.414V87.1228H282.005V78.7649H289.771V97.4119L262.584 97.4119V78.7649H270.355V87.1101Z"
      fill="url(#7d767150-2631-11ec-a746-65090f7e5dbepaint38_linear)"></path>
    <path d="M301.881 142.4H304.463V135.969H310.936V142.4H321.289V152.685H294.106V134.042H301.872L301.881 142.4Z"
      fill="url(#7d767150-2631-11ec-a746-65090f7e5dbepaint39_linear)"></path>
    <path
      d="M294.114 105.11H309.648C316.81 105.11 321.948 110.252 321.948 118.61C321.948 126.968 316.81 132.111 309.648 132.111H294.114V121.826H309.001C312.238 121.826 313.531 120.86 313.531 118.61C313.531 116.36 312.255 115.395 309.001 115.395H294.114V105.11Z"
      fill="url(#7d767150-2631-11ec-a746-65090f7e5dbepaint40_linear)"></path>
    <path d="M294.114 80.0411H301.881V86.468L321.298 86.468V96.7527H301.881V103.184H294.114V80.0411Z"
      fill="url(#7d767150-2631-11ec-a746-65090f7e5dbepaint41_linear)"></path>
    <path
      d="M294.114 51.1086H309.648C316.81 51.1086 321.948 56.251 321.948 64.6089C321.948 72.9669 316.81 78.1092 309.648 78.1092H294.114L294.114 67.8245H309.001C312.238 67.8245 313.531 66.859 313.531 64.6089C313.531 62.3589 312.255 61.3933 309.001 61.3933H294.114V51.1086Z"
      fill="url(#7d767150-2631-11ec-a746-65090f7e5dbepaint42_linear)"></path>
    <path
      d="M321.298 20.8927V32.4662L313.531 37.6085H321.298V47.8975H294.114V31.8239C294.114 26.0775 298.563 22.8237 303.825 22.8237C307.585 22.8237 310.902 24.525 312.519 27.5662L321.298 20.8927ZM304.148 33.1084C302.166 33.1084 301.234 34.2739 301.234 35.6818V37.6085H307.062V35.6818C307.062 34.2739 306.164 33.1084 304.148 33.1084Z"
      fill="url(#7d767150-2631-11ec-a746-65090f7e5dbepaint43_linear)"></path>
    <path
      d="M301.881 8.35844H304.463V1.9315L310.936 1.9315V8.35844H313.523V0.000488621L321.289 0.000488281V18.6474L294.106 18.6474V0.000489469L301.872 0.00048913L301.881 8.35844Z"
      fill="url(#7d767150-2631-11ec-a746-65090f7e5dbepaint44_linear)"></path>
  </g>
  <path
    d="M287.97 75.4063C305.759 69.621 315.491 50.5097 309.706 32.72C303.92 14.9304 284.809 5.19896 267.019 10.9843C249.23 16.7696 239.498 35.8808 245.284 53.6705C251.069 71.4601 270.18 81.1916 287.97 75.4063Z"
    fill="url(#7d767150-2631-11ec-a746-65090f7e5dbepaint45_linear)"></path>
  <path
    d="M301.543 32.1248L301.428 32.0229L304.065 30.6812L304.295 31.1157L301.202 32.6919L300.97 32.2578L302.46 28.8995L302.579 29.009L299.945 30.3454L299.711 29.9059L302.804 28.3297L303.038 28.7692L301.543 32.1248Z"
    fill="#FF38A7"></path>
  <path
    d="M305.016 33.3342L302.299 34.2569L302.887 35.9783L302.467 36.1219L301.728 33.9608L304.868 32.8966L305.016 33.3342Z"
    fill="#FF38A7"></path>
  <path
    d="M302.802 37.8314L305.901 36.0528L305.987 36.6044L303.274 38.1296L303.251 37.9739L306.306 38.5994L306.394 39.1612L303.675 40.6391L303.65 40.4838L306.705 41.1583L306.791 41.6994L303.29 40.9092L303.201 40.3367L305.968 38.8619L305.99 39.0088L302.892 38.4035L302.802 37.8314Z"
    fill="#FF38A7"></path>
  <path
    d="M306.413 47.6266L306.361 48.125L303.065 47.7356L303.117 47.2372L306.413 47.6266ZM306.695 44.938L306.642 45.4414L303.351 45.0502L303.405 44.5469L306.695 44.938ZM305.221 45.2221L304.981 47.5094L304.54 47.4574L304.78 45.1701L305.221 45.2221Z"
    fill="#FF38A7"></path>
  <path
    d="M303.967 49.5608L302.92 49.2871L302.28 51.5148L301.81 51.3926L302.601 48.649L306.104 49.5644L305.316 52.3057L304.846 52.1835L305.484 49.9611L304.427 49.6845L303.904 51.5047L303.445 51.384L303.967 49.5608Z"
    fill="#FF38A7"></path>
  <path
    d="M301.808 52.0496L304.272 54.6689L304.068 55.1559L300.552 55.0409L300.76 54.5485L303.918 54.6894L303.842 54.8647L301.603 52.5338L301.808 52.0496ZM302.266 53.0535L302.665 53.2371L301.978 54.8787L301.577 54.6942L302.266 53.0535Z"
    fill="#FF38A7"></path>
  <path
    d="M302.224 57.7428L301.947 58.1799L299.343 56.6915L299.62 56.2531L302.224 57.7428ZM303.247 56.8832L301.625 59.4422L301.236 59.2128L302.856 56.6542L303.247 56.8832Z"
    fill="#FF38A7"></path>
  <path
    d="M298.582 62.5578L298.911 62.8807L298.097 63.7327L295.605 61.3037L295.95 60.9387L298.106 63.0471L298.582 62.5578Z"
    fill="white"></path>
  <path
    d="M294.159 62.7064C294.332 62.5495 294.539 62.4359 294.763 62.3744C294.946 62.3239 295.14 62.3278 295.323 62.3854C295.495 62.4422 295.648 62.5483 295.763 62.6911C295.893 62.8343 295.972 63.0179 295.986 63.2113C295.991 63.3995 295.942 63.5845 295.846 63.7438C295.734 63.9328 295.592 64.1007 295.424 64.2404C295.261 64.3856 295.073 64.5006 294.87 64.5803C294.7 64.6481 294.513 64.6634 294.333 64.6241C294.147 64.5766 293.983 64.4669 293.865 64.3129C293.746 64.1731 293.67 64.0011 293.647 63.8186C293.623 63.6261 293.652 63.4312 293.731 63.256C293.829 63.0408 293.976 62.8526 294.159 62.7064V62.7064ZM294.462 63.071C294.359 63.1545 294.275 63.2597 294.216 63.3797C294.167 63.478 294.149 63.589 294.163 63.6986C294.176 63.8018 294.218 63.8991 294.285 63.9783C294.354 64.0666 294.447 64.1321 294.553 64.1663C294.658 64.2004 294.771 64.2015 294.876 64.1696C295.003 64.1318 295.12 64.0659 295.218 63.9768C295.321 63.8931 295.405 63.7875 295.463 63.6672C295.51 63.5671 295.528 63.4548 295.514 63.3438C295.498 63.2331 295.451 63.1291 295.378 63.0448C295.312 62.9623 295.223 62.9016 295.123 62.8706C295.02 62.8403 294.912 62.8402 294.81 62.8702C294.681 62.9113 294.563 62.9807 294.465 63.0734L294.462 63.071ZM295.346 64.1382C295.5 64.0013 295.675 63.8905 295.864 63.8098C296.017 63.7436 296.186 63.7236 296.351 63.7522C296.516 63.792 296.664 63.8891 296.768 64.0269C296.88 64.1582 296.953 64.3197 296.976 64.4913C296.996 64.6702 296.968 64.8509 296.894 65.0131C296.8 65.2118 296.664 65.386 296.495 65.5229C296.334 65.668 296.143 65.7734 295.935 65.8311C295.766 65.8777 295.586 65.8752 295.417 65.824C295.255 65.7714 295.11 65.6717 295.002 65.5374C294.885 65.4097 294.816 65.2454 294.805 65.0726C294.803 64.9036 294.851 64.7385 294.942 64.5985C295.052 64.4244 295.189 64.2698 295.348 64.1406L295.346 64.1382ZM295.516 64.3432C295.425 64.4169 295.353 64.5109 295.305 64.6179C295.262 64.7089 295.246 64.8104 295.258 64.9111C295.271 65.0079 295.311 65.0991 295.374 65.1734C295.435 65.2504 295.517 65.3067 295.61 65.3348C295.704 65.361 295.803 65.3597 295.896 65.3311C296.006 65.2964 296.108 65.2389 296.195 65.1622C296.284 65.0892 296.356 64.9976 296.407 64.8933C296.451 64.8061 296.469 64.7077 296.459 64.6098C296.447 64.5126 296.407 64.4211 296.343 64.3474C296.281 64.2713 296.199 64.2151 296.107 64.186C296.012 64.1564 295.911 64.1544 295.816 64.1801C295.705 64.2101 295.603 64.2652 295.517 64.3413L295.516 64.3432Z"
    fill="white"></path>
  <path d="M293.502 65.5736L292.136 66.3694L291.927 66.0979L293.288 65.2965L293.502 65.5736Z" fill="white"></path>
  <path
    d="M289.747 66.9045L290.059 66.0277L290.181 66.1433L288.462 67.0277L288.254 66.6164L290.263 65.5815L290.472 65.9943C290.364 66.3394 290.268 66.6326 290.191 66.8809C290.114 67.1292 290.048 67.3413 289.995 67.5151C289.943 67.6888 289.906 67.8339 289.883 67.9499C289.863 68.0462 289.849 68.1439 289.842 68.2424C289.836 68.3098 289.841 68.3777 289.857 68.4436C289.871 68.4997 289.892 68.554 289.919 68.605C289.96 68.689 290.023 68.7599 290.101 68.8094C290.18 68.8586 290.271 68.8829 290.363 68.8791C290.473 68.8737 290.58 68.8432 290.676 68.7899C290.819 68.7203 290.936 68.604 291.006 68.459C291.039 68.3946 291.056 68.3231 291.056 68.2504C291.056 68.1776 291.039 68.1056 291.007 68.0403L291.414 67.8319C291.51 67.978 291.554 68.153 291.537 68.3268C291.517 68.5062 291.451 68.6762 291.344 68.8191C291.224 68.9812 291.069 69.1116 290.889 69.1995C290.752 69.2704 290.604 69.3184 290.451 69.3418C290.319 69.3636 290.183 69.3587 290.052 69.3275C289.93 69.2976 289.815 69.2401 289.717 69.1591C289.611 69.0751 289.525 68.9688 289.464 68.8476C289.4 68.7176 289.366 68.5749 289.364 68.4303C289.361 68.2677 289.379 68.1056 289.417 67.9481C289.457 67.7743 289.506 67.6031 289.564 67.4351C289.621 67.2447 289.684 67.0721 289.747 66.9045Z"
    fill="white"></path>
  <path
    d="M285.746 68.516L285.891 68.9154L285.248 69.1424L285.104 68.7424L285.746 68.516ZM286.547 70.9804L285.418 67.8707L285.956 67.6808L286.907 70.3063L286.749 70.3146L287.53 68.1515L287.684 68.2804L286.257 68.7847L286.111 68.3852L287.908 67.7486L288.054 68.1481L287.083 70.7896L286.547 70.9804Z"
    fill="white"></path>
  <path
    d="M281.035 68.6272C281.36 68.5804 281.693 68.6158 282.006 68.7305C282.291 68.8378 282.543 69.0249 282.733 69.2704C282.927 69.5454 283.052 69.8641 283.098 70.198C283.144 70.5318 283.11 70.8705 282.997 71.1836C282.881 71.4676 282.689 71.7107 282.443 71.8855C282.17 72.0661 281.859 72.1808 281.534 72.2214C281.209 72.262 280.878 72.2275 280.564 72.1203C280.278 72.0135 280.026 71.8255 279.838 71.5785C279.645 71.303 279.521 70.9845 279.474 70.6511C279.428 70.3176 279.462 69.9793 279.572 69.6658C279.688 69.3815 279.88 69.1385 280.126 68.9653C280.397 68.7784 280.708 68.6624 281.035 68.6272V68.6272ZM281.1 69.0994C280.87 69.1227 280.65 69.2025 280.458 69.3321C280.279 69.4549 280.14 69.6293 280.057 69.834C279.968 70.0715 279.944 70.3308 279.987 70.5843C280.013 70.8382 280.107 71.0812 280.257 71.2873C280.393 71.464 280.574 71.5981 280.78 71.6737C281.001 71.7535 281.235 71.7775 281.464 71.7437C281.695 71.719 281.915 71.6381 282.107 71.5078C282.288 71.3852 282.428 71.2103 282.512 71.0045C282.593 70.7648 282.617 70.5074 282.582 70.2537C282.547 70 282.454 69.7572 282.31 69.5455C282.174 69.3671 281.99 69.2327 281.782 69.159C281.561 69.0836 281.327 69.0617 281.099 69.0952L281.1 69.0994Z"
    fill="white"></path>
  <path
    d="M275.375 70.2213L275.269 72.2843L274.728 72.2707L274.838 70.18C274.845 69.9952 274.882 69.812 274.95 69.6376C275.01 69.4933 275.096 69.3601 275.204 69.2445C275.309 69.1339 275.434 69.0436 275.573 68.9788C275.718 68.9091 275.872 68.859 276.031 68.8298C276.205 68.8 276.381 68.7875 276.556 68.7924C276.737 68.7963 276.917 68.818 277.092 68.8572C277.249 68.8918 277.4 68.9472 277.541 69.0217C277.673 69.093 277.788 69.1896 277.879 69.3059C277.974 69.429 278.044 69.568 278.087 69.7163C278.136 69.8936 278.153 70.0781 278.14 70.2625L278.03 72.3532L277.49 72.3396L277.599 70.2755C277.624 70.0617 277.583 69.8471 277.482 69.6585C277.393 69.5168 277.255 69.4099 277.092 69.3554C276.913 69.2951 276.724 69.2629 276.532 69.2598C276.345 69.2533 276.157 69.2761 275.976 69.3273C275.81 69.3769 275.664 69.4788 275.563 69.6167C275.44 69.797 275.374 70.0076 275.375 70.2213V70.2213Z"
    fill="white"></path>
  <path
    d="M273.697 72.0166L270.651 71.5445L270.752 71.111L273.798 71.5831L273.697 72.0166ZM272.523 71.4388L272.004 71.3591L272.663 68.5118L273.183 68.5915L272.523 71.4388Z"
    fill="white"></path>
  <path
    d="M267.966 68.084L268.871 67.7327L268.866 67.8932L267 67.2239L267.182 66.8023L269.365 67.5899L269.183 68.0115L268.294 68.3875C268.046 68.4936 267.835 68.5861 267.664 68.6614C267.492 68.7367 267.353 68.8058 267.251 68.8631C267.158 68.9114 267.069 68.9663 266.985 69.0274C266.928 69.0674 266.878 69.1155 266.837 69.1699C266.803 69.217 266.774 69.2675 266.752 69.3204C266.714 69.4053 266.702 69.4974 266.716 69.5868C266.734 69.6759 266.779 69.757 266.847 69.8196C266.926 69.8962 267.023 69.9543 267.131 69.9895C267.283 70.0485 267.454 70.0562 267.616 70.0113C267.689 69.9934 267.757 69.9593 267.814 69.9117C267.872 69.8641 267.917 69.8046 267.945 69.738L268.385 69.8944C268.337 70.06 268.229 70.2061 268.081 70.3065C267.927 70.4104 267.748 70.4738 267.563 70.4899C267.355 70.5083 267.146 70.4801 266.955 70.4074C266.806 70.3557 266.667 70.2818 266.543 70.1881C266.437 70.105 266.349 70.0028 266.285 69.887C266.226 69.7783 266.193 69.6574 266.189 69.5333C266.186 69.4023 266.212 69.2711 266.267 69.1486C266.326 69.0175 266.415 68.8993 266.526 68.8023C266.652 68.6915 266.791 68.5959 266.941 68.5177C267.101 68.4357 267.269 68.3586 267.446 68.286C267.623 68.2133 267.792 68.148 267.966 68.084Z"
    fill="white"></path>
  <path
    d="M263.453 68.5822C263.203 68.45 263 68.2424 262.872 67.9886C262.756 67.7415 262.711 67.4668 262.742 67.1962C262.78 66.888 262.878 66.5911 263.031 66.3228C263.174 66.0512 263.37 65.812 263.608 65.6193C263.818 65.4489 264.072 65.3427 264.341 65.3131C264.62 65.299 264.898 65.365 265.143 65.5034C265.387 65.6418 265.589 65.8469 265.724 66.0953C265.84 66.3436 265.885 66.6193 265.854 66.891C265.773 67.5094 265.464 68.0722 264.988 68.4664C264.777 68.6357 264.524 68.7412 264.256 68.7708C263.976 68.7948 263.695 68.7288 263.453 68.5822V68.5822ZM264.917 65.9159C264.803 65.8506 264.676 65.8133 264.546 65.8071C264.412 65.8038 264.28 65.8314 264.16 65.8879C264.022 65.9526 263.897 66.0413 263.789 66.1501C263.664 66.2777 263.558 66.4227 263.473 66.5809C263.385 66.7371 263.319 66.9053 263.277 67.0806C263.241 67.2277 263.232 67.3804 263.251 67.5313C263.267 67.664 263.313 67.7913 263.387 67.9029C263.459 68.0128 263.557 68.1035 263.672 68.1675C263.786 68.235 263.916 68.2729 264.048 68.2777C264.18 68.2826 264.312 68.2562 264.432 68.2006C264.57 68.1371 264.696 68.0482 264.802 67.9384C264.927 67.8097 265.033 67.6643 265.118 67.5062C265.206 67.3504 265.271 67.1829 265.313 67.0084C265.348 66.8613 265.356 66.709 265.337 66.5586C265.321 66.4249 265.275 66.2965 265.202 66.1837C265.13 66.0724 265.032 65.9804 264.917 65.9159V65.9159Z"
    fill="white"></path>
  <path
    d="M261.742 64.6687L262.66 64.5808L262.618 64.7411L261.046 63.4977L261.312 63.1241L263.145 64.5711L262.879 64.9448L261.97 65.0619L261.323 65.1528C261.147 65.1797 261.001 65.2064 260.894 65.233C260.801 65.2563 260.71 65.2861 260.621 65.322C260.559 65.3465 260.502 65.3807 260.451 65.4235C260.409 65.4608 260.372 65.5034 260.341 65.5503C260.285 65.6244 260.252 65.7145 260.245 65.8095C260.238 65.9047 260.259 66.0007 260.304 66.0853C260.36 66.1859 260.436 66.2734 260.527 66.3415C260.654 66.45 260.811 66.5114 260.972 66.5155C261.044 66.5188 261.115 66.5042 261.179 66.4731C261.243 66.442 261.299 66.3952 261.341 66.3366L261.712 66.6292C261.627 66.7822 261.493 66.8983 261.333 66.9582C261.166 67.0171 260.986 67.0277 260.812 66.989C260.616 66.9444 260.431 66.8539 260.271 66.7244C260.146 66.6264 260.034 66.5092 259.942 66.377C259.862 66.2611 259.804 66.1312 259.77 65.9941C259.741 65.8658 259.739 65.7332 259.764 65.6055C259.791 65.4702 259.847 65.3434 259.926 65.2338C260.011 65.1185 260.12 65.0252 260.246 64.9607C260.388 64.8864 260.54 64.8317 260.697 64.798C260.864 64.7613 261.038 64.7334 261.219 64.7128C261.4 64.6922 261.566 64.6813 261.742 64.6687Z"
    fill="white"></path>
  <path
    d="M258.675 64.7999L258.356 65.133L257.487 64.3518L259.896 61.8388L260.27 62.173L258.174 64.3547L258.675 64.7999Z"
    fill="white"></path>
  <path d="M256.595 60.8169L255.578 59.5562L255.931 59.287L256.948 60.5462L256.595 60.8169Z" fill="white"></path>
  <path
    d="M253.771 54.1598L253.886 54.2619L251.236 55.5959L251.005 55.1587L254.122 53.59L254.353 54.0271L252.84 57.3851L252.722 57.2749L255.363 55.9455L255.595 56.388L252.481 57.9649L252.249 57.5223L253.771 54.1598Z"
    fill="#FF38A7"></path>
  <path
    d="M250.367 53.1938L253.09 52.2811L252.428 50.3001L252.85 50.1627L253.682 52.6508L250.542 53.7068L250.367 53.1938Z"
    fill="#FF38A7"></path>
  <path
    d="M252.452 48.4953L249.089 50.3382L249.01 49.783L251.953 48.1988L251.975 48.3554L248.733 47.7799L248.654 47.214L251.603 45.6758L251.625 45.8325L248.374 45.2043L248.299 44.6589L252.021 45.3962L252.102 45.9738L249.102 47.5057L249.081 47.3579L252.373 47.9261L252.452 48.4953Z"
    fill="#FF38A7"></path>
  <path
    d="M248.291 41.4419L248.361 40.9338L251.867 41.2672L251.797 41.7753L248.291 41.4419ZM248.668 38.7328L248.737 38.2311L252.243 38.5646L252.175 39.0662L248.668 38.7328ZM249.872 41.1303L250.193 38.8248L250.662 38.8702L250.342 41.1752L249.872 41.1303Z"
    fill="#FF38A7"></path>
  <path
    d="M251.194 36.7653L252.177 37.0635L252.741 34.8704L253.181 35.005L252.488 37.7095L249.198 36.714L249.891 34.0144L250.332 34.1471L249.771 36.3345L250.764 36.6357L251.224 34.8451L251.655 34.9748L251.194 36.7653Z"
    fill="#FF38A7"></path>
  <path
    d="M253.484 34.243L251.032 31.6175L251.239 31.132L254.757 31.2607L254.547 31.7516L251.387 31.5968L251.463 31.4217L253.693 33.7584L253.484 34.243ZM253.031 33.2377L252.633 33.0529L253.331 31.4175L253.731 31.6018L253.031 33.2377Z"
    fill="#FF38A7"></path>
  <path
    d="M252.055 29.3936L253.486 26.9092L253.85 27.1478L252.415 29.6335L252.055 29.3936ZM252.977 28.5718L253.223 28.1484L255.647 29.7027L255.402 30.1274L252.977 28.5718Z"
    fill="#FF38A7"></path>
  <path
    d="M256.404 23.8287L256.076 23.5063L256.902 22.6554L259.385 25.0893L259.027 25.4561L256.879 23.3438L256.404 23.8287Z"
    fill="white"></path>
  <path
    d="M259.958 22.1479C259.804 22.2854 259.629 22.3964 259.439 22.4767C259.285 22.5431 259.116 22.5622 258.951 22.5316C258.785 22.4917 258.638 22.3943 258.534 22.2564C258.422 22.1241 258.35 21.9619 258.327 21.7897C258.308 21.6102 258.338 21.4295 258.414 21.2675C258.513 21.0728 258.649 20.9005 258.814 20.7608C258.979 20.6211 259.171 20.5167 259.378 20.4539C259.548 20.4085 259.727 20.4121 259.896 20.4643C260.057 20.5185 260.199 20.6197 260.304 20.7552C260.42 20.8831 260.488 21.047 260.499 21.2193C260.5 21.389 260.452 21.5545 260.359 21.6947C260.25 21.8662 260.115 22.0191 259.958 22.1479V22.1479ZM261.14 23.5857C260.966 23.7418 260.759 23.8552 260.534 23.9172C260.35 23.9658 260.155 23.9604 259.973 23.9015C259.8 23.8427 259.648 23.7347 259.533 23.5905C259.404 23.4461 259.327 23.2623 259.313 23.0689C259.308 22.8806 259.357 22.6955 259.453 22.5359C259.685 22.1592 260.029 21.8686 260.437 21.7063C260.608 21.6399 260.796 21.6256 260.976 21.6651C261.161 21.7135 261.326 21.8239 261.443 21.9784C261.561 22.1193 261.636 22.2915 261.659 22.474C261.681 22.6668 261.651 22.8615 261.571 23.0365C261.472 23.2518 261.325 23.4399 261.14 23.5857V23.5857ZM259.791 21.9466C259.882 21.8729 259.955 21.7793 260.004 21.6727C260.047 21.5816 260.063 21.4799 260.051 21.3792C260.039 21.2823 259.999 21.1909 259.936 21.1163C259.876 21.0388 259.794 20.9817 259.701 20.9529C259.608 20.9258 259.508 20.927 259.416 20.9562C259.305 20.9899 259.202 21.0472 259.115 21.1244C259.025 21.1965 258.952 21.2874 258.899 21.3911C258.856 21.4786 258.838 21.5769 258.848 21.6749C258.859 21.7721 258.899 21.8639 258.963 21.9379C259.026 22.0152 259.11 22.0714 259.205 22.0989C259.3 22.1282 259.4 22.1308 259.495 22.1067C259.605 22.0749 259.705 22.0187 259.79 21.9423L259.791 21.9466ZM260.833 23.2251C260.938 23.1426 261.023 23.0381 261.083 22.9186C261.131 22.8205 261.149 22.7101 261.136 22.6008C261.124 22.4976 261.082 22.4002 261.015 22.3205C260.946 22.2331 260.854 22.1677 260.749 22.1322C260.643 22.0982 260.531 22.0965 260.425 22.1273C260.297 22.1639 260.18 22.2288 260.081 22.3175C259.977 22.401 259.892 22.5065 259.832 22.6269C259.785 22.7271 259.767 22.8395 259.781 22.9505C259.796 23.0613 259.843 23.1656 259.916 23.2502C259.982 23.3324 260.071 23.3931 260.17 23.4249C260.273 23.4555 260.382 23.4566 260.484 23.4282C260.616 23.3863 260.737 23.3148 260.838 23.219L260.833 23.2251Z"
    fill="white"></path>
  <path d="M261.856 20.8768L263.17 19.9182L263.433 20.3567L262.116 21.3086L261.856 20.8768Z" fill="white"></path>
  <path
    d="M265.559 19.3773L265.236 20.2585L265.115 20.1428L266.848 19.2686L267.054 19.6828L265.031 20.7102L264.824 20.2965C264.935 19.9499 265.032 19.6575 265.111 19.4097C265.191 19.1619 265.257 18.9493 265.31 18.7753C265.363 18.6012 265.402 18.4568 265.425 18.3406C265.447 18.2446 265.461 18.1469 265.468 18.0485C265.474 17.981 265.47 17.9128 265.455 17.8466C265.44 17.79 265.42 17.7352 265.394 17.6831C265.354 17.599 265.291 17.5279 265.213 17.4781C265.134 17.429 265.042 17.4048 264.949 17.4085C264.839 17.4142 264.732 17.4443 264.635 17.4967C264.49 17.5659 264.373 17.6822 264.301 17.8274C264.268 17.8917 264.251 17.9631 264.25 18.0358C264.25 18.1085 264.266 18.1805 264.298 18.2459L263.889 18.4535C263.793 18.3067 263.751 18.1311 263.769 17.9571C263.789 17.7776 263.857 17.6075 263.965 17.4647C264.086 17.3035 264.244 17.1737 264.424 17.0858C264.562 17.0154 264.709 16.9673 264.862 16.9432C264.996 16.9221 265.133 16.9276 265.265 16.9596C265.387 16.9908 265.502 17.0484 265.601 17.1285C265.707 17.2183 265.793 17.3307 265.853 17.4576C265.912 17.5845 265.943 17.7228 265.944 17.8627C265.946 18.0257 265.928 18.1882 265.89 18.3461C265.849 18.5148 265.799 18.6861 265.739 18.861C265.678 19.0359 265.624 19.2104 265.559 19.3773Z"
    fill="white"></path>
  <path
    d="M268.53 15.3822L269.733 18.8188L269.254 18.9877L268.237 16.0869L268.39 16.0863L267.794 18.3744L267.647 18.2239L268.921 17.7738L269.076 18.2148L267.472 18.7842L267.317 18.3427L268.052 15.5604L268.53 15.3822ZM269.394 18.1L269.238 17.659L269.812 17.4561L269.966 17.8976L269.394 18.1Z"
    fill="white"></path>
  <path
    d="M274.364 17.9772C274.039 18.0237 273.705 17.9871 273.393 17.8707C273.109 17.7612 272.858 17.5723 272.669 17.3253C272.477 17.0497 272.353 16.7307 272.308 16.397C272.264 16.0632 272.3 15.7251 272.414 15.4129C272.531 15.1292 272.725 14.8871 272.972 14.7145C273.246 14.5345 273.558 14.4208 273.883 14.3818C274.208 14.3427 274.54 14.3792 274.853 14.4887C275.137 14.5975 275.388 14.7862 275.575 15.0331C275.766 15.3094 275.89 15.6284 275.934 15.962C275.979 16.2956 275.944 16.6336 275.832 16.9464C275.715 17.2305 275.522 17.4728 275.274 17.6448C275.003 17.8303 274.69 17.9443 274.364 17.9772V17.9772ZM274.301 17.5061C274.531 17.4827 274.752 17.4038 274.945 17.2759C275.125 17.1537 275.264 16.9797 275.348 16.775C275.43 16.5359 275.455 16.2787 275.421 16.025C275.387 15.7712 275.295 15.5282 275.152 15.3161C275.017 15.1384 274.836 15.0031 274.631 14.9261C274.411 14.8511 274.178 14.8263 273.95 14.8535C273.722 14.8807 273.504 14.9593 273.31 15.0836C273.13 15.2056 272.988 15.3795 272.903 15.5844C272.82 15.8235 272.795 16.0807 272.829 16.3345C272.862 16.5884 272.954 16.8315 273.097 17.0438C273.233 17.2235 273.417 17.3591 273.625 17.4334C273.843 17.5102 274.074 17.5351 274.301 17.5061V17.5061Z"
    fill="white"></path>
  <path
    d="M279.71 16.1486L279.766 14.1043L280.265 14.1328L280.199 16.2033C280.197 16.386 280.167 16.5662 280.108 16.7367C280.056 16.8789 279.979 17.0091 279.881 17.1206C279.788 17.2275 279.675 17.3133 279.549 17.3727C279.415 17.4361 279.274 17.4791 279.127 17.5004C278.968 17.5259 278.805 17.5335 278.643 17.5232C278.476 17.5138 278.311 17.4871 278.149 17.4434C278.004 17.4049 277.863 17.3463 277.732 17.2691C277.609 17.195 277.501 17.0962 277.414 16.9787C277.325 16.8537 277.257 16.7132 277.216 16.5643C277.167 16.3873 277.146 16.2039 277.155 16.0215L277.213 13.955L277.712 13.9835L277.661 16.0289C277.643 16.24 277.685 16.4538 277.781 16.6439C277.866 16.7876 277.996 16.8978 278.147 16.9557C278.48 17.0815 278.838 17.1032 279.176 17.018C279.328 16.9753 279.461 16.8809 279.553 16.7497C279.663 16.5718 279.717 16.3624 279.71 16.1486V16.1486Z"
    fill="white"></path>
  <path
    d="M282.816 14.9285L283.34 15.0307L282.743 18.0926L282.218 17.9895L282.816 14.9285ZM281.623 14.2665L284.692 14.8617L284.602 15.3276L281.533 14.7325L281.623 14.2665Z"
    fill="white"></path>
  <path
    d="M287.426 18.5098L286.523 18.8563L286.532 18.7031L288.391 19.387L288.209 19.8069L286.041 19.0085L286.223 18.5886L287.11 18.2159C287.359 18.1109 287.568 18.0203 287.739 17.9451C287.88 17.8853 288.017 17.8189 288.152 17.7463C288.244 17.699 288.333 17.6445 288.417 17.5834C288.473 17.5436 288.523 17.4959 288.565 17.442C288.599 17.3949 288.627 17.3443 288.649 17.2912C288.688 17.2067 288.701 17.1144 288.687 17.0249C288.671 16.9354 288.629 16.8531 288.564 16.7883C288.484 16.712 288.387 16.6537 288.281 16.6172C288.128 16.5567 287.957 16.5477 287.795 16.5917C287.723 16.6095 287.655 16.6436 287.598 16.6909C287.541 16.7382 287.496 16.7975 287.467 16.8638L287.029 16.7055C287.077 16.5395 287.185 16.3935 287.334 16.2936C287.488 16.1905 287.666 16.1282 287.851 16.1134C288.059 16.096 288.267 16.1253 288.458 16.1987C288.607 16.2521 288.745 16.3278 288.868 16.4232C288.975 16.5057 289.063 16.6086 289.126 16.7258C289.185 16.835 289.218 16.9563 289.222 17.0809C289.225 17.2128 289.198 17.3447 289.143 17.4676C289.083 17.5983 288.995 17.7158 288.884 17.8118C288.758 17.9229 288.619 18.0187 288.469 18.097C288.311 18.1771 288.142 18.2546 287.965 18.3258C287.787 18.397 287.6 18.4473 287.426 18.5098Z"
    fill="white"></path>
  <path
    d="M291.961 18.0234C292.21 18.1572 292.412 18.3662 292.538 18.6211C292.653 18.8691 292.697 19.1442 292.664 19.4149C292.577 20.0327 292.267 20.5938 291.793 20.9897C291.582 21.1591 291.328 21.2638 291.059 21.2916C290.78 21.3048 290.502 21.2372 290.257 21.0967C290.013 20.9563 289.812 20.7488 289.679 20.4984C289.564 20.2498 289.521 19.9739 289.554 19.7028C289.591 19.3973 289.688 19.1031 289.841 18.8381C289.986 18.5645 290.186 18.3244 290.427 18.1322C290.638 17.9646 290.892 17.8607 291.16 17.8321C291.439 17.809 291.72 17.876 291.961 18.0234V18.0234ZM290.487 20.6847C290.6 20.7512 290.727 20.7892 290.857 20.7958C290.99 20.8006 291.121 20.7741 291.242 20.7184C291.38 20.6545 291.505 20.5661 291.613 20.4575C291.86 20.1986 292.037 19.8792 292.126 19.5297C292.163 19.3824 292.172 19.2292 292.154 19.0779C292.138 18.9449 292.092 18.8173 292.019 18.7051C291.947 18.5939 291.85 18.5021 291.735 18.4381C291.62 18.3709 291.491 18.3324 291.36 18.3256C291.228 18.3208 291.097 18.3464 290.977 18.4006C290.839 18.4637 290.713 18.5522 290.606 18.6616C290.482 18.7898 290.376 18.9349 290.291 19.0928C290.203 19.2479 290.137 19.4149 290.094 19.5889C290.058 19.7364 290.049 19.8894 290.066 20.0407C290.081 20.1742 290.126 20.3027 290.199 20.4157C290.272 20.5274 290.371 20.6196 290.487 20.6847Z"
    fill="white"></path>
  <path
    d="M293.672 21.9354L292.754 22.0181L292.798 21.8566L294.362 23.107L294.094 23.4802L292.259 22.0223L292.526 21.6492L293.437 21.537C293.69 21.504 293.906 21.4753 294.083 21.45C294.259 21.4247 294.405 21.3981 294.511 21.373C294.605 21.3504 294.696 21.3207 294.785 21.284C294.846 21.2604 294.904 21.2272 294.955 21.1854C294.996 21.1471 295.033 21.1046 295.065 21.0585C295.121 20.9842 295.154 20.894 295.161 20.7988C295.168 20.7034 295.148 20.607 295.103 20.5219C295.047 20.4211 294.971 20.3333 294.881 20.2645C294.755 20.1558 294.598 20.094 294.437 20.0891C294.366 20.0856 294.295 20.0998 294.231 20.1307C294.167 20.1615 294.111 20.2081 294.068 20.2666L293.699 19.9711C293.783 19.8179 293.917 19.7024 294.078 19.6447C294.245 19.5854 294.426 19.5753 294.601 19.6154C294.797 19.661 294.982 19.7529 295.142 19.884C295.267 19.9825 295.377 20.1004 295.469 20.2334C295.549 20.3496 295.607 20.4808 295.639 20.6192C295.668 20.7476 295.67 20.8801 295.645 21.0076C295.617 21.1437 295.562 21.271 295.482 21.3804C295.397 21.4968 295.287 21.5904 295.161 21.6542C295.019 21.7275 294.867 21.781 294.711 21.8135C294.544 21.8486 294.37 21.8764 294.188 21.8954C294.007 21.9144 293.849 21.9225 293.672 21.9354Z"
    fill="white"></path>
  <path d="M296.738 21.802L297.057 21.469L297.922 22.2568L295.51 24.7658L295.137 24.4289L297.23 22.2529L296.738 21.802Z"
    fill="white"></path>
  <path d="M298.501 25.8881L299.514 27.1503L299.158 27.4204L298.143 26.1573L298.501 25.8881Z" fill="white"></path>
  <path
    d="M264.853 59.7313L262.455 52.3564L264.442 51.7103L266.84 59.0851L264.853 59.7313ZM270.816 57.7921L270.038 55.4009C269.96 55.1311 269.815 54.8853 269.617 54.6859C269.414 54.505 269.151 54.4046 268.879 54.4035C268.477 54.4021 268.079 54.4721 267.702 54.61C267.379 54.7126 267.075 54.8654 266.8 55.0629C266.553 55.236 266.331 55.4423 266.141 55.6759C265.991 55.8484 265.884 56.0542 265.83 56.2763L265.639 55.7277C265.622 55.506 265.65 55.2831 265.72 55.072C265.813 54.7651 265.953 54.4741 266.134 54.2092C266.357 53.8795 266.634 53.589 266.952 53.3493C267.349 53.0537 267.795 52.8291 268.27 52.6856C268.625 52.5688 268.993 52.4929 269.365 52.4595C269.708 52.4274 270.054 52.4571 270.386 52.5471C270.702 52.6338 270.99 52.7992 271.225 53.0279C271.486 53.2947 271.677 53.6216 271.782 53.9798L272.815 57.1567L270.816 57.7921Z"
    fill="url(#7d767150-2631-11ec-a746-65090f7e5dbepaint46_linear)"></path>
  <path
    d="M279.354 53.0156L281.319 52.3768C281.38 52.7893 281.307 53.2108 281.109 53.5781C280.857 54.0221 280.503 54.3993 280.076 54.6781C279.472 55.0764 278.813 55.3839 278.121 55.5908C277.352 55.8555 276.549 56.0078 275.737 56.0429C275.109 56.0783 274.484 55.9352 273.934 55.6302C273.426 55.3155 273.054 54.822 272.891 54.2467C272.685 53.6855 272.688 53.0688 272.901 52.5101C273.152 51.9376 273.566 51.4518 274.092 51.1134C274.774 50.6603 275.519 50.3092 276.303 50.0712C277.043 49.8068 277.822 49.6683 278.608 49.6615C279.187 49.6573 279.751 49.8489 280.207 50.2052C280.675 50.6243 281.002 51.1778 281.142 51.7898L274.969 53.7975C275.082 54.0159 275.257 54.1957 275.472 54.3136C275.743 54.4564 276.045 54.5285 276.351 54.5233C276.788 54.5173 277.221 54.4394 277.633 54.2929C278.079 54.1613 278.501 53.959 278.882 53.6937C279.177 53.4606 279.335 53.2346 279.354 53.0156ZM276.627 51.3844C276.105 51.5253 275.626 51.79 275.228 52.156C274.931 52.4639 274.783 52.7513 274.785 53.018L278.96 51.6602C278.874 51.526 278.758 51.4131 278.622 51.3301C278.486 51.2471 278.333 51.1961 278.174 51.1811C277.789 51.1064 277.273 51.1741 276.627 51.3844Z"
    fill="url(#7d767150-2631-11ec-a746-65090f7e5dbepaint47_linear)"></path>
  <path
    d="M286.123 52.9547C285.528 53.159 284.898 53.2383 284.271 53.1879C283.72 53.1467 283.191 52.9558 282.742 52.6359C282.299 52.3067 281.975 51.8432 281.817 51.3145C281.629 50.7881 281.616 50.2152 281.781 49.681C281.953 49.1543 282.271 48.6871 282.698 48.3334C283.191 47.9245 283.76 47.6175 284.373 47.43C285.002 47.2051 285.672 47.1196 286.337 47.1793C286.873 47.2315 287.38 47.443 287.794 47.7864C288.19 48.1325 288.482 48.5828 288.636 49.0863C288.754 49.4447 288.795 49.8238 288.757 50.1991C288.718 50.5854 288.595 50.9584 288.397 51.2921C288.169 51.6646 287.871 51.9889 287.519 52.2468C287.097 52.5587 286.625 52.798 286.123 52.9547ZM286.4 51.3854C286.836 51.2487 287.253 51.056 287.64 50.812C287.952 50.6261 288.21 50.3636 288.391 50.0494C288.465 49.9129 288.508 49.7626 288.52 49.6081C288.532 49.4536 288.511 49.2984 288.458 49.1525C288.416 49.0008 288.341 48.8602 288.239 48.7402C288.137 48.6202 288.01 48.5236 287.867 48.4571C287.538 48.3202 287.179 48.2672 286.824 48.3031C286.369 48.3405 285.92 48.4337 285.488 48.5804C284.83 48.7944 284.36 49.0823 284.077 49.4441C283.941 49.6088 283.849 49.8062 283.813 50.0169C283.776 50.2276 283.795 50.4443 283.868 50.6454C283.95 50.9222 284.126 51.1617 284.365 51.3231C284.627 51.487 284.93 51.5732 285.239 51.5718C285.635 51.5777 286.029 51.5142 286.404 51.3841L286.4 51.3854ZM287.601 46.5291L289.588 45.8829L291.295 51.1322L289.435 51.737C289.297 51.4527 289.176 51.1918 289.068 50.9291C288.959 50.6664 288.857 50.3911 288.755 50.078L287.601 46.5291Z"
    fill="url(#7d767150-2631-11ec-a746-65090f7e5dbepaint48_linear)"></path>
  <path
    d="M290.393 45.6212L295.61 43.9246L296.05 45.2778L290.833 46.9744L290.393 45.6212ZM291.514 43.5778L293.501 42.9316L295.699 49.6896L293.712 50.3358L291.514 43.5778Z"
    fill="url(#7d767150-2631-11ec-a746-65090f7e5dbepaint49_linear)"></path>
  <path fill-rule="evenodd" clip-rule="evenodd"
    d="M260.742 43.2711L260.057 41.1653L255.225 45.13L255.212 45.1343L255.914 47.2922L255.927 47.2879L262.167 47.6522L261.482 45.5464L258.271 45.3292L260.742 43.2711Z"
    fill="#8257E5"></path>
  <path fill-rule="evenodd" clip-rule="evenodd"
    d="M292.288 37.7341L291.603 35.6283L294.068 33.5724L290.865 33.3595L290.18 31.2537L296.413 31.6201L296.426 31.6159L297.13 33.7803L297.117 33.7846L292.288 37.7341ZM286.841 29.0523L287.152 41.0769L289.083 40.4489L288.765 28.4265L286.841 29.0523Z"
    fill="#8257E5"></path>
  <path fill-rule="evenodd" clip-rule="evenodd"
    d="M268.06 38.1227C268.813 38.5773 269.376 39.324 269.621 40.1887L271.139 44.8567L269.208 45.4847L267.828 41.2404C267.695 40.7646 267.404 40.3402 267.002 40.0673C266.817 39.9471 266.612 39.8769 266.4 39.8521C266.188 39.8274 265.971 39.8547 265.769 39.9276C264.563 40.3198 264.243 41.3971 264.815 43.1574L265.92 46.5541L263.989 47.182L261.495 39.515L263.426 38.8871L263.651 39.5782C263.852 39.1667 264.136 38.8076 264.481 38.5225C264.825 38.2374 265.224 38.0286 265.652 37.911C266.041 37.7628 266.453 37.7081 266.873 37.7446C267.28 37.7853 267.692 37.9107 268.06 38.1227Z"
    fill="white"></path>
  <path fill-rule="evenodd" clip-rule="evenodd"
    d="M269.118 33.5107L272.684 44.4766L274.615 43.8487L271.049 32.8828L269.118 33.5107Z" fill="white"></path>
  <path fill-rule="evenodd" clip-rule="evenodd"
    d="M284.82 40.0827L283.212 40.6056L280.161 36.6019L280.036 41.6386L278.428 42.1615L273.222 35.3623L275.285 34.6915L278.302 38.7927L278.375 33.6864L279.884 33.1956L282.952 37.2949L282.975 32.1905L285.031 31.5219L284.82 40.0827Z"
    fill="white"></path>
  <path
    d="M287.976 75.4581C305.66 69.7071 315.334 50.7091 309.583 33.0249C303.832 15.3407 284.834 5.66692 267.15 11.4179C249.466 17.1689 239.792 36.1669 245.543 53.8511C251.294 71.5353 270.292 81.2091 287.976 75.4581Z"
    fill="url(#7d767150-2631-11ec-a746-65090f7e5dbepaint50_linear)"></path>
  <path
    d="M301.469 32.4333L301.355 32.332L303.976 30.9982L304.205 31.4302L301.13 32.997L300.9 32.5655L302.381 29.2271L302.499 29.336L299.881 30.6644L299.648 30.2276L302.723 28.6607L302.956 29.0976L301.469 32.4333Z"
    fill="#FF38A7"></path>
  <path
    d="M304.922 33.6356L302.22 34.5527L302.805 36.264L302.387 36.4067L301.653 34.2584L304.774 33.2006L304.922 33.6356Z"
    fill="#FF38A7"></path>
  <path
    d="M302.721 38.106L305.801 36.3379L305.887 36.8863L303.19 38.4024L303.166 38.2476L306.203 38.8694L306.291 39.4279L303.588 40.8971L303.563 40.7427L306.601 41.4132L306.686 41.951L303.205 41.1656L303.117 40.5965L305.867 39.1304L305.89 39.2764L302.81 38.6747L302.721 38.106Z"
    fill="#FF38A7"></path>
  <path
    d="M306.31 47.8431L306.258 48.3386L302.982 47.9515L303.034 47.456L306.31 47.8431ZM306.59 45.1705L306.537 45.6709L303.267 45.2821L303.32 44.7817L306.59 45.1705ZM305.125 45.4529L304.886 47.7267L304.448 47.6749L304.687 45.4012L305.125 45.4529Z"
    fill="#FF38A7"></path>
  <path
    d="M303.878 49.7659L302.838 49.4938L302.202 51.7083L301.735 51.5868L302.521 48.8595L306.003 49.7695L305.22 52.4944L304.752 52.373L305.387 50.1638L304.336 49.8888L303.816 51.6983L303.359 51.5782L303.878 49.7659Z"
    fill="#FF38A7"></path>
  <path
    d="M301.733 52.24L304.182 54.8438L303.979 55.3279L300.484 55.2136L300.69 54.7241L303.83 54.8641L303.755 55.0384L301.529 52.7213L301.733 52.24ZM302.188 53.238L302.585 53.4204L301.901 55.0524L301.503 54.869L302.188 53.238Z"
    fill="#FF38A7"></path>
  <path
    d="M302.146 57.8998L301.87 58.3342L299.282 56.8547L299.558 56.4189L302.146 57.8998ZM303.163 57.0452L301.55 59.5891L301.164 59.361L302.775 56.8176L303.163 57.0452Z"
    fill="#FF38A7"></path>
  <path
    d="M298.526 62.6857L298.853 63.0068L298.043 63.8537L295.566 61.4391L295.91 61.0762L298.052 63.1721L298.526 62.6857Z"
    fill="white"></path>
  <path
    d="M294.129 62.8327C294.3 62.6768 294.506 62.5638 294.729 62.5026C294.911 62.4525 295.104 62.4563 295.285 62.5136C295.457 62.57 295.609 62.6756 295.723 62.8175C295.852 62.9598 295.93 63.1423 295.944 63.3346C295.949 63.5217 295.901 63.7056 295.805 63.864C295.694 64.0519 295.553 64.2188 295.386 64.3576C295.224 64.502 295.037 64.6163 294.835 64.6955C294.666 64.7629 294.48 64.7781 294.301 64.7391C294.117 64.6918 293.953 64.5827 293.837 64.4297C293.718 64.2907 293.643 64.1197 293.619 63.9383C293.595 63.7469 293.624 63.5532 293.703 63.3791C293.801 63.1651 293.946 62.978 294.129 62.8327V62.8327ZM294.43 63.1952C294.327 63.2781 294.244 63.3827 294.185 63.502C294.137 63.5997 294.118 63.71 294.132 63.8191C294.145 63.9216 294.187 64.0183 294.254 64.0971C294.322 64.1849 294.415 64.25 294.52 64.2839C294.624 64.3178 294.736 64.319 294.841 64.2872C294.967 64.2496 295.083 64.1842 295.181 64.0956C295.284 64.0124 295.367 63.9074 295.425 63.7878C295.472 63.6883 295.489 63.5766 295.476 63.4664C295.46 63.3563 295.413 63.2529 295.34 63.1691C295.274 63.087 295.186 63.0267 295.086 62.996C294.984 62.9658 294.877 62.9657 294.775 62.9955C294.647 63.0364 294.53 63.1054 294.432 63.1976L294.43 63.1952ZM295.308 64.256C295.462 64.12 295.636 64.0098 295.824 63.9295C295.975 63.8637 296.143 63.8439 296.307 63.8723C296.472 63.9118 296.619 64.0084 296.722 64.1454C296.834 64.2759 296.905 64.4365 296.928 64.607C296.949 64.7849 296.921 64.9645 296.847 65.1258C296.754 65.3232 296.619 65.4964 296.45 65.6325C296.291 65.7767 296.101 65.8815 295.894 65.9389C295.726 65.9852 295.547 65.9827 295.379 65.9318C295.217 65.8795 295.074 65.7805 294.966 65.6469C294.85 65.52 294.781 65.3566 294.771 65.1849C294.769 65.0169 294.816 64.8528 294.907 64.7136C295.016 64.5405 295.152 64.3868 295.31 64.2584L295.308 64.256ZM295.477 64.4598C295.387 64.5331 295.315 64.6265 295.267 64.7328C295.225 64.8233 295.209 64.9243 295.221 65.0243C295.234 65.1205 295.274 65.2112 295.336 65.2851C295.397 65.3616 295.478 65.4176 295.571 65.4455C295.664 65.4716 295.763 65.4703 295.855 65.4418C295.965 65.4073 296.066 65.3502 296.152 65.2739C296.241 65.2014 296.313 65.1103 296.364 65.0067C296.407 64.92 296.425 64.8222 296.415 64.7248C296.403 64.6282 296.363 64.5373 296.299 64.464C296.238 64.3883 296.157 64.3325 296.065 64.3035C295.971 64.2742 295.87 64.2721 295.775 64.2977C295.665 64.3275 295.564 64.3823 295.478 64.458L295.477 64.4598Z"
    fill="white"></path>
  <path d="M293.475 65.6837L292.117 66.4748L291.909 66.2048L293.262 65.4082L293.475 65.6837Z" fill="white"></path>
  <path
    d="M289.743 67.0067L290.053 66.1351L290.174 66.25L288.466 67.1292L288.259 66.7203L290.256 65.6916L290.464 66.1019C290.356 66.445 290.261 66.7364 290.185 66.9832C290.108 67.23 290.042 67.4409 289.99 67.6137C289.937 67.7864 289.901 67.9306 289.878 68.0459C289.858 68.1416 289.844 68.2388 289.837 68.3367C289.832 68.4036 289.837 68.4712 289.853 68.5367C289.866 68.5925 289.887 68.6464 289.914 68.6971C289.954 68.7806 290.017 68.8511 290.094 68.9003C290.173 68.9492 290.264 68.9734 290.355 68.9696C290.464 68.9642 290.571 68.9339 290.666 68.8809C290.809 68.8118 290.924 68.6961 290.995 68.552C291.027 68.488 291.044 68.4169 291.044 68.3446C291.044 68.2722 291.028 68.2007 290.995 68.1358L291.4 67.9286C291.496 68.0738 291.539 68.2478 291.522 68.4206C291.503 68.5989 291.436 68.7679 291.33 68.91C291.211 69.0711 291.057 69.2007 290.878 69.2881C290.742 69.3585 290.595 69.4063 290.443 69.4296C290.311 69.4512 290.177 69.4464 290.046 69.4153C289.924 69.3857 289.81 69.3284 289.713 69.2479C289.608 69.1645 289.522 69.0588 289.461 68.9383C289.398 68.8091 289.364 68.6672 289.363 68.5235C289.359 68.3618 289.377 68.2007 289.415 68.0441C289.454 67.8714 289.503 67.7011 289.561 67.5342C289.617 67.3449 289.681 67.1733 289.743 67.0067Z"
    fill="white"></path>
  <path
    d="M285.765 68.6083L285.91 69.0054L285.271 69.231L285.128 68.8334L285.765 68.6083ZM286.562 71.0581L285.439 67.9669L285.974 67.7781L286.92 70.388L286.762 70.3963L287.539 68.246L287.692 68.3741L286.273 68.8754L286.128 68.4783L287.915 67.8455L288.06 68.2426L287.095 70.8685L286.562 71.0581Z"
    fill="white"></path>
  <path
    d="M281.082 68.7188C281.406 68.6722 281.737 68.7075 282.047 68.8215C282.331 68.9282 282.582 69.1141 282.771 69.3582C282.963 69.6315 283.088 69.9483 283.134 70.2802C283.179 70.6121 283.145 70.9488 283.033 71.26C282.917 71.5423 282.727 71.784 282.483 71.9578C282.21 72.1373 281.902 72.2513 281.578 72.2917C281.255 72.3321 280.926 72.2977 280.614 72.1912C280.33 72.085 280.08 71.8982 279.892 71.6526C279.701 71.3787 279.577 71.0621 279.531 70.7306C279.485 70.3992 279.518 70.0629 279.628 69.7513C279.743 69.4686 279.934 69.2271 280.179 69.0549C280.448 68.8691 280.758 68.7538 281.082 68.7188V68.7188ZM281.147 69.1882C280.918 69.2114 280.699 69.2907 280.508 69.4195C280.331 69.5416 280.192 69.7149 280.11 69.9185C280.022 70.1545 279.997 70.4123 280.04 70.6643C280.067 70.9166 280.16 71.1583 280.309 71.3631C280.444 71.5388 280.625 71.672 280.829 71.7472C281.048 71.8266 281.282 71.8505 281.509 71.8168C281.738 71.7922 281.957 71.7119 282.148 71.5823C282.328 71.4604 282.468 71.2866 282.551 71.082C282.631 70.8437 282.655 70.5878 282.62 70.3356C282.585 70.0835 282.493 69.8421 282.35 69.6316C282.214 69.4543 282.032 69.3207 281.825 69.2474C281.605 69.1724 281.373 69.1507 281.146 69.184L281.147 69.1882Z"
    fill="white"></path>
  <path
    d="M275.456 70.3036L275.35 72.3544L274.813 72.3409L274.922 70.2625C274.929 70.0788 274.966 69.8967 275.034 69.7234C275.093 69.5799 275.179 69.4475 275.286 69.3326C275.39 69.2226 275.514 69.1329 275.653 69.0685C275.797 68.9992 275.951 68.9493 276.108 68.9203C276.281 68.8908 276.456 68.8783 276.63 68.8832C276.81 68.8871 276.989 68.9086 277.163 68.9476C277.319 68.982 277.469 69.037 277.609 69.1111C277.74 69.182 277.855 69.2781 277.945 69.3936C278.039 69.516 278.109 69.6542 278.152 69.8016C278.2 69.9779 278.218 70.1613 278.205 70.3445L278.095 72.4229L277.558 72.4093L277.667 70.3575C277.692 70.145 277.651 69.9316 277.551 69.7441C277.462 69.6033 277.325 69.497 277.163 69.4428C276.985 69.3829 276.797 69.3509 276.606 69.3478C276.42 69.3414 276.233 69.364 276.053 69.4149C275.888 69.4642 275.744 69.5656 275.643 69.7026C275.521 69.8819 275.455 70.0911 275.456 70.3036V70.3036Z"
    fill="white"></path>
  <path
    d="M273.788 72.0884L270.76 71.6191L270.86 71.1883L273.888 71.6576L273.788 72.0884ZM272.621 71.5141L272.105 71.4349L272.76 68.6044L273.277 68.6836L272.621 71.5141Z"
    fill="white"></path>
  <path
    d="M268.09 68.1788L268.99 67.8297L268.985 67.9892L267.13 67.3238L267.311 66.9047L269.482 67.6877L269.301 68.1068L268.417 68.4806C268.171 68.586 267.961 68.678 267.79 68.7529C267.62 68.8277 267.482 68.8964 267.38 68.9534C267.288 69.0014 267.199 69.0559 267.116 69.1166C267.059 69.1564 267.009 69.2042 266.968 69.2584C266.934 69.3051 266.906 69.3553 266.884 69.4079C266.847 69.4923 266.834 69.5839 266.848 69.6727C266.866 69.7614 266.911 69.8419 266.979 69.9041C267.057 69.9803 267.153 70.0381 267.26 70.0731C267.412 70.1317 267.582 70.1394 267.743 70.0947C267.816 70.077 267.883 70.043 267.94 69.9957C267.997 69.9484 268.042 69.8892 268.07 69.8231L268.508 69.9786C268.46 70.1432 268.352 70.2884 268.205 70.3882C268.052 70.4915 267.874 70.5545 267.69 70.5705C267.483 70.5888 267.276 70.5607 267.086 70.4885C266.937 70.4371 266.799 70.3636 266.676 70.2705C266.571 70.1879 266.484 70.0863 266.42 69.9712C266.361 69.8631 266.328 69.743 266.325 69.6195C266.321 69.4893 266.347 69.3589 266.402 69.2372C266.461 69.1068 266.549 68.9893 266.659 68.8929C266.784 68.7828 266.923 68.6877 267.071 68.61C267.23 68.5285 267.397 68.4518 267.574 68.3796C267.75 68.3074 267.918 68.2425 268.09 68.1788Z"
    fill="white"></path>
  <path
    d="M263.604 68.6737C263.356 68.5423 263.154 68.3359 263.027 68.0837C262.912 67.838 262.867 67.5649 262.898 67.2959C262.935 66.9896 263.033 66.6944 263.185 66.4277C263.327 66.1577 263.522 65.9199 263.758 65.7284C263.967 65.559 264.22 65.4534 264.487 65.424C264.765 65.41 265.041 65.4755 265.284 65.6131C265.528 65.7507 265.728 65.9546 265.863 66.2015C265.978 66.4484 266.022 66.7224 265.991 66.9925C265.911 67.6072 265.603 68.1667 265.13 68.5586C264.921 68.7269 264.669 68.8318 264.402 68.8612C264.124 68.885 263.845 68.8194 263.604 68.6737V68.6737ZM265.06 66.0232C264.947 65.9582 264.82 65.9212 264.691 65.9151C264.558 65.9117 264.427 65.9392 264.307 65.9953C264.17 66.0596 264.045 66.1479 263.939 66.256C263.815 66.3828 263.709 66.527 263.625 66.6843C263.537 66.8396 263.471 67.0068 263.43 67.181C263.394 67.3272 263.385 67.4791 263.403 67.629C263.419 67.7609 263.466 67.8874 263.539 67.9984C263.611 68.1076 263.708 68.1979 263.822 68.2614C263.936 68.3286 264.065 68.3662 264.196 68.371C264.328 68.3759 264.458 68.3497 264.578 68.2944C264.715 68.2312 264.84 68.1429 264.946 68.0337C265.07 67.9058 265.175 67.7612 265.26 67.6041C265.347 67.4492 265.412 67.2827 265.454 67.1092C265.488 66.963 265.496 66.8115 265.477 66.662C265.462 66.5292 265.416 66.4016 265.343 66.2894C265.271 66.1787 265.174 66.0873 265.06 66.0232V66.0232Z"
    fill="white"></path>
  <path
    d="M261.904 64.784L262.816 64.6966L262.774 64.856L261.212 63.6199L261.477 63.2485L263.299 64.687L263.034 65.0584L262.13 65.1749L261.487 65.2652C261.312 65.2919 261.167 65.3185 261.061 65.3449C260.968 65.3681 260.878 65.3977 260.789 65.4334C260.728 65.4578 260.671 65.4918 260.62 65.5343C260.579 65.5714 260.542 65.6137 260.511 65.6603C260.455 65.734 260.422 65.8236 260.415 65.9181C260.409 66.0127 260.429 66.1081 260.474 66.1922C260.53 66.2922 260.606 66.3791 260.696 66.4468C260.822 66.5547 260.978 66.6158 261.139 66.6199C261.21 66.6231 261.28 66.6087 261.344 66.5777C261.408 66.5468 261.463 66.5003 261.505 66.442L261.874 66.7328C261.789 66.8849 261.656 67.0004 261.497 67.0599C261.331 67.1184 261.152 67.129 260.979 67.0905C260.784 67.0462 260.6 66.9563 260.442 66.8275C260.317 66.73 260.206 66.6136 260.114 66.4822C260.035 66.3669 259.977 66.2378 259.944 66.1015C259.915 65.974 259.912 65.8422 259.937 65.7153C259.965 65.5807 260.02 65.4547 260.098 65.3457C260.183 65.2311 260.292 65.1384 260.416 65.0742C260.558 65.0004 260.709 64.946 260.865 64.9125C261.031 64.876 261.204 64.8483 261.384 64.8278C261.564 64.8073 261.729 64.7965 261.904 64.784Z"
    fill="white"></path>
  <path
    d="M258.855 64.9144L258.538 65.2456L257.674 64.469L260.069 61.9708L260.441 62.3031L258.357 64.4719L258.855 64.9144Z"
    fill="white"></path>
  <path d="M256.788 60.9551L255.776 59.7019L256.127 59.4343L257.138 60.686L256.788 60.9551Z" fill="white"></path>
  <path
    d="M253.98 54.3371L254.095 54.4386L251.46 55.7647L251.231 55.3301L254.329 53.7706L254.558 54.2052L253.055 57.5432L252.938 57.4337L255.563 56.1122L255.794 56.5521L252.698 58.1196L252.467 57.6797L253.98 54.3371Z"
    fill="#FF38A7"></path>
  <path
    d="M250.596 53.3767L253.303 52.4694L252.645 50.5002L253.065 50.3636L253.891 52.8369L250.77 53.8867L250.596 53.3767Z"
    fill="#FF38A7"></path>
  <path
    d="M252.669 48.7063L249.325 50.5383L249.247 49.9864L252.173 48.4116L252.195 48.5673L248.972 47.9952L248.894 47.4326L251.825 45.9036L251.846 46.0593L248.615 45.4349L248.54 44.8927L252.24 45.6256L252.321 46.1998L249.338 47.7226L249.318 47.5757L252.591 48.1405L252.669 48.7063Z"
    fill="#FF38A7"></path>
  <path
    d="M248.532 41.6945L248.602 41.1894L252.088 41.5209L252.018 42.0259L248.532 41.6945ZM248.907 39.0014L248.976 38.5028L252.462 38.8342L252.393 39.3329L248.907 39.0014ZM250.104 41.3847L250.423 39.093L250.89 39.1381L250.572 41.4294L250.104 41.3847Z"
    fill="#FF38A7"></path>
  <path
    d="M251.418 37.0457L252.395 37.3421L252.956 35.1621L253.394 35.2959L252.704 37.9843L249.434 36.9947L250.123 34.311L250.561 34.443L250.003 36.6174L250.99 36.9169L251.448 35.1369L251.876 35.2658L251.418 37.0457Z"
    fill="#FF38A7"></path>
  <path
    d="M253.695 34.5382L251.257 31.9283L251.463 31.4456L254.96 31.5735L254.752 32.0616L251.61 31.9077L251.686 31.7336L253.902 34.0564L253.695 34.5382ZM253.245 33.5388L252.849 33.3551L253.543 31.7294L253.94 31.9127L253.245 33.5388Z"
    fill="#FF38A7"></path>
  <path
    d="M252.274 29.7177L253.697 27.248L254.059 27.4853L252.632 29.9562L252.274 29.7177ZM253.19 28.9008L253.435 28.4799L255.845 30.025L255.601 30.4472L253.19 28.9008Z"
    fill="#FF38A7"></path>
  <path
    d="M256.598 24.186L256.272 23.8655L257.092 23.0196L259.561 25.4391L259.205 25.8038L257.07 23.7039L256.598 24.186Z"
    fill="white"></path>
  <path
    d="M260.131 22.515C259.977 22.6516 259.803 22.762 259.614 22.8419C259.462 22.9078 259.293 22.9268 259.129 22.8964C258.964 22.8567 258.818 22.7599 258.715 22.6228C258.603 22.4913 258.532 22.3301 258.509 22.1589C258.49 21.9805 258.52 21.8008 258.596 21.6398C258.694 21.4463 258.829 21.275 258.993 21.1361C259.158 20.9972 259.348 20.8935 259.554 20.8311C259.723 20.7859 259.901 20.7895 260.069 20.8413C260.229 20.8952 260.37 20.9958 260.475 21.1305C260.589 21.2577 260.658 21.4207 260.668 21.5919C260.669 21.7605 260.621 21.9251 260.529 22.0645C260.42 22.235 260.286 22.387 260.131 22.515V22.515ZM261.306 23.9443C261.132 24.0994 260.926 24.2121 260.703 24.2738C260.52 24.3221 260.326 24.3167 260.145 24.2582C259.974 24.1998 259.822 24.0924 259.708 23.949C259.58 23.8055 259.503 23.6228 259.49 23.4306C259.484 23.2434 259.533 23.0593 259.629 22.9007C259.859 22.5262 260.201 22.2374 260.606 22.076C260.777 22.01 260.963 21.9958 261.142 22.0351C261.327 22.0832 261.49 22.1929 261.607 22.3465C261.723 22.4866 261.798 22.6578 261.821 22.8391C261.844 23.0308 261.813 23.2243 261.734 23.3983C261.635 23.6123 261.489 23.7994 261.306 23.9443V23.9443ZM259.965 22.3149C260.055 22.2416 260.127 22.1486 260.176 22.0426C260.219 21.952 260.235 21.851 260.223 21.7509C260.211 21.6545 260.171 21.5636 260.109 21.4895C260.049 21.4124 259.967 21.3557 259.875 21.327C259.782 21.3001 259.683 21.3013 259.591 21.3304C259.481 21.3638 259.379 21.4208 259.292 21.4975C259.203 21.5692 259.13 21.6596 259.078 21.7627C259.035 21.8497 259.017 21.9474 259.027 22.0448C259.038 22.1414 259.078 22.2326 259.141 22.3062C259.204 22.3831 259.288 22.4389 259.382 22.4663C259.476 22.4954 259.576 22.498 259.671 22.474C259.779 22.4424 259.879 22.3865 259.963 22.3106L259.965 22.3149ZM261.001 23.5858C261.104 23.5038 261.189 23.3999 261.249 23.2811C261.296 23.1836 261.315 23.0739 261.302 22.9652C261.289 22.8627 261.247 22.7658 261.182 22.6865C261.113 22.5997 261.021 22.5347 260.917 22.4994C260.812 22.4656 260.7 22.4639 260.594 22.4945C260.468 22.5308 260.351 22.5954 260.253 22.6836C260.149 22.7666 260.065 22.8715 260.005 22.9911C259.958 23.0907 259.94 23.2025 259.954 23.3128C259.97 23.423 260.016 23.5266 260.089 23.6108C260.154 23.6924 260.242 23.7528 260.341 23.7844C260.443 23.8148 260.552 23.816 260.654 23.7877C260.785 23.7461 260.905 23.675 261.005 23.5797L261.001 23.5858Z"
    fill="white"></path>
  <path d="M262.017 21.2519L263.324 20.299L263.585 20.7349L262.276 21.6812L262.017 21.2519Z" fill="white"></path>
  <path
    d="M265.698 19.7609L265.377 20.6369L265.257 20.5218L266.98 19.6529L267.185 20.0645L265.174 21.0859L264.967 20.6747C265.078 20.33 265.174 20.0395 265.253 19.7931C265.332 19.5468 265.398 19.3355 265.451 19.1624C265.504 18.9894 265.542 18.8458 265.565 18.7303C265.587 18.6349 265.601 18.5378 265.608 18.44C265.614 18.3728 265.609 18.3051 265.594 18.2392C265.58 18.183 265.56 18.1285 265.534 18.0768C265.494 17.9931 265.432 17.9224 265.354 17.8729C265.275 17.8242 265.184 17.8001 265.092 17.8038C264.983 17.8094 264.876 17.8393 264.78 17.8914C264.636 17.9602 264.519 18.0759 264.448 18.2202C264.415 18.2841 264.398 18.3551 264.397 18.4273C264.397 18.4996 264.413 18.5711 264.445 18.6362L264.038 18.8426C263.943 18.6966 263.901 18.5221 263.918 18.3491C263.939 18.1706 264.006 18.0016 264.114 17.8597C264.234 17.6993 264.391 17.5703 264.57 17.4829C264.707 17.413 264.854 17.3652 265.006 17.3413C265.139 17.3202 265.275 17.3257 265.406 17.3576C265.528 17.3886 265.641 17.4458 265.739 17.5254C265.845 17.6147 265.931 17.7264 265.99 17.8525C266.049 17.9787 266.08 18.1161 266.081 18.2552C266.083 18.4173 266.065 18.5788 266.027 18.7358C265.986 18.9035 265.937 19.0737 265.877 19.2476C265.817 19.4215 265.763 19.595 265.698 19.7609Z"
    fill="white"></path>
  <path
    d="M268.651 15.7893L269.847 19.2056L269.371 19.3735L268.361 16.4898L268.512 16.4893L267.92 18.7638L267.774 18.6142L269.04 18.1667L269.194 18.6051L267.599 19.1711L267.446 18.7323L268.177 15.9664L268.651 15.7893ZM269.51 18.491L269.355 18.0526L269.926 17.8509L270.079 18.2898L269.51 18.491Z"
    fill="white"></path>
  <path
    d="M274.451 18.3688C274.127 18.415 273.796 18.3786 273.486 18.2629C273.203 18.1541 272.953 17.9663 272.766 17.7207C272.575 17.4468 272.452 17.1297 272.407 16.7979C272.363 16.4662 272.399 16.13 272.513 15.8197C272.629 15.5376 272.822 15.297 273.067 15.1255C273.34 14.9465 273.649 14.8335 273.973 14.7947C274.296 14.7558 274.626 14.7921 274.937 14.901C275.22 15.0092 275.469 15.1967 275.655 15.4421C275.845 15.7168 275.968 16.0339 276.012 16.3655C276.057 16.6971 276.022 17.0332 275.91 17.3442C275.794 17.6266 275.602 17.8674 275.356 18.0384C275.086 18.2227 274.776 18.3361 274.451 18.3688V18.3688ZM274.388 17.9005C274.617 17.8772 274.837 17.7988 275.029 17.6716C275.207 17.5502 275.346 17.3772 275.429 17.1737C275.511 16.936 275.536 16.6804 275.502 16.4281C275.468 16.1759 275.377 15.9343 275.235 15.7235C275.1 15.5468 274.92 15.4123 274.716 15.3358C274.497 15.2612 274.267 15.2366 274.04 15.2636C273.813 15.2907 273.596 15.3688 273.403 15.4924C273.224 15.6136 273.083 15.7865 272.999 15.9902C272.916 16.2279 272.891 16.4835 272.925 16.7359C272.958 16.9882 273.05 17.2299 273.192 17.4409C273.327 17.6196 273.509 17.7543 273.716 17.8282C273.933 17.9046 274.163 17.9293 274.388 17.9005V17.9005Z"
    fill="white"></path>
  <path
    d="M279.765 16.5516L279.821 14.5194L280.317 14.5477L280.251 16.606C280.25 16.7876 280.219 16.9668 280.161 17.1363C280.109 17.2776 280.033 17.407 279.935 17.5178C279.843 17.6241 279.731 17.7094 279.605 17.7685C279.472 17.8315 279.331 17.8742 279.186 17.8954C279.027 17.9208 278.865 17.9284 278.704 17.9181C278.539 17.9088 278.375 17.8822 278.214 17.8387C278.069 17.8005 277.929 17.7422 277.799 17.6655C277.676 17.5918 277.569 17.4936 277.483 17.3769C277.394 17.2525 277.327 17.1129 277.286 16.9649C277.237 16.7889 277.217 16.6066 277.225 16.4253L277.283 14.371L277.779 14.3993L277.729 16.4326C277.71 16.6425 277.752 16.8551 277.848 17.044C277.932 17.1869 278.061 17.2964 278.212 17.354C278.542 17.479 278.898 17.5005 279.234 17.4159C279.385 17.3734 279.517 17.2796 279.609 17.1492C279.718 16.9723 279.772 16.7642 279.765 16.5516V16.5516Z"
    fill="white"></path>
  <path
    d="M282.853 15.3383L283.373 15.4398L282.78 18.4836L282.258 18.3811L282.853 15.3383ZM281.667 14.6802L284.718 15.2718L284.628 15.735L281.577 15.1434L281.667 14.6802Z"
    fill="white"></path>
  <path
    d="M287.436 18.8987L286.538 19.2432L286.547 19.0908L288.395 19.7707L288.214 20.1881L286.059 19.3944L286.239 18.977L287.121 18.6065C287.369 18.5021 287.576 18.4121 287.747 18.3373C287.886 18.2778 288.023 18.2119 288.157 18.1397C288.249 18.0927 288.337 18.0385 288.42 17.9777C288.476 17.9381 288.526 17.8907 288.567 17.8372C288.601 17.7903 288.63 17.74 288.652 17.6873C288.69 17.6033 288.703 17.5116 288.689 17.4226C288.673 17.3336 288.631 17.2518 288.566 17.1873C288.487 17.1115 288.391 17.0535 288.285 17.0173C288.134 16.9571 287.964 16.9482 287.802 16.9919C287.73 17.0097 287.663 17.0435 287.606 17.0905C287.55 17.1376 287.505 17.1965 287.476 17.2624L287.041 17.1051C287.089 16.9401 287.196 16.7949 287.344 16.6956C287.497 16.5931 287.674 16.5312 287.858 16.5164C288.065 16.4992 288.271 16.5283 288.461 16.6013C288.609 16.6543 288.747 16.7296 288.869 16.8244C288.975 16.9064 289.062 17.0088 289.125 17.1253C289.184 17.2338 289.217 17.3544 289.221 17.4782C289.223 17.6094 289.196 17.7405 289.142 17.8626C289.083 17.9925 288.995 18.1094 288.885 18.2048C288.76 18.3152 288.621 18.4105 288.473 18.4883C288.315 18.568 288.147 18.645 287.971 18.7157C287.795 18.7865 287.609 18.8366 287.436 18.8987Z"
    fill="white"></path>
  <path
    d="M291.944 18.4154C292.192 18.5483 292.392 18.7561 292.518 19.0095C292.632 19.256 292.675 19.5296 292.643 19.7986C292.557 20.4128 292.248 20.9706 291.777 21.364C291.567 21.5325 291.314 21.6366 291.047 21.6642C290.77 21.6773 290.493 21.6101 290.25 21.4705C290.007 21.3309 289.808 21.1246 289.675 20.8757C289.561 20.6286 289.518 20.3543 289.551 20.0848C289.587 19.7811 289.684 19.4887 289.836 19.2252C289.981 18.9533 290.179 18.7146 290.418 18.5235C290.629 18.3569 290.881 18.2536 291.147 18.2252C291.425 18.2022 291.704 18.2688 291.944 18.4154V18.4154ZM290.478 21.0609C290.591 21.1269 290.717 21.1648 290.846 21.1713C290.978 21.1761 291.109 21.1498 291.229 21.0944C291.366 21.0308 291.491 20.943 291.597 20.835C291.843 20.5777 292.019 20.2601 292.108 19.9127C292.145 19.7663 292.154 19.614 292.136 19.4636C292.12 19.3314 292.074 19.2045 292.002 19.0931C291.93 18.9825 291.833 18.8912 291.719 18.8276C291.605 18.7608 291.477 18.7225 291.346 18.7157C291.215 18.711 291.085 18.7365 290.966 18.7903C290.828 18.8531 290.703 18.941 290.597 19.0498C290.474 19.1772 290.368 19.3215 290.284 19.4784C290.196 19.6326 290.13 19.7986 290.088 19.9716C290.052 20.1182 290.043 20.2703 290.06 20.4207C290.075 20.5534 290.12 20.6811 290.192 20.7935C290.265 20.9045 290.363 20.9962 290.478 21.0609Z"
    fill="white"></path>
  <path
    d="M293.644 22.3037L292.732 22.386L292.776 22.2255L294.33 23.4685L294.064 23.8394L292.24 22.3902L292.506 22.0192L293.41 21.9078C293.663 21.875 293.877 21.8464 294.053 21.8213C294.228 21.7961 294.373 21.7697 294.479 21.7447C294.572 21.7222 294.662 21.6927 294.751 21.6563C294.812 21.6328 294.869 21.5997 294.92 21.5582C294.961 21.5201 294.997 21.4779 295.03 21.432C295.085 21.3582 295.118 21.2686 295.125 21.1739C295.132 21.079 295.111 20.9832 295.067 20.8987C295.011 20.7984 294.936 20.7111 294.847 20.6428C294.721 20.5348 294.565 20.4733 294.405 20.4685C294.334 20.4649 294.264 20.4791 294.2 20.5097C294.136 20.5404 294.081 20.5867 294.038 20.6449L293.671 20.3512C293.755 20.1988 293.888 20.084 294.048 20.0267C294.214 19.9677 294.393 19.9577 294.568 19.9976C294.763 20.0428 294.947 20.1342 295.105 20.2645C295.23 20.3625 295.339 20.4797 295.43 20.6119C295.51 20.7274 295.568 20.8578 295.6 20.9953C295.629 21.1231 295.63 21.2548 295.605 21.3815C295.578 21.5168 295.523 21.6433 295.443 21.7521C295.359 21.8677 295.25 21.9608 295.124 22.0243C294.983 22.0971 294.833 22.1503 294.677 22.1826C294.511 22.2175 294.338 22.2451 294.158 22.264C293.977 22.2829 293.821 22.2909 293.644 22.3037Z"
    fill="white"></path>
  <path
    d="M296.692 22.1713L297.009 21.8403L297.87 22.6234L295.471 25.1174L295.1 24.7826L297.181 22.6195L296.692 22.1713Z"
    fill="white"></path>
  <path d="M298.445 26.2336L299.452 27.4883L299.098 27.7568L298.089 26.5012L298.445 26.2336Z" fill="white"></path>
  <path fill-rule="evenodd" clip-rule="evenodd"
    d="M261.62 43.0252L260.968 41.0214L256.37 44.7942L256.358 44.7983L257.026 46.8516L257.038 46.8476L262.975 47.194L262.324 45.1903L259.268 44.9836L261.62 43.0252Z"
    fill="#8257E5"></path>
  <path fill-rule="evenodd" clip-rule="evenodd"
    d="M291.637 37.7556L290.985 35.7518L293.331 33.7954L290.283 33.593L289.631 31.5892L295.562 31.9377L295.575 31.9336L296.245 33.9932L296.232 33.9973L291.637 37.7556ZM286.454 29.4945L286.75 40.9365L288.587 40.339L288.285 28.899L286.454 29.4945Z"
    fill="#8257E5"></path>
  <path fill-rule="evenodd" clip-rule="evenodd"
    d="M268.583 38.1261C269.299 38.5585 269.835 39.2691 270.068 40.0919L271.513 44.5337L269.675 45.1313L268.362 41.0927C268.235 40.64 267.958 40.2361 267.576 39.9764C267.4 39.8621 267.205 39.7952 267.003 39.7717C266.801 39.7482 266.595 39.7741 266.402 39.8436C265.255 40.2168 264.95 41.2419 265.495 42.9169L266.546 46.149L264.709 46.7465L262.336 39.4511L264.174 38.8535L264.387 39.5111C264.579 39.1195 264.849 38.7778 265.177 38.5066C265.505 38.2353 265.884 38.0365 266.291 37.9246C266.662 37.7836 267.054 37.7316 267.453 37.7662C267.84 37.805 268.233 37.9243 268.583 38.1261Z"
    fill="white"></path>
  <path fill-rule="evenodd" clip-rule="evenodd"
    d="M269.589 33.7378L272.983 44.1723L274.82 43.5747L271.427 33.1402L269.589 33.7378Z" fill="white"></path>
  <path fill-rule="evenodd" clip-rule="evenodd"
    d="M284.531 39.9909L283.001 40.4885L280.098 36.6789L279.979 41.4715L278.449 41.9692L273.495 35.4995L275.457 34.8612L278.328 38.7636L278.398 33.9047L279.834 33.4376L282.753 37.3382L282.775 32.4811L284.732 31.8448L284.531 39.9909Z"
    fill="white"></path>
  <path
    d="M272.848 53.2152L274.247 57.5161L272.377 58.1242L271.107 54.2192C270.785 53.2288 270.002 52.7464 269.138 53.0274C268.076 53.3726 267.612 54.3068 268.174 56.0348L269.192 59.1656L267.323 59.7736L263.973 49.4736L265.843 48.8656L267.101 52.7345C267.474 52.0032 268.114 51.4665 269.049 51.1625C270.747 50.6099 272.277 51.4595 272.848 53.2152Z"
    fill="url(#7d767150-2631-11ec-a746-65090f7e5dbepaint51_linear)"></path>
  <path
    d="M281.166 51.9198L275.784 53.6703C276.299 54.6302 277.226 55.0198 278.09 54.7388C278.641 54.5594 279.313 54.2627 279.541 53.233L281.327 53.0424C281.184 54.7185 280.153 55.8371 278.61 56.339C276.613 56.9886 274.49 56.0006 273.767 53.7793C273.045 51.558 274.176 49.4963 276.201 48.8376C278.085 48.225 280.188 49.1536 280.959 51.2835L281.166 51.9198ZM275.412 52.3337L278.827 51.2229C278.293 50.3954 277.483 50.2195 276.733 50.4635C276.022 50.6947 275.353 51.3822 275.412 52.3337Z"
    fill="url(#7d767150-2631-11ec-a746-65090f7e5dbepaint52_linear)"></path>
  <path
    d="M289.847 52.2129C289.57 52.5187 289.218 52.7465 288.826 52.8738C288.131 53.0997 287.543 53.0251 287.08 52.517C286.764 53.231 286.129 53.8923 285.014 54.2547C283.513 54.7431 282.221 54.1923 281.793 52.8742C281.364 51.5561 282.08 50.4323 283.805 49.7147L285.701 48.9259L285.678 48.8551C285.447 48.1467 284.838 47.7645 284.012 48.0331C283.332 48.2541 282.985 48.7757 283.073 49.5288L281.23 49.7379C281.062 48.2106 281.928 46.9735 283.572 46.439C285.299 45.877 286.855 46.4201 287.413 48.1341L288.233 50.6552C288.329 50.9525 288.493 51.0714 288.663 51.0159C288.748 50.9883 288.885 50.9283 289.215 50.789L289.847 52.2129ZM286.203 50.4692L286.115 50.1997L284.381 50.9833C283.686 51.303 283.484 51.7449 283.632 52.1978C283.793 52.6936 284.296 52.8433 284.92 52.6404C285.96 52.3023 286.497 51.3736 286.203 50.4692Z"
    fill="url(#7d767150-2631-11ec-a746-65090f7e5dbepaint53_linear)"></path>
  <path
    d="M291.883 48.9042C292.109 49.5974 292.56 49.8745 293.126 49.6902C293.53 49.5303 293.893 49.2837 294.191 48.9677L295.236 50.3496C294.628 50.9867 294.16 51.2802 293.565 51.4736C291.88 52.0216 290.617 51.3667 290.06 49.6539L289.06 46.5801L287.542 47.0738L287.045 45.5444L288.563 45.0507L287.729 42.4867L289.414 41.3119L290.432 44.4427L293.166 43.5536L293.663 45.0829L290.93 45.972L291.883 48.9042Z"
    fill="url(#7d767150-2631-11ec-a746-65090f7e5dbepaint54_linear)"></path>
  <defs>
    <linearGradient id="7d767150-2631-11ec-a746-65090f7e5dbepaint0_linear" x1="-7.01757" y1="6.965" x2="336.732"
      y2="151.01" gradientUnits="userSpaceOnUse">
      <stop stop-color="#5F0F3B"></stop>
      <stop offset="1" stop-color="#362364"></stop>
    </linearGradient>
    <linearGradient id="7d767150-2631-11ec-a746-65090f7e5dbepaint1_linear" x1="141.385" y1="-18.1665" x2="141.385"
      y2="151.011" gradientUnits="userSpaceOnUse">
      <stop stop-color="#C4C4C4"></stop>
      <stop offset="1" stop-color="#C4C4C4" stop-opacity="0"></stop>
    </linearGradient>
    <linearGradient id="7d767150-2631-11ec-a746-65090f7e5dbepaint2_linear" x1="-29.7271" y1="32.9205" x2="55.0992"
      y2="109.499" gradientUnits="userSpaceOnUse">
      <stop stop-color="#FF008E" stop-opacity="0"></stop>
      <stop offset="1" stop-color="#FFCD1E"></stop>
    </linearGradient>
    <linearGradient id="7d767150-2631-11ec-a746-65090f7e5dbepaint3_linear" x1="-29.7271" y1="-8.19323" x2="55.0992"
      y2="68.3856" gradientUnits="userSpaceOnUse">
      <stop stop-color="#FF008E" stop-opacity="0"></stop>
      <stop offset="1" stop-color="#FFCD1E"></stop>
    </linearGradient>
    <linearGradient id="7d767150-2631-11ec-a746-65090f7e5dbepaint4_linear" x1="-29.7271" y1="74.0343" x2="55.0992"
      y2="150.613" gradientUnits="userSpaceOnUse">
      <stop stop-color="#FF008E" stop-opacity="0"></stop>
      <stop offset="1" stop-color="#FFCD1E"></stop>
    </linearGradient>
    <linearGradient id="7d767150-2631-11ec-a746-65090f7e5dbepaint5_linear" x1="42.4885" y1="32.9205" x2="127.315"
      y2="109.499" gradientUnits="userSpaceOnUse">
      <stop stop-color="#FF008E" stop-opacity="0"></stop>
      <stop offset="1" stop-color="#FFCD1E"></stop>
    </linearGradient>
    <linearGradient id="7d767150-2631-11ec-a746-65090f7e5dbepaint6_linear" x1="42.4885" y1="-8.19323" x2="127.315"
      y2="68.3856" gradientUnits="userSpaceOnUse">
      <stop stop-color="#FF008E" stop-opacity="0"></stop>
      <stop offset="1" stop-color="#FFCD1E"></stop>
    </linearGradient>
    <linearGradient id="7d767150-2631-11ec-a746-65090f7e5dbepaint7_linear" x1="42.4885" y1="74.0343" x2="127.315"
      y2="150.613" gradientUnits="userSpaceOnUse">
      <stop stop-color="#FF008E" stop-opacity="0"></stop>
      <stop offset="1" stop-color="#FFCD1E"></stop>
    </linearGradient>
    <linearGradient id="7d767150-2631-11ec-a746-65090f7e5dbepaint8_linear" x1="114.704" y1="32.9205" x2="199.53"
      y2="109.499" gradientUnits="userSpaceOnUse">
      <stop stop-color="#FF008E" stop-opacity="0"></stop>
      <stop offset="1" stop-color="#FFCD1E"></stop>
    </linearGradient>
    <linearGradient id="7d767150-2631-11ec-a746-65090f7e5dbepaint9_linear" x1="114.704" y1="-8.19323" x2="199.53"
      y2="68.3856" gradientUnits="userSpaceOnUse">
      <stop stop-color="#FF008E" stop-opacity="0"></stop>
      <stop offset="1" stop-color="#FFCD1E"></stop>
    </linearGradient>
    <linearGradient id="7d767150-2631-11ec-a746-65090f7e5dbepaint10_linear" x1="114.704" y1="74.0343" x2="199.53"
      y2="150.613" gradientUnits="userSpaceOnUse">
      <stop stop-color="#FF008E" stop-opacity="0"></stop>
      <stop offset="1" stop-color="#FFCD1E"></stop>
    </linearGradient>
    <linearGradient id="7d767150-2631-11ec-a746-65090f7e5dbepaint11_linear" x1="186.919" y1="32.9205" x2="271.745"
      y2="109.499" gradientUnits="userSpaceOnUse">
      <stop stop-color="#FF008E" stop-opacity="0"></stop>
      <stop offset="1" stop-color="#FFCD1E"></stop>
    </linearGradient>
    <linearGradient id="7d767150-2631-11ec-a746-65090f7e5dbepaint12_linear" x1="186.919" y1="-8.19323" x2="271.745"
      y2="68.3856" gradientUnits="userSpaceOnUse">
      <stop stop-color="#FF008E" stop-opacity="0"></stop>
      <stop offset="1" stop-color="#FFCD1E"></stop>
    </linearGradient>
    <linearGradient id="7d767150-2631-11ec-a746-65090f7e5dbepaint13_linear" x1="186.919" y1="74.0343" x2="271.745"
      y2="150.613" gradientUnits="userSpaceOnUse">
      <stop stop-color="#FF008E" stop-opacity="0"></stop>
      <stop offset="1" stop-color="#FFCD1E"></stop>
    </linearGradient>
    <linearGradient id="7d767150-2631-11ec-a746-65090f7e5dbepaint14_linear" x1="87.916" y1="-0.673262" x2="6.45037"
      y2="70.8974" gradientUnits="userSpaceOnUse">
      <stop stop-color="#FF008E"></stop>
      <stop offset="1" stop-color="#FFCD1E" stop-opacity="0"></stop>
    </linearGradient>
    <linearGradient id="7d767150-2631-11ec-a746-65090f7e5dbepaint15_linear" x1="87.916" y1="-41.787" x2="6.45037"
      y2="29.7836" gradientUnits="userSpaceOnUse">
      <stop stop-color="#FF008E"></stop>
      <stop offset="1" stop-color="#FFCD1E" stop-opacity="0"></stop>
    </linearGradient>
    <linearGradient id="7d767150-2631-11ec-a746-65090f7e5dbepaint16_linear" x1="87.916" y1="40.44" x2="6.45037"
      y2="112.011" gradientUnits="userSpaceOnUse">
      <stop stop-color="#FF008E"></stop>
      <stop offset="1" stop-color="#FFCD1E" stop-opacity="0"></stop>
    </linearGradient>
    <linearGradient id="7d767150-2631-11ec-a746-65090f7e5dbepaint17_linear" x1="160.131" y1="-0.673262" x2="78.6655"
      y2="70.8974" gradientUnits="userSpaceOnUse">
      <stop stop-color="#FF008E"></stop>
      <stop offset="1" stop-color="#FFCD1E" stop-opacity="0"></stop>
    </linearGradient>
    <linearGradient id="7d767150-2631-11ec-a746-65090f7e5dbepaint18_linear" x1="160.131" y1="-41.787" x2="78.6655"
      y2="29.7836" gradientUnits="userSpaceOnUse">
      <stop stop-color="#FF008E"></stop>
      <stop offset="1" stop-color="#FFCD1E" stop-opacity="0"></stop>
    </linearGradient>
    <linearGradient id="7d767150-2631-11ec-a746-65090f7e5dbepaint19_linear" x1="160.131" y1="40.44" x2="78.6655"
      y2="112.011" gradientUnits="userSpaceOnUse">
      <stop stop-color="#FF008E"></stop>
      <stop offset="1" stop-color="#FFCD1E" stop-opacity="0"></stop>
    </linearGradient>
    <linearGradient id="7d767150-2631-11ec-a746-65090f7e5dbepaint20_linear" x1="232.347" y1="-0.673262" x2="150.882"
      y2="70.8974" gradientUnits="userSpaceOnUse">
      <stop stop-color="#FF008E"></stop>
      <stop offset="1" stop-color="#FFCD1E" stop-opacity="0"></stop>
    </linearGradient>
    <linearGradient id="7d767150-2631-11ec-a746-65090f7e5dbepaint21_linear" x1="232.347" y1="-41.787" x2="150.882"
      y2="29.7836" gradientUnits="userSpaceOnUse">
      <stop stop-color="#FF008E"></stop>
      <stop offset="1" stop-color="#FFCD1E" stop-opacity="0"></stop>
    </linearGradient>
    <linearGradient id="7d767150-2631-11ec-a746-65090f7e5dbepaint22_linear" x1="232.347" y1="40.44" x2="150.882"
      y2="112.011" gradientUnits="userSpaceOnUse">
      <stop stop-color="#FF008E"></stop>
      <stop offset="1" stop-color="#FFCD1E" stop-opacity="0"></stop>
    </linearGradient>
    <linearGradient id="7d767150-2631-11ec-a746-65090f7e5dbepaint23_linear" x1="304.562" y1="-0.673262" x2="223.096"
      y2="70.8974" gradientUnits="userSpaceOnUse">
      <stop stop-color="#FF008E"></stop>
      <stop offset="1" stop-color="#FFCD1E" stop-opacity="0"></stop>
    </linearGradient>
    <linearGradient id="7d767150-2631-11ec-a746-65090f7e5dbepaint24_linear" x1="304.562" y1="-41.787" x2="223.096"
      y2="29.7836" gradientUnits="userSpaceOnUse">
      <stop stop-color="#FF008E"></stop>
      <stop offset="1" stop-color="#FFCD1E" stop-opacity="0"></stop>
    </linearGradient>
    <linearGradient id="7d767150-2631-11ec-a746-65090f7e5dbepaint25_linear" x1="304.562" y1="40.44" x2="223.096"
      y2="112.011" gradientUnits="userSpaceOnUse">
      <stop stop-color="#FF008E"></stop>
      <stop offset="1" stop-color="#FFCD1E" stop-opacity="0"></stop>
    </linearGradient>
    <linearGradient id="7d767150-2631-11ec-a746-65090f7e5dbepaint26_linear" x1="279.029" y1="0" x2="279.029" y2="151.01"
      gradientUnits="userSpaceOnUse">
      <stop stop-color="#FF008E"></stop>
      <stop offset="1" stop-color="#FFCD1E"></stop>
    </linearGradient>
    <linearGradient id="7d767150-2631-11ec-a746-65090f7e5dbepaint27_linear" x1="279.029" y1="-22.0288" x2="279.029"
      y2="170.406" gradientUnits="userSpaceOnUse">
      <stop stop-color="#FF008E"></stop>
      <stop offset="1" stop-color="#8257E5"></stop>
    </linearGradient>
    <linearGradient id="7d767150-2631-11ec-a746-65090f7e5dbepaint28_linear" x1="134.863" y1="109.81" x2="328.437"
      y2="-3.39872" gradientUnits="userSpaceOnUse">
      <stop stop-color="#FF008E" stop-opacity="0"></stop>
      <stop offset="1" stop-color="#8257E5"></stop>
    </linearGradient>
    <linearGradient id="7d767150-2631-11ec-a746-65090f7e5dbepaint29_linear" x1="134.862" y1="222.854" x2="328.436"
      y2="109.645" gradientUnits="userSpaceOnUse">
      <stop stop-color="#FF008E" stop-opacity="0"></stop>
      <stop offset="1" stop-color="#8257E5"></stop>
    </linearGradient>
    <linearGradient id="7d767150-2631-11ec-a746-65090f7e5dbepaint30_linear" x1="234.199" y1="54.1035" x2="422.494"
      y2="167.606" gradientUnits="userSpaceOnUse">
      <stop stop-color="#FF008E" stop-opacity="0"></stop>
      <stop offset="0.98" stop-color="#FFCD1E"></stop>
    </linearGradient>
    <linearGradient id="7d767150-2631-11ec-a746-65090f7e5dbepaint31_linear" x1="227.928" y1="-6.24489" x2="385.646"
      y2="118.228" gradientUnits="userSpaceOnUse">
      <stop stop-color="#FFCD1E"></stop>
      <stop offset="1" stop-color="#FF008E" stop-opacity="0"></stop>
    </linearGradient>
    <linearGradient id="7d767150-2631-11ec-a746-65090f7e5dbepaint32_linear" x1="227.928" y1="-6.24489" x2="385.646"
      y2="118.228" gradientUnits="userSpaceOnUse">
      <stop stop-color="#FFCD1E"></stop>
      <stop offset="1" stop-color="#FF008E" stop-opacity="0"></stop>
    </linearGradient>
    <linearGradient id="7d767150-2631-11ec-a746-65090f7e5dbepaint33_linear" x1="227.928" y1="-6.24489" x2="385.646"
      y2="118.228" gradientUnits="userSpaceOnUse">
      <stop stop-color="#FFCD1E"></stop>
      <stop offset="1" stop-color="#FF008E" stop-opacity="0"></stop>
    </linearGradient>
    <linearGradient id="7d767150-2631-11ec-a746-65090f7e5dbepaint34_linear" x1="227.928" y1="-6.24489" x2="385.646"
      y2="118.228" gradientUnits="userSpaceOnUse">
      <stop stop-color="#FFCD1E"></stop>
      <stop offset="1" stop-color="#FF008E" stop-opacity="0"></stop>
    </linearGradient>
    <linearGradient id="7d767150-2631-11ec-a746-65090f7e5dbepaint35_linear" x1="227.928" y1="-6.24489" x2="385.646"
      y2="118.228" gradientUnits="userSpaceOnUse">
      <stop stop-color="#FFCD1E"></stop>
      <stop offset="1" stop-color="#FF008E" stop-opacity="0"></stop>
    </linearGradient>
    <linearGradient id="7d767150-2631-11ec-a746-65090f7e5dbepaint36_linear" x1="227.928" y1="-6.24489" x2="385.646"
      y2="118.228" gradientUnits="userSpaceOnUse">
      <stop stop-color="#FFCD1E"></stop>
      <stop offset="1" stop-color="#FF008E" stop-opacity="0"></stop>
    </linearGradient>
    <linearGradient id="7d767150-2631-11ec-a746-65090f7e5dbepaint37_linear" x1="227.928" y1="-6.24489" x2="385.646"
      y2="118.228" gradientUnits="userSpaceOnUse">
      <stop stop-color="#FFCD1E"></stop>
      <stop offset="1" stop-color="#FF008E" stop-opacity="0"></stop>
    </linearGradient>
    <linearGradient id="7d767150-2631-11ec-a746-65090f7e5dbepaint38_linear" x1="227.928" y1="-6.24489" x2="385.646"
      y2="118.228" gradientUnits="userSpaceOnUse">
      <stop stop-color="#FFCD1E"></stop>
      <stop offset="1" stop-color="#FF008E" stop-opacity="0"></stop>
    </linearGradient>
    <linearGradient id="7d767150-2631-11ec-a746-65090f7e5dbepaint39_linear" x1="227.928" y1="-6.24489" x2="385.646"
      y2="118.228" gradientUnits="userSpaceOnUse">
      <stop stop-color="#FFCD1E"></stop>
      <stop offset="1" stop-color="#FF008E" stop-opacity="0"></stop>
    </linearGradient>
    <linearGradient id="7d767150-2631-11ec-a746-65090f7e5dbepaint40_linear" x1="227.928" y1="-6.24489" x2="385.646"
      y2="118.228" gradientUnits="userSpaceOnUse">
      <stop stop-color="#FFCD1E"></stop>
      <stop offset="1" stop-color="#FF008E" stop-opacity="0"></stop>
    </linearGradient>
    <linearGradient id="7d767150-2631-11ec-a746-65090f7e5dbepaint41_linear" x1="227.928" y1="-6.24489" x2="385.646"
      y2="118.228" gradientUnits="userSpaceOnUse">
      <stop stop-color="#FFCD1E"></stop>
      <stop offset="1" stop-color="#FF008E" stop-opacity="0"></stop>
    </linearGradient>
    <linearGradient id="7d767150-2631-11ec-a746-65090f7e5dbepaint42_linear" x1="227.928" y1="-6.24489" x2="385.646"
      y2="118.228" gradientUnits="userSpaceOnUse">
      <stop stop-color="#FFCD1E"></stop>
      <stop offset="1" stop-color="#FF008E" stop-opacity="0"></stop>
    </linearGradient>
    <linearGradient id="7d767150-2631-11ec-a746-65090f7e5dbepaint43_linear" x1="227.928" y1="-6.24489" x2="385.646"
      y2="118.228" gradientUnits="userSpaceOnUse">
      <stop stop-color="#FFCD1E"></stop>
      <stop offset="1" stop-color="#FF008E" stop-opacity="0"></stop>
    </linearGradient>
    <linearGradient id="7d767150-2631-11ec-a746-65090f7e5dbepaint44_linear" x1="227.928" y1="-6.24489" x2="385.646"
      y2="118.228" gradientUnits="userSpaceOnUse">
      <stop stop-color="#FFCD1E"></stop>
      <stop offset="1" stop-color="#FF008E" stop-opacity="0"></stop>
    </linearGradient>
    <linearGradient id="7d767150-2631-11ec-a746-65090f7e5dbepaint45_linear" x1="234.392" y1="24.8804" x2="315.961"
      y2="14.7746" gradientUnits="userSpaceOnUse">
      <stop stop-color="#3F0B28"></stop>
      <stop offset="1" stop-color="#1D1138"></stop>
    </linearGradient>
    <linearGradient id="7d767150-2631-11ec-a746-65090f7e5dbepaint46_linear" x1="298.581" y1="44.7737" x2="263.735"
      y2="56.2914" gradientUnits="userSpaceOnUse">
      <stop stop-color="#FF008E"></stop>
      <stop offset="1" stop-color="#8257E5"></stop>
    </linearGradient>
    <linearGradient id="7d767150-2631-11ec-a746-65090f7e5dbepaint47_linear" x1="298.581" y1="44.7737" x2="263.735"
      y2="56.2914" gradientUnits="userSpaceOnUse">
      <stop stop-color="#FF008E"></stop>
      <stop offset="1" stop-color="#8257E5"></stop>
    </linearGradient>
    <linearGradient id="7d767150-2631-11ec-a746-65090f7e5dbepaint48_linear" x1="298.581" y1="44.7737" x2="263.735"
      y2="56.2914" gradientUnits="userSpaceOnUse">
      <stop stop-color="#FF008E"></stop>
      <stop offset="1" stop-color="#8257E5"></stop>
    </linearGradient>
    <linearGradient id="7d767150-2631-11ec-a746-65090f7e5dbepaint49_linear" x1="298.581" y1="44.7737" x2="263.735"
      y2="56.2914" gradientUnits="userSpaceOnUse">
      <stop stop-color="#FF008E"></stop>
      <stop offset="1" stop-color="#8257E5"></stop>
    </linearGradient>
    <linearGradient id="7d767150-2631-11ec-a746-65090f7e5dbepaint50_linear" x1="234.716" y1="25.2317" x2="315.802"
      y2="15.1858" gradientUnits="userSpaceOnUse">
      <stop stop-color="#3F0B28"></stop>
      <stop offset="1" stop-color="#1D1138"></stop>
    </linearGradient>
    <linearGradient id="7d767150-2631-11ec-a746-65090f7e5dbepaint51_linear" x1="300.113" y1="55.6631" x2="267.854"
      y2="46.9145" gradientUnits="userSpaceOnUse">
      <stop stop-color="#FF008E"></stop>
      <stop offset="1" stop-color="#8257E5"></stop>
    </linearGradient>
    <linearGradient id="7d767150-2631-11ec-a746-65090f7e5dbepaint52_linear" x1="300.113" y1="55.6631" x2="267.854"
      y2="46.9145" gradientUnits="userSpaceOnUse">
      <stop stop-color="#FF008E"></stop>
      <stop offset="1" stop-color="#8257E5"></stop>
    </linearGradient>
    <linearGradient id="7d767150-2631-11ec-a746-65090f7e5dbepaint53_linear" x1="300.113" y1="55.6631" x2="267.854"
      y2="46.9145" gradientUnits="userSpaceOnUse">
      <stop stop-color="#FF008E"></stop>
      <stop offset="1" stop-color="#8257E5"></stop>
    </linearGradient>
    <linearGradient id="7d767150-2631-11ec-a746-65090f7e5dbepaint54_linear" x1="300.113" y1="55.6631" x2="267.854"
      y2="46.9145" gradientUnits="userSpaceOnUse">
      <stop stop-color="#FF008E"></stop>
      <stop offset="1" stop-color="#8257E5"></stop>
    </linearGradient>
  </defs>
</svg>
