<svg width="58" height="52" viewBox="0 0 58 52" fill="none" xmlns="http://www.w3.org/2000/svg"
  class="styles_icon__3668M">
  <path fill-rule="evenodd" clip-rule="evenodd"
    d="M10.5649 0.393555C7.00758 0.393555 3.79559 2.97822 3.79559 6.54955V36.7195C2.08168 37.2362 0.832703 38.8276 0.832703 40.7095V44.5602C0.832703 48.3353 3.89094 51.3935 7.66604 51.3935H50.3327C54.1078 51.3935 57.166 48.3353 57.166 44.5602V40.7095C57.166 38.8249 55.9168 37.2357 54.2036 36.7195V6.54955C54.2036 2.97822 50.9916 0.393555 47.4343 0.393555H10.5649ZM52.6923 39.5428C52.696 39.5429 52.6998 39.5429 52.7036 39.5429C52.7074 39.5429 52.7112 39.5429 52.7149 39.5428H52.9994C53.6439 39.5428 54.166 40.0643 54.166 40.7095V44.5602C54.166 46.6784 52.4509 48.3935 50.3327 48.3935H7.66604C5.5478 48.3935 3.8327 46.6784 3.8327 44.5602V40.7095C3.8327 40.0659 4.3558 39.5428 4.99937 39.5428H5.28425C5.28803 39.5429 5.29181 39.5429 5.29559 39.5429C5.29938 39.5429 5.30316 39.5429 5.30693 39.5428H15.7194C16.1102 39.5428 16.4752 39.7389 16.6893 40.0605L16.6902 40.0619L18.0679 42.1272L18.0689 42.1286C18.8416 43.2888 20.1455 43.9828 21.5354 43.9828H36.4607C37.8508 43.9828 39.1549 43.2886 39.9276 42.1281L39.9281 42.1272L41.3059 40.0619L41.3068 40.0605C41.5209 39.7389 41.8859 39.5428 42.2767 39.5428H52.6923ZM51.2036 36.5428V6.54955C51.2036 4.97423 49.6956 3.39355 47.4343 3.39355H10.5649C8.3036 3.39355 6.79559 4.97423 6.79559 6.54955V36.5428H15.7194C17.1096 36.5428 18.4137 37.2372 19.1864 38.3979L19.1868 38.3985L20.5645 40.4638L20.5655 40.4652C20.7795 40.7868 21.1445 40.9828 21.5354 40.9828H36.4607C36.8516 40.9828 37.2166 40.7868 37.4306 40.4652L37.4315 40.4638L38.8093 38.3985L38.8098 38.3976C39.5825 37.2371 40.8866 36.5428 42.2767 36.5428H51.2036Z"
    fill="url(#videoContent0_linear)"></path>
  <path fill-rule="evenodd" clip-rule="evenodd"
    d="M26.8831 16.6751L34.6458 21.2671C35.6271 21.8458 35.6271 23.2698 34.6458 23.8484L26.8831 28.4404C25.8831 29.0324 24.6191 28.3098 24.6191 27.1498V17.9684C24.6191 16.8058 25.8831 16.0831 26.8831 16.6751Z"
    stroke="#E1E1E6" stroke-width="3" stroke-linecap="round" stroke-linejoin="round"></path>
  <defs>
    <linearGradient id="videoContent0_linear" x1="61.3953" y1="25.8936" x2="0.832797" y2="25.9684"
      gradientUnits="userSpaceOnUse">
      <stop stop-color="#FF008E"></stop>
      <stop offset="1" stop-color="#8257E5"></stop>
    </linearGradient>
  </defs>
</svg>
